<?xml version="1.0" encoding="UTF-8" standalone="no"?>
<svg
   xmlns:dc="http://purl.org/dc/elements/1.1/"
   xmlns:cc="http://creativecommons.org/ns#"
   xmlns:rdf="http://www.w3.org/1999/02/22-rdf-syntax-ns#"
   xmlns:svg="http://www.w3.org/2000/svg"
   xmlns="http://www.w3.org/2000/svg"
   xmlns:xlink="http://www.w3.org/1999/xlink"
   version="1.1"
   width="48"
   height="48"
   id="svg4951">
  <defs
     id="defs4953">
    <linearGradient
       x1="71.204407"
       y1="15.369057"
       x2="71.204407"
       y2="40.495617"
       id="linearGradient3177"
       xlink:href="#linearGradient4806-2"
       gradientUnits="userSpaceOnUse"
       gradientTransform="matrix(1.6169806,0,0,1.6169806,-92.707374,-21.060237)" />
    <linearGradient
       id="linearGradient4806-2">
      <stop
         id="stop4808-4"
         style="stop-color:#ffffff;stop-opacity:1"
         offset="0" />
      <stop
         id="stop4810-0"
         style="stop-color:#ffffff;stop-opacity:0.23529412"
         offset="0.42447853" />
      <stop
         id="stop4812-8"
         style="stop-color:#ffffff;stop-opacity:0.15686275"
         offset="0.82089913" />
      <stop
         id="stop4814-0"
         style="stop-color:#ffffff;stop-opacity:0.39215687"
         offset="1" />
    </linearGradient>
    <linearGradient
       id="linearGradient3820-7-2-1">
      <stop
         id="stop3822-2-6-3"
         style="stop-color:#3d3d3d;stop-opacity:1"
         offset="0" />
      <stop
         id="stop3864-8-7-7"
         style="stop-color:#686868;stop-opacity:0.49803922"
         offset="0.5" />
      <stop
         id="stop3824-1-2-5"
         style="stop-color:#686868;stop-opacity:0"
         offset="1" />
    </linearGradient>
    <radialGradient
       cx="99.157013"
       cy="186.17059"
       r="62.769119"
       fx="99.157013"
       fy="186.17059"
       id="radialGradient4949"
       xlink:href="#linearGradient3820-7-2-1"
       gradientUnits="userSpaceOnUse"
       gradientTransform="matrix(0.27083381,0,0,0.08762273,-2.85507,25.187228)" />
    <linearGradient
       id="linearGradient1225">
      <stop
         id="stop1221"
         offset="0"
         style="stop-color:#f37329;stop-opacity:1" />
      <stop
         id="stop1223"
         offset="1"
         style="stop-color:#e95420;stop-opacity:1" />
    </linearGradient>
    <linearGradient
       gradientTransform="matrix(0.39423077,0,0,0.39423077,-1.427886,-2.018512)"
       gradientUnits="userSpaceOnUse"
       y2="118.04783"
       x2="64.5"
       y1="13.998179"
       x1="64.5"
       id="linearGradient1227"
       xlink:href="#linearGradient1225" />
  </defs>
  <metadata
     id="metadata4956">
    <rdf:RDF>
      <cc:Work
         rdf:about="">
        <dc:format>image/svg+xml</dc:format>
        <dc:type
           rdf:resource="http://purl.org/dc/dcmitype/StillImage" />
        <dc:title></dc:title>
      </cc:Work>
    </rdf:RDF>
  </metadata>
  <path
     style="opacity:1;fill:url(#radialGradient4949);fill-opacity:1;stroke:none"
     id="path3818-0-5"
     d="m 41,41.5 a 17,5.4999999 0 0 1 -34,0 17,5.4999999 0 1 1 34,0 z" />
  <circle
     class="st1"
     cx="24"
     cy="24"
     r="20.5"
     id="circle7"
     style="opacity:1;fill:url(#linearGradient1227);fill-opacity:1;stroke-width:1" />
  <path
     style="color:#000000;display:inline;overflow:visible;visibility:visible;opacity:0.4;fill:none;stroke:url(#linearGradient3177);stroke-width:1;stroke-linecap:round;stroke-linejoin:round;stroke-miterlimit:4;stroke-dasharray:none;stroke-dashoffset:0;stroke-opacity:1;marker:none;enable-background:accumulate"
     id="path4176"
     d="M 43.5,24.000001 C 43.5,34.76955 34.76954,43.5 23.99999,43.5 13.23045,43.5 4.5,34.76955 4.5,24.000001 4.5,13.23045 13.23045,4.5000019 23.99999,4.5000019 34.76954,4.5000019 43.5,13.23045 43.5,24.000001 Z" />
  <path
     style="color:#000000;display:inline;overflow:visible;visibility:visible;opacity:0.5;fill:none;stroke:#a62100;stroke-width:1;stroke-opacity:1;marker:none;enable-background:accumulate;font-variation-settings:normal;vector-effect:none;fill-opacity:0;stroke-linecap:round;stroke-linejoin:round;stroke-miterlimit:4;stroke-dasharray:none;stroke-dashoffset:0"
     id="path3871"
     d="M 24,3.4999999 C 12.68881,3.4999999 3.5,12.688806 3.5,23.999999 3.5,35.31119 12.68881,44.5 24,44.5 35.31119,44.5 44.50001,35.31119 44.5,23.999999 44.5,12.688806 35.31119,3.4999999 24,3.4999999 Z" />
  <path
     d="m 23.560547,12.5 a 1.0000992,1.0000992 0 0 0 -0.412109,0.105469 l -5.419922,2.71289 a 1.0000992,1.0000992 0 0 0 -0.199219,0.132813 1.0000992,1.0000992 0 0 0 -0.263672,0.08008 l -0.210937,0.09961 a 1.0000992,1.0000992 0 0 0 -0.01953,0.0098 L 11.8125,18.253906 A 1.0000992,1.0000992 0 0 0 11.349609,18.736328 1.0000992,1.0000992 0 0 0 11,19.494141 v 5.425781 a 1.0000992,1.0000992 0 0 0 0.0293,0.234375 A 1.0000992,1.0000992 0 0 0 11,25.390625 v 5.423828 a 1.0000992,1.0000992 0 0 0 0.552734,0.894531 l 5.482422,2.738282 a 1.0000992,1.0000992 0 0 0 0.222656,0.07813 1.0000992,1.0000992 0 0 0 0.199219,0.132812 l 0.01563,0.0078 0.230469,0.11914 a 1.0000992,1.0000992 0 0 0 0.01367,0.0078 l 5.210937,2.601562 a 1.0000992,1.0000992 0 0 0 0.658204,0.08203 1.0000992,1.0000992 0 0 0 0.65625,-0.08203 l 5.210937,-2.601562 a 1.0000992,1.0000992 0 0 0 0.01758,-0.0098 l 0.210938,-0.111328 h 0.0039 a 1.0000992,1.0000992 0 0 0 0.222656,-0.144531 1.0000992,1.0000992 0 0 0 0.224609,-0.08008 l 5.470704,-2.738282 A 1.0000992,1.0000992 0 0 0 36.15625,30.814453 V 25.390625 A 1.0000992,1.0000992 0 0 0 35.835938,24.658203 1.0000992,1.0000992 0 0 0 35.625,24.335938 l 2.822266,-1.410157 A 1.0000992,1.0000992 0 0 0 39,22.03125 V 16.615234 A 1.0000992,1.0000992 0 0 0 38.644531,15.851562 1.0000992,1.0000992 0 0 0 38.189453,15.386719 L 32.789062,12.6875 a 1.0000992,1.0000992 0 0 0 -0.892578,0 l -3.863281,1.923828 a 1.0000992,1.0000992 0 0 0 -0.03906,-0.02344 L 24.044922,12.605469 A 1.0000992,1.0000992 0 0 0 23.560547,12.5 Z"
     id="path9-3-6"
     style="font-variation-settings:normal;opacity:0.05;vector-effect:none;fill:#8f1c00;fill-opacity:1;stroke-width:1;stroke-linecap:butt;stroke-linejoin:miter;stroke-miterlimit:4;stroke-dasharray:none;stroke-dashoffset:0;stroke-opacity:1" />
  <path
     style="opacity:0.15;fill:#8d1c00;stroke-width:1;font-variation-settings:normal;vector-effect:none;fill-opacity:1;stroke-linecap:butt;stroke-linejoin:miter;stroke-miterlimit:4;stroke-dasharray:none;stroke-dashoffset:0;stroke-opacity:1"
     d="m 23.596375,13.500002 -5.420899,2.712648 5.420899,2.711861 2.723148,-1.38706 v -1.350019 c 0,-0.02476 3.19e-4,-0.03727 0.01267,-0.04965 0,0 -4.12e-4,-0.01182 0.01185,-0.01182 0,-0.0124 0.01267,-0.02465 0.01267,-0.03704 0,-0.01239 0.01185,-0.01261 0.01185,-0.01261 l 0.02535,-0.02522 0.01185,-0.01182 0.01268,-0.01261 h 0.02463 l 1.101319,-0.544578 z m 8.744691,0.08118 -3.932373,1.9608 -0.234076,0.123731 -0.234065,0.111122 -0.998965,0.505175 0.998965,0.493352 0.234065,0.123731 0.234076,0.111123 0.788694,0.39484 0.210261,0.111122 0.209477,0.09851 2.723941,1.368935 5.400271,-2.701615 z m -14.648012,2.854508 -0.210267,0.09851 -5.222535,2.613348 5.160647,2.588916 0.06189,0.02443 0.210267,0.09931 0.210267,-0.09931 5.210632,-2.613347 -2.573976,-1.287759 -0.978331,-0.483107 z m 8.98987,0.167077 v 3.934996 l 2.514463,1.2586 0.210261,0.111121 0.09841,0.04887 h 0.02453 c 0.01226,0 0.01185,0.01262 0.01185,0.01262 0.01226,0 0.01268,0.01261 0.01268,0.01261 l 0.02463,0.02443 0.01267,0.01261 c 0.01226,0.01235 0.01195,0.02471 0.01195,0.03704 0,0 3.92e-4,0.01182 0.01267,0.01182 0,0.01235 0.01185,0.0368 0.01185,0.06147 l -0.01185,0.136341 v 1.233381 l 2.514463,1.257811 V 19.354041 L 29.617038,18.095442 29.40756,17.98432 29.1973,17.873197 27.940465,17.244292 27.705596,17.121347 27.471521,16.997615 Z M 38,16.615377 32.551337,19.354032 v 5.402443 l 0.788694,-0.394839 0.234065,-0.122944 0.234075,-0.111123 L 38,22.030429 Z m -11.680477,1.405187 -2.264532,1.126986 2.264532,1.139596 z m -2.780279,1.431981 -0.209471,0.111123 -5.190002,2.590492 2.465271,1.233381 2.724731,1.368934 0.209471,0.09851 0.209474,-0.09851 3.722901,-1.862287 0.234065,-0.123731 0.234868,-0.111122 0.998172,-0.505175 -2.2558,-1.123045 -0.209477,-0.110334 -0.209467,-0.09931 -2.515262,-1.257812 z M 12,19.494325 v 5.425297 l 0.02458,0.01261 0.235654,0.111122 5.222535,2.613348 v -5.424509 l -0.02462,-0.01261 -0.247556,-0.123734 z m 5.880307,3.005034 v 5.403231 l 0.02458,0.01182 0.234865,0.111122 2.465272,1.233381 2.724731,1.369721 v -5.403231 l -0.02462,-0.01261 -0.234861,-0.122944 -2.563661,-1.28303 z m 11.31708,0 -0.788694,0.394839 -0.234076,0.111123 -0.234065,0.122944 -3.933166,1.961587 -0.234073,0.122944 -0.02462,0.01261 v 5.40323 l 5.189998,-2.603102 0.234076,-0.111123 0.02463,-0.01182 z m 0.500673,1.404399 v 3.740335 l 5.210631,-2.613348 -1.002139,-0.507539 -1.374269,0.693531 c -0.01237,0 -0.01216,2.09e-4 -0.02463,0.01261 h -0.01268 c -0.0371,0.02478 -0.06142,0.02443 -0.07378,0.02443 -0.01237,0 -0.03761,-2.12e-4 -0.04998,-0.01261 h -0.01195 c -0.01237,0 -0.01216,5.65e-4 -0.02463,-0.01182 z M 12,25.390119 v 5.424509 l 5.482787,2.737867 v -5.425296 z m 23.156255,0 -5.470097,2.73708 v 5.425296 l 5.470097,-2.737867 z m -17.252934,2.947503 v 5.425298 l 0.02458,0.01261 0.235653,0.123731 5.210632,2.600738 v -5.424507 l -0.02539,-0.01261 -0.234861,-0.123732 z m 11.361511,0 -5.209841,2.601527 -0.235653,0.123732 -0.02462,0.01261 V 36.5 l 5.210637,-2.600738 0.234858,-0.123731 0.02463,-0.01261 z"
     id="path9-3" />
  <path
     style="opacity:1;fill:#ffffff;stroke-width:1"
     d="m 23.596375,12.500001 -5.420899,2.712648 5.420899,2.711861 2.723148,-1.38706 v -1.350019 c 0,-0.02476 3.19e-4,-0.03727 0.01267,-0.04965 0,0 -4.12e-4,-0.01182 0.01185,-0.01182 0,-0.0124 0.01267,-0.02465 0.01267,-0.03704 0,-0.01239 0.01185,-0.01261 0.01185,-0.01261 l 0.02535,-0.02522 0.01185,-0.01182 0.01268,-0.01261 h 0.02463 l 1.101319,-0.544578 z m 8.744691,0.08118 -3.932373,1.9608 -0.234076,0.123731 -0.234065,0.111122 -0.998965,0.505175 0.998965,0.493352 0.234065,0.123731 0.234076,0.111123 0.788694,0.39484 0.210261,0.111122 0.209477,0.09851 2.723941,1.368935 5.400271,-2.701615 z m -14.648012,2.854508 -0.210267,0.09851 -5.222535,2.613348 5.160647,2.588916 0.06189,0.02443 0.210267,0.09931 0.210267,-0.09931 5.210632,-2.613347 -2.573976,-1.287759 -0.978331,-0.483107 z m 8.98987,0.167077 v 3.934996 l 2.514463,1.2586 0.210261,0.111121 0.09841,0.04887 h 0.02453 c 0.01226,0 0.01185,0.01262 0.01185,0.01262 0.01226,0 0.01268,0.01261 0.01268,0.01261 l 0.02463,0.02443 0.01267,0.01261 c 0.01226,0.01235 0.01195,0.02471 0.01195,0.03704 0,0 3.92e-4,0.01182 0.01267,0.01182 0,0.01235 0.01185,0.0368 0.01185,0.06147 l -0.01185,0.136341 v 1.233381 l 2.514463,1.257811 V 18.35404 L 29.617038,17.095441 29.40756,16.984319 29.1973,16.873196 27.940465,16.244291 27.705596,16.121346 27.471521,15.997614 Z M 38,15.615376 32.551337,18.354031 v 5.402443 l 0.788694,-0.394839 0.234065,-0.122944 0.234075,-0.111123 L 38,21.030428 Z m -11.680477,1.405187 -2.264532,1.126986 2.264532,1.139596 z m -2.780279,1.431981 -0.209471,0.111123 -5.190002,2.590492 2.465271,1.233381 2.724731,1.368934 0.209471,0.09851 0.209474,-0.09851 3.722901,-1.862287 0.234065,-0.123731 0.234868,-0.111122 0.998172,-0.505175 -2.2558,-1.123045 L 26.473447,19.92078 26.26398,19.82147 23.748718,18.563658 Z M 12,18.494324 v 5.425297 l 0.02458,0.01261 0.235654,0.111122 5.222535,2.613348 v -5.424509 l -0.02462,-0.01261 -0.247556,-0.123734 z m 5.880307,3.005034 v 5.403231 l 0.02458,0.01182 0.234865,0.111122 2.465272,1.233381 2.724731,1.369721 v -5.403231 l -0.02462,-0.01261 -0.234861,-0.122944 -2.563661,-1.28303 z m 11.31708,0 -0.788694,0.394839 -0.234076,0.111123 -0.234065,0.122944 -3.933166,1.961587 -0.234073,0.122944 -0.02462,0.01261 v 5.40323 l 5.189998,-2.603102 0.234076,-0.111123 0.02463,-0.01182 z m 0.500673,1.404399 v 3.740335 l 5.210631,-2.613348 -1.002139,-0.507539 -1.374269,0.693531 c -0.01237,0 -0.01216,2.09e-4 -0.02463,0.01261 h -0.01268 c -0.0371,0.02478 -0.06142,0.02443 -0.07378,0.02443 -0.01237,0 -0.03761,-2.12e-4 -0.04998,-0.01261 h -0.01195 c -0.01237,0 -0.01216,5.65e-4 -0.02463,-0.01182 z M 12,24.390118 v 5.424509 l 5.482787,2.737867 v -5.425296 z m 23.156255,0 -5.470097,2.73708 v 5.425296 l 5.470097,-2.737867 z m -17.252934,2.947503 v 5.425298 l 0.02458,0.01261 0.235653,0.123731 5.210632,2.600738 v -5.424507 l -0.02539,-0.01261 -0.234861,-0.123732 z m 11.361511,0 -5.209841,2.601527 -0.235653,0.123732 -0.02462,0.01261 v 5.424509 l 5.210637,-2.600738 0.234858,-0.123731 0.02463,-0.01261 z"
     id="path9" />
</svg>
