<?xml version="1.0" encoding="utf-8"?>
<!-- Generator: Adobe Illustrator 16.0.0, SVG Export Plug-In . SVG Version: 6.00 Build 0)  -->
<!DOCTYPE svg PUBLIC "-//W3C//DTD SVG 1.1//EN" "http://www.w3.org/Graphics/SVG/1.1/DTD/svg11.dtd">
<svg version="1.1" xmlns="http://www.w3.org/2000/svg" xmlns:xlink="http://www.w3.org/1999/xlink" x="0px" y="0px" width="128px"
	 height="128px" viewBox="0 0 128 128" enable-background="new 0 0 128 128" xml:space="preserve">
<g id="svg4113" xmlns:dc="http://purl.org/dc/elements/1.1/" xmlns:cc="http://creativecommons.org/ns#" xmlns:rdf="http://www.w3.org/1999/02/22-rdf-syntax-ns#" xmlns:svg="http://www.w3.org/2000/svg">
	<g>
		<g id="rect5505-21-3_1_" opacity="0.9" enable-background="new    ">
			<g>
				<defs>
					<path id="SVGID_1_" d="M17.84,14.613l86.392-5.814c3.178-0.214,5.937,2.317,6.161,5.653l6.104,90.685
						c0.226,3.336-2.169,6.215-5.347,6.43l-86.392,5.814c-3.178,0.213-5.937-2.318-6.162-5.654l-6.104-90.686
						C12.267,17.705,14.662,14.827,17.84,14.613z"/>
				</defs>
				<clipPath id="SVGID_2_">
					<use xlink:href="#SVGID_1_"  overflow="visible"/>
				</clipPath>
				<path clip-path="url(#SVGID_2_)" fill="#0C1011" d="M97.2,104.879c-1.425-3.569-1.256-7.665,1.693-12.64
					c2.062-3.479,3.906-6.234,3.519-10.434c-0.3-3.238-0.054-6.215,1.979-8.864c2.387-3.109,5.938-4.845,9.604-4.981l-4.009-59.551
					l-97.901,6.59l6.917,102.767l73.677-4.959C93.942,110.104,95.517,107.48,97.2,104.879z"/>
				<path clip-path="url(#SVGID_2_)" fill="#0C1011" d="M92.342,113.509c1.31-2.954,3.028-5.802,4.858-8.63
					c-1.425-3.569-1.256-7.665,1.693-12.64c2.062-3.479,3.906-6.234,3.519-10.434c-0.3-3.238-0.054-6.215,1.979-8.864
					c2.594-3.379,6.562-5.131,10.558-4.976l-4.08-60.619l-99.802,6.718l7.051,104.761l52.025-3.5l22.072-1.486
					C92.258,113.729,92.293,113.618,92.342,113.509z"/>
				<path clip-path="url(#SVGID_2_)" fill="#0D1112" d="M92.342,113.509c1.31-2.954,3.028-5.802,4.858-8.63
					c-1.425-3.569-1.256-7.665,1.693-12.64c2.062-3.479,3.906-6.234,3.519-10.434c-0.3-3.238-0.054-6.215,1.979-8.864
					c2.594-3.379,6.562-5.131,10.558-4.976l-4.08-60.619l-99.802,6.718l7.051,104.761l52.025-3.5l22.072-1.486
					C92.258,113.729,92.293,113.618,92.342,113.509z"/>
				<path clip-path="url(#SVGID_2_)" fill="#0E1213" d="M92.342,113.509c1.31-2.954,3.028-5.802,4.858-8.63
					c-1.425-3.569-1.256-7.665,1.693-12.64c2.062-3.479,3.906-6.234,3.519-10.434c-0.3-3.238-0.054-6.215,1.979-8.864
					c2.594-3.379,6.562-5.131,10.558-4.976l-4.08-60.619l-99.802,6.718l7.051,104.761l52.025-3.5l22.072-1.486
					C92.258,113.729,92.293,113.618,92.342,113.509z"/>
				<path clip-path="url(#SVGID_2_)" fill="#0F1314" d="M92.342,113.509c1.31-2.954,3.028-5.802,4.858-8.63
					c-1.425-3.569-1.256-7.665,1.693-12.64c2.062-3.479,3.906-6.234,3.519-10.434c-0.3-3.238-0.054-6.215,1.979-8.864
					c2.594-3.379,6.562-5.131,10.558-4.976l-4.08-60.619l-99.802,6.718l7.051,104.761l52.025-3.5l22.072-1.486
					C92.258,113.729,92.293,113.618,92.342,113.509z"/>
				<path clip-path="url(#SVGID_2_)" fill="#101415" d="M92.342,113.509c1.31-2.954,3.028-5.802,4.858-8.63
					c-1.425-3.569-1.256-7.665,1.693-12.64c2.062-3.479,3.906-6.234,3.519-10.434c-0.3-3.238-0.054-6.215,1.979-8.864
					c2.594-3.379,6.562-5.131,10.558-4.976l-4.08-60.619l-99.802,6.718l7.051,104.761l52.025-3.5l22.072-1.486
					C92.258,113.729,92.293,113.618,92.342,113.509z"/>
				<path clip-path="url(#SVGID_2_)" fill="#111516" d="M92.342,113.509c1.31-2.954,3.028-5.802,4.858-8.63
					c-1.425-3.569-1.256-7.665,1.693-12.64c2.062-3.479,3.906-6.234,3.519-10.434c-0.3-3.238-0.054-6.215,1.979-8.864
					c2.594-3.379,6.562-5.131,10.558-4.976l-4.08-60.619l-99.802,6.718l7.051,104.761l52.025-3.5l22.072-1.486
					C92.258,113.729,92.293,113.618,92.342,113.509z"/>
				<path clip-path="url(#SVGID_2_)" fill="#121617" d="M92.342,113.509c1.31-2.954,3.028-5.802,4.858-8.63
					c-1.425-3.569-1.256-7.665,1.693-12.64c2.062-3.479,3.906-6.234,3.519-10.434c-0.3-3.238-0.054-6.215,1.979-8.864
					c2.594-3.379,6.562-5.131,10.558-4.976l-4.08-60.619l-99.802,6.718l7.051,104.761l52.025-3.5l22.072-1.486
					C92.258,113.729,92.293,113.618,92.342,113.509z"/>
				<path clip-path="url(#SVGID_2_)" fill="#131718" d="M92.342,113.509c1.31-2.954,3.028-5.802,4.858-8.63
					c-1.425-3.569-1.256-7.665,1.693-12.64c2.062-3.479,3.906-6.234,3.519-10.434c-0.3-3.238-0.054-6.215,1.979-8.864
					c2.594-3.379,6.562-5.131,10.558-4.976l-4.08-60.619l-99.802,6.718l7.051,104.761l52.025-3.5l22.072-1.486
					C92.258,113.729,92.293,113.618,92.342,113.509z"/>
				<path clip-path="url(#SVGID_2_)" fill="#141819" d="M92.342,113.509c1.31-2.954,3.028-5.802,4.858-8.63
					c-1.425-3.569-1.256-7.665,1.693-12.64c2.062-3.479,3.906-6.234,3.519-10.434c-0.3-3.238-0.054-6.215,1.979-8.864
					c2.594-3.379,6.562-5.131,10.558-4.976l-4.08-60.619l-99.802,6.718l7.051,104.761l52.025-3.5l22.072-1.486
					C92.258,113.729,92.293,113.618,92.342,113.509z"/>
				<path clip-path="url(#SVGID_2_)" fill="#15191A" d="M92.342,113.509c1.31-2.954,3.028-5.802,4.858-8.63
					c-1.425-3.569-1.256-7.665,1.693-12.64c2.062-3.479,3.906-6.234,3.519-10.434c-0.3-3.238-0.054-6.215,1.979-8.864
					c2.594-3.379,6.562-5.131,10.558-4.976l-4.08-60.619l-99.802,6.718l7.051,104.761l52.025-3.5l22.072-1.486
					C92.258,113.729,92.293,113.618,92.342,113.509z"/>
				<path clip-path="url(#SVGID_2_)" fill="#161A1B" d="M92.342,113.509c1.31-2.954,3.028-5.802,4.858-8.63
					c-1.425-3.569-1.256-7.665,1.693-12.64c2.062-3.479,3.906-6.234,3.519-10.434c-0.3-3.238-0.054-6.215,1.979-8.864
					c2.594-3.379,6.562-5.131,10.558-4.976l-4.08-60.619l-99.802,6.718l7.051,104.761l52.025-3.5l22.072-1.486
					C92.258,113.729,92.293,113.618,92.342,113.509z"/>
				<path clip-path="url(#SVGID_2_)" fill="#171B1C" d="M92.342,113.509c1.31-2.954,3.028-5.802,4.858-8.63
					c-1.425-3.569-1.256-7.665,1.693-12.64c2.062-3.479,3.906-6.234,3.519-10.434c-0.3-3.238-0.054-6.215,1.979-8.864
					c2.594-3.379,6.562-5.131,10.558-4.976l-4.08-60.619l-99.802,6.718l7.051,104.761l52.025-3.5l22.072-1.486
					C92.258,113.729,92.293,113.618,92.342,113.509z"/>
				<path clip-path="url(#SVGID_2_)" fill="#181C1D" d="M92.342,113.509c1.31-2.954,3.028-5.802,4.858-8.63
					c-1.425-3.569-1.256-7.665,1.693-12.64c2.062-3.479,3.906-6.234,3.519-10.434c-0.3-3.238-0.054-6.215,1.979-8.864
					c2.594-3.379,6.562-5.131,10.558-4.976l-4.08-60.619l-99.802,6.718l7.051,104.761l52.025-3.5l22.072-1.486
					C92.258,113.729,92.293,113.618,92.342,113.509z"/>
				<path clip-path="url(#SVGID_2_)" fill="#191D1E" d="M92.342,113.509c1.31-2.954,3.028-5.802,4.858-8.63
					c-1.425-3.569-1.256-7.665,1.693-12.64c2.062-3.479,3.906-6.234,3.519-10.434c-0.3-3.238-0.054-6.215,1.979-8.864
					c2.594-3.379,6.562-5.131,10.558-4.976l-4.08-60.619l-99.802,6.718l7.051,104.761l52.025-3.5l22.072-1.486
					C92.258,113.729,92.293,113.618,92.342,113.509z"/>
				<path clip-path="url(#SVGID_2_)" fill="#191E1F" d="M92.342,113.509c1.31-2.954,3.028-5.802,4.858-8.63
					c-1.425-3.569-1.256-7.665,1.693-12.64c2.062-3.479,3.906-6.234,3.519-10.434c-0.3-3.238-0.054-6.215,1.979-8.864
					c2.594-3.379,6.562-5.131,10.558-4.976l-4.08-60.619l-99.802,6.718l7.051,104.761l52.025-3.5l22.072-1.486
					C92.258,113.729,92.293,113.618,92.342,113.509z"/>
				<path clip-path="url(#SVGID_2_)" fill="#1A1F20" d="M92.215,113.841c0.042-0.11,0.078-0.222,0.127-0.332
					c1.31-2.954,3.028-5.802,4.858-8.63c-1.425-3.569-1.256-7.665,1.693-12.64c2.062-3.479,3.906-6.234,3.519-10.434
					c-0.3-3.238-0.054-6.215,1.979-8.864c2.594-3.379,6.562-5.131,10.558-4.976l-4.08-60.619l-99.802,6.718l6.876,102.152
					l-2.391,0.16c5.832,1.139,11.766,2.035,17.795,2.674l-0.083-1.242l36.88-2.482L92.215,113.841z"/>
				<path clip-path="url(#SVGID_2_)" fill="#1B2021" d="M97.2,104.879c-1.425-3.569-1.256-7.665,1.693-12.64
					c2.062-3.479,3.906-6.234,3.519-10.434c-0.3-3.238-0.054-6.215,1.979-8.864c2.594-3.379,6.562-5.131,10.558-4.976l-4.08-60.619
					l-99.802,6.718l6.625,98.417l-1.032,0.068c5.688,1.105,11.475,1.98,17.35,2.607c11.755,1.252,23.849,1.508,36.168,0.68
					c7.597-0.512,15.053-1.423,22.345-2.705C93.809,110.313,95.448,107.586,97.2,104.879z"/>
				<path clip-path="url(#SVGID_2_)" fill="#1C2122" d="M97.2,104.879c-1.425-3.569-1.256-7.665,1.693-12.64
					c2.062-3.479,3.906-6.234,3.519-10.434c-0.3-3.238-0.054-6.215,1.979-8.864c2.594-3.379,6.562-5.131,10.558-4.976l-4.08-60.619
					l-99.802,6.718l6.297,93.554l-3.735,0.252c1.374,0.297,2.755,0.58,4.138,0.852c5.541,1.08,11.185,1.93,16.91,2.539
					c11.451,1.221,23.239,1.473,35.239,0.666c8.502-0.573,16.822-1.67,24.931-3.233C95.593,107.414,96.382,106.144,97.2,104.879z"/>
				<path clip-path="url(#SVGID_2_)" fill="#1D2223" d="M98.894,92.239c2.062-3.479,3.906-6.234,3.519-10.434
					c-0.3-3.238-0.054-6.215,1.979-8.864c2.594-3.379,6.562-5.131,10.558-4.976l-4.08-60.619l-99.802,6.718l5.968,88.666
					l-6.178,0.416c2.65,0.641,5.323,1.225,8.021,1.748c5.394,1.053,10.887,1.881,16.462,2.473
					c11.15,1.188,22.628,1.434,34.313,0.646c9.349-0.63,18.47-1.905,27.32-3.755C95.806,100.836,96.113,96.929,98.894,92.239z"/>
				<path clip-path="url(#SVGID_2_)" fill="#1E2324" d="M98.894,92.239c2.062-3.479,3.906-6.234,3.519-10.434
					c-0.3-3.238-0.054-6.215,1.979-8.864c2.594-3.379,6.562-5.131,10.558-4.976l-4.08-60.619l-99.802,6.718l5.721,84.994
					l-4.604,0.311c2.574,0.619,5.174,1.188,7.801,1.699c5.249,1.023,10.592,1.832,16.016,2.406
					c10.85,1.156,22.018,1.393,33.387,0.627c9.222-0.621,18.221-1.887,26.947-3.727C96.349,97.932,97.11,95.247,98.894,92.239z"/>
				<path clip-path="url(#SVGID_2_)" fill="#1F2425" d="M98.894,92.239c2.062-3.479,3.906-6.234,3.519-10.434
					c-0.3-3.238-0.054-6.215,1.979-8.864c2.594-3.379,6.562-5.131,10.558-4.976l-4.08-60.619l-99.802,6.718l5.474,81.32
					l-3.029,0.205c2.501,0.602,5.031,1.152,7.586,1.652c5.102,0.998,10.297,1.777,15.568,2.338
					c10.549,1.125,21.406,1.352,32.46,0.609c9.576-0.646,18.908-1.998,27.931-3.987C97.472,94.943,98.071,93.627,98.894,92.239z"/>
				<path clip-path="url(#SVGID_2_)" fill="#202526" d="M102.412,81.806c-0.3-3.238-0.054-6.215,1.979-8.864
					c2.594-3.379,6.562-5.131,10.558-4.976l-4.08-60.619l-99.802,6.718l5.227,77.644l-1.459,0.1c2.434,0.586,4.89,1.117,7.37,1.602
					c4.958,0.971,10.003,1.73,15.128,2.277c10.245,1.088,20.792,1.314,31.53,0.592c10.457-0.704,20.614-2.283,30.381-4.627
					C101.157,88.444,102.777,85.763,102.412,81.806z"/>
				<path clip-path="url(#SVGID_2_)" fill="#212627" d="M101.686,86.968c0.589-1.555,0.908-3.198,0.727-5.162
					c-0.3-3.238-0.054-6.215,1.979-8.864c2.594-3.379,6.562-5.131,10.558-4.976l-4.08-60.619l-99.802,6.718l4.904,72.849
					l-3.334,0.227c1.17,0.309,2.346,0.6,3.525,0.889c2.362,0.566,4.746,1.086,7.15,1.557c4.814,0.939,9.713,1.678,14.683,2.205
					c9.944,1.062,20.182,1.275,30.604,0.576c10.421-0.703,20.538-2.289,30.25-4.672C99.799,87.463,100.743,87.216,101.686,86.968z"
					/>
				<path clip-path="url(#SVGID_2_)" fill="#222728" d="M102.438,82.672c-0.006-0.286,0.002-0.565-0.025-0.866
					c-0.3-3.238-0.054-6.215,1.979-8.864c2.594-3.379,6.563-5.131,10.559-4.976l-4.081-60.619l-99.802,6.718l4.581,68.056
					l-4.96,0.334c17.944,5.154,37.435,7.361,57.647,6.002c10.107-0.68,19.916-2.221,29.332-4.531
					C99.271,83.533,100.858,83.109,102.438,82.672z"/>
				<path clip-path="url(#SVGID_2_)" fill="#232829" d="M102.354,78.593c0.143-2.013,0.697-3.904,2.038-5.651
					c2.594-3.379,6.562-5.131,10.558-4.976l-4.08-60.619l-99.802,6.718l4.338,64.447l-3.178,0.215
					c17.38,4.996,36.263,7.137,55.844,5.818c9.791-0.66,19.295-2.152,28.417-4.389C98.463,79.671,100.416,79.146,102.354,78.593z"/>
				<path clip-path="url(#SVGID_2_)" fill="#24292A" d="M118.614,68.664c0.666-0.282,1.334-0.562,1.994-0.852l-4.24,0.286
					C117.125,68.215,117.876,68.404,118.614,68.664z"/>
				<path clip-path="url(#SVGID_2_)" fill="#24292A" d="M104.392,72.941c2.594-3.379,6.563-5.131,10.559-4.976l-4.081-60.619
					l-99.802,6.718l4.096,60.847l-1.399,0.094c16.822,4.834,35.095,6.9,54.045,5.625c12.499-0.843,24.506-3.092,35.832-6.543
					C103.86,73.7,104.104,73.316,104.392,72.941z"/>
				<path clip-path="url(#SVGID_2_)" fill="#252A2B" d="M67.545,76.719c18.319-1.234,35.557-5.58,51.043-12.39l-3.865,0.259
					l-3.854-57.241l-99.802,6.718l3.7,54.968l-5.495,0.371c1.987,0.664,3.996,1.293,6.03,1.877
					C31.562,75.953,49.226,77.951,67.545,76.719z"/>
				<path clip-path="url(#SVGID_2_)" fill="#262B2D" d="M67.281,72.809c17.688-1.191,34.332-5.391,49.285-11.966l-2.086,0.142
					l-3.611-53.638l-99.802,6.718L14.53,65.51l-3.512,0.238c1.919,0.641,3.862,1.246,5.824,1.807
					C32.538,72.066,49.594,74,67.281,72.809z"/>
				<path clip-path="url(#SVGID_2_)" fill="#272C2E" d="M67.02,68.896c17.056-1.148,33.105-5.197,47.522-11.535l-0.305,0.021
					l-3.368-50.036l-99.802,6.718l3.225,47.919l-1.529,0.103c1.851,0.619,3.725,1.202,5.615,1.748
					C33.515,68.184,49.961,70.043,67.02,68.896z"/>
				<path clip-path="url(#SVGID_2_)" fill="#282D2F" d="M66.756,64.986c16.425-1.106,31.88-5.008,45.761-11.11
					c1.738-0.763,3.445-1.56,5.132-2.393l-3.791,0.255l-2.988-44.392l-99.802,6.718l2.837,42.146l-4.674,0.315
					c3.477,1.34,7.044,2.537,10.688,3.583C34.496,64.296,50.333,66.092,66.756,64.986z"/>
				<path clip-path="url(#SVGID_2_)" fill="#292E30" d="M66.492,61.073c15.791-1.062,30.651-4.812,44-10.682
					c1.67-0.735,3.315-1.499,4.937-2.297l-1.809,0.122l-2.751-40.869l-99.802,6.718l2.605,38.705l-2.491,0.168
					c3.343,1.29,6.77,2.438,10.276,3.446C35.473,60.413,50.701,62.136,66.492,61.073z"/>
				<path clip-path="url(#SVGID_2_)" fill="#2A2F31" d="M66.229,57.161c15.16-1.021,29.426-4.62,42.242-10.254
					c3.205-1.411,6.317-2.943,9.333-4.598l-4.56,0.307l-2.375-35.268l-99.802,6.718l2.374,35.268l-0.312,0.021
					c3.209,1.237,6.499,2.339,9.864,3.307C36.449,56.526,51.069,58.181,66.229,57.161z"/>
				<path clip-path="url(#SVGID_2_)" fill="#2B3032" d="M65.966,53.248c14.528-0.978,28.199-4.427,40.483-9.827
					c3.068-1.35,6.055-2.819,8.939-4.407l-2.377,0.16l-2.143-31.827l-99.802,6.718l1.997,29.659l-2.536,0.171
					c1.495,0.655,3.014,1.277,4.549,1.871c3.075,1.187,6.231,2.243,9.456,3.169C37.425,52.64,51.437,54.226,65.966,53.248z"/>
				<path clip-path="url(#SVGID_2_)" fill="#2C3133" d="M65.702,49.338c13.896-0.936,26.971-4.235,38.723-9.399
					c2.935-1.293,5.789-2.699,8.556-4.216l-0.2,0.013l-1.911-28.389l-99.802,6.718l1.621,24.078L8.44,38.429
					c5.562,2.73,11.463,5.011,17.628,6.785C38.406,48.756,51.805,50.274,65.702,49.338z"/>
				<path clip-path="url(#SVGID_2_)" fill="#2D3234" d="M65.438,45.425c13.267-0.893,25.746-4.043,36.961-8.971
					c5.608-2.464,10.899-5.377,15.813-8.671l-5.941,0.4l-1.402-20.836l-99.802,6.718L12.469,34.9l-1.693,0.114
					c5.312,2.605,10.944,4.783,16.832,6.473C39.383,44.869,52.172,46.318,65.438,45.425z"/>
				<path clip-path="url(#SVGID_2_)" fill="#2E3335" d="M65.176,41.512c12.631-0.85,24.521-3.847,35.2-8.543
					c5.339-2.349,10.382-5.119,15.057-8.261l-3.379,0.228l-1.185-17.589l-99.802,6.718l0.881,13.087L5.77,27.568
					c2.369,1.442,4.82,2.784,7.346,4.027c5.058,2.487,10.422,4.557,16.032,6.168C40.359,40.986,52.541,42.363,65.176,41.512z"/>
				<path clip-path="url(#SVGID_2_)" fill="#2F3436" d="M64.912,37.603c12.001-0.808,23.296-3.658,33.443-8.119
					c5.075-2.229,9.857-4.865,14.304-7.846l-0.823,0.055l-0.967-14.347l-99.802,6.718l0.678,10.067l-3.267,0.22
					c2.248,1.372,4.579,2.647,6.978,3.829c4.807,2.359,9.899,4.33,15.228,5.858C41.336,37.1,52.912,38.411,64.912,37.603z"/>
				<path clip-path="url(#SVGID_2_)" fill="#303537" d="M64.648,33.69c11.369-0.765,22.07-3.467,31.682-7.692
					c4.806-2.112,9.342-4.606,13.553-7.431c2.106-1.414,4.127-2.909,6.065-4.48l-4.604,0.31l-0.476-7.051l-99.802,6.718l0.168,2.506
					l-6.204,0.418C20.789,28.726,41.908,35.221,64.648,33.69z"/>
				<path clip-path="url(#SVGID_2_)" fill="#313638" d="M64.387,29.777c10.736-0.723,20.844-3.271,29.922-7.26
					c4.535-1.997,8.819-4.352,12.798-7.024c1.986-1.332,3.899-2.745,5.728-4.23l-1.693,0.114l-0.271-4.03l-99.802,6.718
					l-2.988-0.062C22.965,25.087,42.91,31.223,64.387,29.777z"/>
				<path clip-path="url(#SVGID_2_)" fill="#323739" d="M64.123,25.868c20.212-1.36,38.041-9.6,50.522-21.817l-3.776,3.296
					l-99.535,6.7l-0.204-3.028C25.137,21.453,43.91,27.229,64.123,25.868z"/>
				<path clip-path="url(#SVGID_2_)" fill="#33383A" d="M63.859,21.955c18.95-1.275,35.661-8.998,47.366-20.45l-0.356,5.841
					L14.568,13.83l-0.39-5.792C27.312,17.818,44.908,23.23,63.859,21.955z"/>
				<path clip-path="url(#SVGID_2_)" fill="#33393B" d="M63.596,18.042c8.844-0.595,17.165-2.694,24.642-5.98
					c3.735-1.642,7.264-3.582,10.539-5.78l0.127,1.871l-71.622,4.822l-0.126-1.871c3.541,1.739,7.294,3.189,11.219,4.315
					C46.224,17.672,54.751,18.637,63.596,18.042z"/>
				<path clip-path="url(#SVGID_2_)" fill="#343A3C" d="M63.333,14.133c8.213-0.552,15.939-2.501,22.881-5.557l0.029,0.429
					l-46.301,3.116l-0.029-0.428C47.201,13.79,55.12,14.686,63.333,14.133z"/>
				<path clip-path="url(#SVGID_2_)" fill="#353B3D" d="M63.092,10.562l47.777-3.216L63.092,10.562z"/>
				<path clip-path="url(#SVGID_2_)" fill="#363C3E" d="M63.092,10.562l47.777-3.216L63.092,10.562z"/>
				<path clip-path="url(#SVGID_2_)" fill="#373D3F" d="M63.092,10.562l45.75-3.079L63.092,10.562z"/>
				<path clip-path="url(#SVGID_2_)" fill="#383E40" d="M63.092,10.562l41.176-2.771L63.092,10.562z"/>
				<path clip-path="url(#SVGID_2_)" fill="#393F41" d="M63.092,10.562l36.601-2.463L63.092,10.562z"/>
				<path clip-path="url(#SVGID_2_)" fill="#3A4042" d="M63.092,10.562l32.023-2.155L63.092,10.562z"/>
				<path clip-path="url(#SVGID_2_)" fill="#3B4143" d="M63.092,10.562l27.449-1.847L63.092,10.562z"/>
				<path clip-path="url(#SVGID_2_)" fill="#3C4244" d="M63.092,10.562l22.875-1.54L63.092,10.562z"/>
				<path clip-path="url(#SVGID_2_)" fill="#3D4345" d="M63.092,10.562l18.301-1.231L63.092,10.562z"/>
				<path clip-path="url(#SVGID_2_)" fill="#3E4446" d="M63.092,10.562L76.814,9.64L63.092,10.562z"/>
				<path clip-path="url(#SVGID_2_)" fill="#3F4547" d="M63.092,10.562l9.148-0.616L63.092,10.562z"/>
				<path clip-path="url(#SVGID_2_)" fill="#404648" d="M63.092,10.562l4.575-0.308L63.092,10.562z"/>
			</g>
		</g>
		<g id="rect6741-7_1_" opacity="0.3" enable-background="new    ">
			
				<linearGradient id="SVGID_3_" gradientUnits="userSpaceOnUse" x1="67.1455" y1="114.1455" x2="67.1455" y2="12.1436" gradientTransform="matrix(0.9505 -0.064 0.0672 0.9977 -3.5685 4.384)">
				<stop  offset="0" style="stop-color:#FFFFFF"/>
				<stop  offset="0.0632" style="stop-color:#FFFFFF;stop-opacity:0.2353"/>
				<stop  offset="0.9506" style="stop-color:#FFFFFF;stop-opacity:0.1569"/>
				<stop  offset="1" style="stop-color:#FFFFFF;stop-opacity:0.3922"/>
			</linearGradient>
			<path fill="url(#SVGID_3_)" d="M93.427,111.256l-68.822,4.633c-2.359,0.158-4.413-1.729-4.58-4.203l-6.111-90.794
				c-0.167-2.476,1.616-4.619,3.975-4.778l86.496-5.822c2.357-0.159,4.412,1.726,4.579,4.202l3.608,53.609
				c0.314-0.048,0.63-0.082,0.947-0.106l-3.605-53.567c-0.204-3.026-2.715-5.33-5.597-5.136l-86.496,5.822
				c-2.882,0.194-5.062,2.813-4.858,5.839l6.111,90.795c0.204,3.025,2.714,5.33,5.597,5.135l68.255-4.594
				C93.094,111.945,93.25,111.599,93.427,111.256z"/>
		</g>
		<g id="rect5505-21-3-1_1_" opacity="0.7" enable-background="new    ">
			<path d="M92.927,112.29l-68.203,4.591c-2.912,0.197-5.448-2.129-5.653-5.186l-6.104-90.687c-0.206-3.056,1.996-5.702,4.907-5.896
				l86.392-5.815c2.91-0.196,5.446,2.13,5.652,5.186l3.602,53.513c0.316-0.023,0.634-0.036,0.952-0.035l-3.604-53.542
				c-0.242-3.606-3.233-6.352-6.669-6.121l-86.392,5.815c-3.436,0.231-6.033,3.353-5.791,6.958l6.104,90.685
				c0.243,3.607,3.235,6.354,6.671,6.121l67.638-4.552C92.586,112.979,92.76,112.636,92.927,112.29z"/>
		</g>
	</g>
	<g id="path3485_1_" opacity="0.15" enable-background="new    ">
		<path d="M35.706,31.992c-0.56,0.02-0.999,0.489-0.98,1.049l0.119,3.486c-1.163,0.366-2.226,0.862-3.082,1.596
			c0,0-0.001,0.001-0.002,0.002c-1.645,1.42-2.462,3.442-2.384,5.747c0.042,1.234,0.336,2.365,0.909,3.333
			c0.542,0.917,1.259,1.717,2.125,2.382c0.89,0.683,2.103,1.311,3.672,1.95c1.608,0.662,2.686,1.165,3.09,1.405
			c0.003,0.002,0.007,0.003,0.01,0.005c0.461,0.268,0.769,0.532,0.942,0.75c0.003,0.004,0.007,0.008,0.01,0.012
			c0.144,0.176,0.205,0.331,0.213,0.591c0.02,0.564-0.091,0.771-0.442,1.025c-0.002,0.001-0.005,0.003-0.007,0.004
			c-0.35,0.258-1.009,0.48-2.027,0.515c-0.848,0.029-1.823-0.069-2.92-0.303l-0.002,0c-1.073-0.232-2.447-0.662-4.094-1.295
			c-0.524-0.201-1.112,0.062-1.312,0.585c-0.049,0.126-0.071,0.262-0.067,0.398l0.157,4.597c0.014,0.396,0.254,0.747,0.619,0.901
			c1.655,0.702,3.502,1.031,5.454,1.145l0.107,3.15c0.02,0.561,0.489,1,1.049,0.98l3.998-0.136c0.56-0.02,0.999-0.489,0.98-1.05
			l-0.121-3.533c1.185-0.372,2.268-0.865,3.145-1.583c1.778-1.446,2.685-3.522,2.604-5.885c-0.058-1.71-0.611-3.24-1.656-4.437
			c-1.072-1.236-2.798-2.259-5.2-3.254c-1.741-0.719-2.871-1.241-3.219-1.444c-0.384-0.241-0.622-0.466-0.736-0.624
			c-0.105-0.152-0.166-0.319-0.174-0.588c-0.016-0.449,0.078-0.663,0.39-0.939c0.279-0.249,0.769-0.448,1.602-0.477
			c0.744-0.025,1.508,0.041,2.293,0.2c0,0,0.001,0,0.002,0c0.795,0.158,1.854,0.464,3.152,0.92c0.515,0.181,1.081-0.078,1.281-0.585
			l1.548-3.903c0.207-0.522-0.049-1.112-0.571-1.318c-0.006-0.003-0.013-0.006-0.019-0.008c-1.323-0.494-2.598-0.871-3.826-1.13
			l-0.002,0c-0.481-0.103-0.98-0.136-1.474-0.19l-0.109-3.203c-0.02-0.561-0.489-0.999-1.05-0.98L35.706,31.992z M54.888,66.358
			c-0.561,0.02-0.999,0.489-0.98,1.05l0.136,3.997c0.02,0.561,0.489,1,1.049,0.98l20.988-0.715c0.56-0.019,0.999-0.489,0.98-1.05
			l-0.137-3.997c-0.019-0.561-0.489-1-1.05-0.98L54.888,66.358z"/>
	</g>
	<g id="rect4237-3_1_" opacity="0.3" enable-background="new    ">
		<path d="M35.741,33.007l0.144,4.232c-1.389,0.32-2.544,0.87-3.461,1.656c-1.425,1.231-2.103,2.879-2.032,4.943
			c0.037,1.096,0.294,2.046,0.77,2.85c0.475,0.804,1.099,1.5,1.869,2.092s1.917,1.198,3.439,1.818
			c1.624,0.668,2.698,1.159,3.224,1.471c0.537,0.312,0.947,0.643,1.228,0.996c0.28,0.342,0.428,0.743,0.443,1.201
			c0.028,0.819-0.259,1.446-0.86,1.882c-0.59,0.436-1.455,0.673-2.596,0.712c-0.951,0.032-2.007-0.076-3.169-0.324
			c-1.151-0.249-2.566-0.695-4.246-1.34l0.157,4.597c1.791,0.76,3.814,1.13,6.043,1.156l0.138,4.041l3.998-0.137l-0.146-4.28
			c1.42-0.338,2.604-0.888,3.545-1.659c1.558-1.268,2.301-2.955,2.229-5.062c-0.052-1.521-0.52-2.788-1.405-3.802
			c-0.886-1.024-2.495-2.019-4.823-2.984c-1.761-0.728-2.88-1.233-3.36-1.515c-0.469-0.293-0.815-0.595-1.039-0.907
			c-0.224-0.323-0.343-0.703-0.357-1.139c-0.024-0.702,0.22-1.279,0.73-1.733s1.257-0.7,2.242-0.733
			c0.828-0.028,1.671,0.045,2.529,0.219c0.868,0.172,1.964,0.491,3.29,0.957l1.548-3.902c-1.282-0.479-2.511-0.84-3.684-1.088
			c-0.727-0.155-1.478-0.248-2.25-0.289l-0.139-4.064L35.741,33.007z M54.922,67.373l0.136,3.998l20.988-0.715l-0.136-3.998
			L54.922,67.373z"/>
	</g>
	<polygon fill="#1470A3" points="102.971,12.839 106.251,14.229 106.251,18.292 102.971,18.292 	"/>
	<g id="rect4237_1_">
		<path fill="#FFFFFF" d="M35.707,32.007l0.145,4.232c-1.389,0.32-2.545,0.87-3.461,1.656c-1.425,1.231-2.103,2.879-2.032,4.943
			c0.038,1.096,0.294,2.046,0.77,2.85c0.476,0.804,1.099,1.501,1.869,2.092c0.771,0.592,1.917,1.198,3.439,1.818
			c1.624,0.668,2.698,1.159,3.224,1.471c0.537,0.312,0.947,0.644,1.228,0.996c0.28,0.342,0.428,0.743,0.443,1.201
			c0.028,0.819-0.259,1.446-0.86,1.882c-0.59,0.436-1.456,0.673-2.597,0.712c-0.951,0.032-2.007-0.076-3.169-0.324
			c-1.151-0.249-2.566-0.695-4.246-1.341l0.157,4.597c1.791,0.76,3.814,1.13,6.043,1.156l0.138,4.04l3.998-0.136l-0.146-4.281
			c1.42-0.338,2.604-0.888,3.545-1.659c1.558-1.267,2.301-2.955,2.229-5.062c-0.052-1.521-0.52-2.788-1.406-3.802
			c-0.886-1.024-2.495-2.02-4.823-2.984c-1.761-0.728-2.88-1.233-3.36-1.515c-0.469-0.292-0.815-0.595-1.039-0.907
			c-0.224-0.322-0.343-0.702-0.357-1.139c-0.024-0.702,0.22-1.279,0.73-1.733s1.258-0.7,2.242-0.733
			c0.828-0.028,1.671,0.045,2.528,0.219c0.868,0.172,1.964,0.491,3.29,0.957l1.548-3.903c-1.282-0.478-2.51-0.84-3.684-1.088
			c-0.727-0.155-1.478-0.248-2.25-0.289l-0.139-4.064L35.707,32.007z M54.888,66.374l0.136,3.998l20.987-0.716l-0.136-3.997
			L54.888,66.374z"/>
	</g>
	
		<radialGradient id="path3041_1_" cx="-34.3623" cy="-1731.4043" r="35.3379" gradientTransform="matrix(1.5564 0 0 -0.1698 117.4813 -175.9698)" gradientUnits="userSpaceOnUse">
		<stop  offset="0" style="stop-color:#000000"/>
		<stop  offset="1" style="stop-color:#000000;stop-opacity:0"/>
	</radialGradient>
	<path id="path3041" opacity="0.2" fill="url(#path3041_1_)" enable-background="new    " d="M119,118.002c0,3.313-24.625,6-55,6
		c-30.375,0-55-2.687-55-6c0-3.314,24.625-6,55-6C94.375,112.002,119,114.688,119,118.002L119,118.002z"/>
	<g id="g2036" transform="matrix(2.6999989,0,0,0.55555607,-0.80000812,94.890691)">
		<g id="g3712" transform="matrix(1.052632,0,0,1.285713,-1.263158,-13.42854)" opacity="0.4">
			
				<radialGradient id="rect2801_1_" cx="-47.1098" cy="-207.1025" r="2.4993" gradientTransform="matrix(5.695 0 0 -1 306.2812 -163.6023)" gradientUnits="userSpaceOnUse">
				<stop  offset="0" style="stop-color:#181818"/>
				<stop  offset="1" style="stop-color:#181818;stop-opacity:0"/>
			</radialGradient>
			<rect id="rect2801" x="38" y="40" fill="url(#rect2801_1_)" width="5" height="7"/>
			
				<radialGradient id="rect3696_1_" cx="-76.9509" cy="721.0976" r="2.4995" gradientTransform="matrix(-5.695 0 0 1 -428.2256 -677.5974)" gradientUnits="userSpaceOnUse">
				<stop  offset="0" style="stop-color:#181818"/>
				<stop  offset="1" style="stop-color:#181818;stop-opacity:0"/>
			</radialGradient>
			<rect id="rect3696" x="5" y="40" fill="url(#rect3696_1_)" width="5" height="7"/>
			
				<linearGradient id="rect3700_1_" gradientUnits="userSpaceOnUse" x1="-25.445" y1="-397.6796" x2="-25.445" y2="-390.6513" gradientTransform="matrix(2.8421 0 0 -0.7143 96.3171 -237.03)">
				<stop  offset="0" style="stop-color:#181818;stop-opacity:0"/>
				<stop  offset="0.5" style="stop-color:#181818"/>
				<stop  offset="1" style="stop-color:#181818;stop-opacity:0"/>
			</linearGradient>
			<rect id="rect3700" x="10" y="40" fill="url(#rect3700_1_)" width="28" height="7"/>
		</g>
	</g>
	<g>
		<g id="rect5505-21-3" enable-background="new    ">
			<g>
				<defs>
					<path id="SVGID_4_" d="M18.555,15.502h90.891c3.344,0,6.055,2.71,6.055,6.054v90.891c0,3.344-2.711,6.055-6.055,6.055H18.555
						c-3.344,0-6.055-2.711-6.055-6.055V21.556C12.5,18.212,15.211,15.502,18.555,15.502z"/>
				</defs>
				<clipPath id="SVGID_5_">
					<use xlink:href="#SVGID_4_"  overflow="visible"/>
				</clipPath>
				<rect x="12.5" y="15.5" clip-path="url(#SVGID_5_)" fill="#0C1011" width="103" height="103"/>
				<polygon clip-path="url(#SVGID_5_)" fill="#0C1011" points="66.234,119.5 116.5,119.5 116.5,14.5 11.5,14.5 11.5,119.5 				"/>
				<polygon clip-path="url(#SVGID_5_)" fill="#0D1112" points="66.234,119.5 116.5,119.5 116.5,14.5 11.5,14.5 11.5,119.5 				"/>
				<polygon clip-path="url(#SVGID_5_)" fill="#0E1213" points="66.234,119.5 116.5,119.5 116.5,14.5 11.5,14.5 11.5,119.5 				"/>
				<polygon clip-path="url(#SVGID_5_)" fill="#0F1314" points="66.234,119.5 116.5,119.5 116.5,14.5 11.5,14.5 11.5,119.5 				"/>
				<polygon clip-path="url(#SVGID_5_)" fill="#101415" points="66.234,119.5 116.5,119.5 116.5,14.5 11.5,14.5 11.5,119.5 				"/>
				<polygon clip-path="url(#SVGID_5_)" fill="#111516" points="66.234,119.5 116.5,119.5 116.5,14.5 11.5,14.5 11.5,119.5 				"/>
				<polygon clip-path="url(#SVGID_5_)" fill="#121617" points="66.234,119.5 116.5,119.5 116.5,14.5 11.5,14.5 11.5,119.5 				"/>
				<polygon clip-path="url(#SVGID_5_)" fill="#131718" points="66.234,119.5 116.5,119.5 116.5,14.5 11.5,14.5 11.5,119.5 				"/>
				<polygon clip-path="url(#SVGID_5_)" fill="#141819" points="66.234,119.5 116.5,119.5 116.5,14.5 11.5,14.5 11.5,119.5 				"/>
				<polygon clip-path="url(#SVGID_5_)" fill="#15191A" points="66.234,119.5 116.5,119.5 116.5,14.5 11.5,14.5 11.5,119.5 				"/>
				<polygon clip-path="url(#SVGID_5_)" fill="#161A1B" points="66.234,119.5 116.5,119.5 116.5,14.5 11.5,14.5 11.5,119.5 				"/>
				<polygon clip-path="url(#SVGID_5_)" fill="#171B1C" points="66.234,119.5 116.5,119.5 116.5,14.5 11.5,14.5 11.5,119.5 				"/>
				<polygon clip-path="url(#SVGID_5_)" fill="#181C1D" points="66.234,119.5 116.5,119.5 116.5,14.5 11.5,14.5 11.5,119.5 				"/>
				<polygon clip-path="url(#SVGID_5_)" fill="#191D1E" points="66.234,119.5 106.977,119.5 116.5,119.5 116.5,14.5 11.5,14.5 
					11.5,119.5 				"/>
				<polygon clip-path="url(#SVGID_5_)" fill="#191E1F" points="66.234,119.5 106.008,119.5 116.5,119.5 116.5,14.5 11.5,14.5 
					11.5,119.5 				"/>
				<path clip-path="url(#SVGID_5_)" fill="#1A1F20" d="M66.234,119.5h38.805v1.246c6.266-1.043,12.422-2.336,18.449-3.863H116.5
					V14.5h-105v102.383H8.984c6.027,1.527,12.18,2.82,18.449,3.863V119.5H66.234z"/>
				<path clip-path="url(#SVGID_5_)" fill="#1B2021" d="M66.234,120.012c12.961,0,25.609-1.066,37.832-3.105
					c6.109-1.02,12.113-2.281,17.988-3.766H116.5V14.5h-105v98.641h-1.086c5.879,1.484,11.879,2.746,17.988,3.766
					C40.625,118.945,53.273,120.012,66.234,120.012z"/>
				<path clip-path="url(#SVGID_5_)" fill="#1C2122" d="M66.234,116.094c12.625,0,24.953-1.043,36.859-3.031
					c5.953-0.992,11.805-2.219,17.531-3.668H116.5V14.5h-105v93.766H7.57c1.418,0.391,2.844,0.766,4.273,1.129
					c5.727,1.449,11.578,2.676,17.531,3.668C41.281,115.051,53.609,116.094,66.234,116.094z"/>
				<path clip-path="url(#SVGID_5_)" fill="#1D2223" d="M66.234,112.172c12.297,0,24.297-1.016,35.891-2.949
					c5.797-0.965,11.492-2.16,17.07-3.574H116.5V14.5h-105v88.867H5c2.73,0.816,5.488,1.578,8.277,2.281
					c5.574,1.414,11.27,2.609,17.066,3.574C41.938,111.156,53.941,112.172,66.234,112.172z"/>
				<path clip-path="url(#SVGID_5_)" fill="#1E2324" d="M66.234,108.25c11.961,0,23.641-0.984,34.922-2.867
					c5.641-0.938,11.18-2.102,16.605-3.477H116.5V14.5h-105v85.188H6.656c2.652,0.789,5.336,1.531,8.051,2.219
					c5.426,1.375,10.965,2.539,16.605,3.477C42.594,107.266,54.273,108.25,66.234,108.25z"/>
				<path clip-path="url(#SVGID_5_)" fill="#1F2425" d="M66.234,104.328c11.629,0,22.984-0.957,33.953-2.785
					c5.48-0.914,10.867-2.043,16.141-3.379c1.32-0.336,2.633-0.684,3.938-1.043H116.5V14.5h-105v81.504H8.313
					c2.578,0.77,5.188,1.488,7.828,2.16c5.273,1.336,10.66,2.465,16.141,3.379C43.25,103.371,54.605,104.328,66.234,104.328z"/>
				<path clip-path="url(#SVGID_5_)" fill="#202526" d="M66.234,100.41c11.297,0,22.328-0.934,32.98-2.707
					c5.328-0.891,10.559-1.988,15.684-3.289c2.562-0.648,5.098-1.344,7.602-2.094h-6V14.5h-105v77.82H9.965
					c2.508,0.75,5.043,1.445,7.605,2.094c5.125,1.301,10.355,2.398,15.684,3.289C43.906,99.477,54.938,100.41,66.234,100.41z"/>
				<path clip-path="url(#SVGID_5_)" fill="#212627" d="M66.234,96.488c10.965,0,21.672-0.902,32.012-2.629
					c5.168-0.859,10.246-1.926,15.223-3.188c2.484-0.629,4.945-1.309,7.379-2.031H116.5V14.5h-105v73.016H7.992
					c1.203,0.387,2.414,0.758,3.629,1.125c2.434,0.723,4.895,1.402,7.379,2.031c4.977,1.262,10.055,2.328,15.223,3.188
					C44.563,95.586,55.27,96.488,66.234,96.488z"/>
				<path clip-path="url(#SVGID_5_)" fill="#222728" d="M66.234,92.57c10.633,0,21.016-0.879,31.039-2.551
					c5.016-0.836,9.938-1.871,14.762-3.09c2.41-0.613,4.801-1.273,7.16-1.977H116.5V14.5h-105v68.211H6.281
					C24.711,89.059,44.969,92.57,66.234,92.57z"/>
				<path clip-path="url(#SVGID_5_)" fill="#232829" d="M66.234,88.648c10.301,0,20.359-0.852,30.07-2.469
					c4.859-0.812,9.629-1.812,14.301-2.996c2.336-0.59,4.648-1.23,6.934-1.91H116.5V14.5h-105v64.594H8.156
					C26.008,85.246,45.633,88.648,66.234,88.648z"/>
				<path clip-path="url(#SVGID_5_)" fill="#24292A" d="M66.234,84.727c19.938,0,38.93-3.289,56.203-9.242H116.5V14.5h-105v60.984
					h-1.473C27.305,81.438,46.297,84.727,66.234,84.727z"/>
				<path clip-path="url(#SVGID_5_)" fill="#252A2B" d="M66.234,80.805c19.273,0,37.633-3.18,54.332-8.934H116.5V14.5h-105v55.094
					H5.719c2.035,0.797,4.094,1.559,6.184,2.277C28.602,77.625,46.961,80.805,66.234,80.805z"/>
				<path clip-path="url(#SVGID_5_)" fill="#262B2D" d="M66.234,76.887c18.609,0,36.336-3.074,52.461-8.629H116.5V14.5h-105v51.562
					H7.805c1.965,0.77,3.957,1.504,5.973,2.195C29.898,73.812,47.625,76.887,66.234,76.887z"/>
				<path clip-path="url(#SVGID_5_)" fill="#272C2E" d="M66.234,72.965c17.945,0,35.039-2.961,50.586-8.316h-0.32V14.5h-105v48.027
					H9.891c1.895,0.742,3.816,1.449,5.758,2.121C31.195,70.004,48.289,72.965,66.234,72.965z"/>
				<path clip-path="url(#SVGID_5_)" fill="#282D2F" d="M66.234,69.047c17.281,0,33.742-2.855,48.711-8.012
					c1.875-0.645,3.719-1.324,5.543-2.043H116.5V14.5h-105v42.242H6.582c3.547,1.57,7.199,3.004,10.941,4.293
					C32.496,66.191,48.957,69.047,66.234,69.047z"/>
				<path clip-path="url(#SVGID_5_)" fill="#292E30" d="M66.234,65.125c16.613,0,32.441-2.742,46.836-7.703
					c1.801-0.621,3.578-1.273,5.332-1.961H116.5V14.5h-105v38.793H8.879c3.41,1.512,6.918,2.887,10.52,4.129
					C33.793,62.383,49.621,65.125,66.234,65.125z"/>
				<path clip-path="url(#SVGID_5_)" fill="#2A2F31" d="M66.234,61.203c15.949,0,31.145-2.633,44.965-7.395
					c3.457-1.191,6.824-2.512,10.098-3.961H116.5V14.5h-105v35.348h-0.328c3.273,1.449,6.641,2.77,10.098,3.961
					C35.09,58.57,50.285,61.203,66.234,61.203z"/>
				<path clip-path="url(#SVGID_5_)" fill="#2B3032" d="M66.234,57.281c15.285,0,29.848-2.523,43.094-7.086
					c3.309-1.141,6.539-2.406,9.672-3.797h-2.5V14.5h-105v29.727H8.832c1.52,0.754,3.066,1.477,4.633,2.172
					c3.137,1.391,6.367,2.656,9.68,3.797C36.387,54.758,50.949,57.281,66.234,57.281z"/>
				<path clip-path="url(#SVGID_5_)" fill="#2C3133" d="M66.234,53.363c14.621,0,28.547-2.414,41.219-6.777
					c3.164-1.094,6.254-2.305,9.258-3.633H116.5V14.5h-105v24.133H7.031c5.633,3.098,11.652,5.77,17.984,7.953
					C37.688,50.949,51.613,53.363,66.234,53.363z"/>
				<path clip-path="url(#SVGID_5_)" fill="#2D3234" d="M66.234,49.441c13.957,0,27.25-2.305,39.344-6.469
					c6.047-2.082,11.793-4.633,17.172-7.59h-6.25V14.5h-105v20.883H9.719c5.379,2.957,11.125,5.508,17.172,7.59
					C38.984,47.137,52.277,49.441,66.234,49.441z"/>
				<path clip-path="url(#SVGID_5_)" fill="#2E3335" d="M66.234,45.52c13.289,0,25.953-2.191,37.469-6.16
					c5.758-1.984,11.234-4.41,16.352-7.23H116.5V14.5h-105v13.117H5c2.379,1.598,4.852,3.102,7.41,4.512
					c5.121,2.82,10.594,5.246,16.355,7.23C40.281,43.328,52.941,45.52,66.234,45.52z"/>
				<path clip-path="url(#SVGID_5_)" fill="#2F3436" d="M66.234,41.602c12.625,0,24.656-2.086,35.598-5.855
					c5.473-1.883,10.668-4.191,15.535-6.867H116.5V14.5h-105v10.09H8.063c2.258,1.52,4.609,2.949,7.039,4.289
					c4.867,2.676,10.062,4.984,15.535,6.867C41.578,39.516,53.609,41.602,66.234,41.602z"/>
				<path clip-path="url(#SVGID_5_)" fill="#303537" d="M66.234,37.68c11.961,0,23.359-1.977,33.723-5.547
					c5.184-1.785,10.109-3.969,14.719-6.504c2.305-1.27,4.527-2.625,6.668-4.062H116.5V14.5h-105v2.512H4.973
					C20.648,29.781,42.309,37.68,66.234,37.68z"/>
				<path clip-path="url(#SVGID_5_)" fill="#313638" d="M66.234,33.758c11.297,0,22.062-1.863,31.852-5.234
					c4.891-1.688,9.543-3.75,13.898-6.148c2.176-1.195,4.277-2.477,6.297-3.836H116.5V14.5h-105l-3.125-0.262
					C23.184,26.297,43.641,33.758,66.234,33.758z"/>
				<path clip-path="url(#SVGID_5_)" fill="#323739" d="M66.234,29.84c21.266,0,40.52-7.023,54.453-18.375L116.5,14.5H11.781v-3.035
					C25.715,22.816,44.969,29.84,66.234,29.84z"/>
				<path clip-path="url(#SVGID_5_)" fill="#33383A" d="M66.234,25.918c19.938,0,37.984-6.582,51.051-17.223L116.5,14.5H15.184
					V8.695C28.25,19.336,46.297,25.918,66.234,25.918z"/>
				<path clip-path="url(#SVGID_5_)" fill="#33393B" d="M66.234,21.996c9.305,0,18.168-1.535,26.23-4.312
					c4.027-1.387,7.859-3.086,11.445-5.059V14.5H28.559v-1.875c3.586,1.973,7.414,3.672,11.445,5.059
					C48.066,20.461,56.93,21.996,66.234,21.996z"/>
				<path clip-path="url(#SVGID_5_)" fill="#343A3C" d="M66.234,18.078c8.641,0,16.871-1.426,24.355-4.008v0.43H41.879v-0.43
					C49.363,16.652,57.594,18.078,66.234,18.078z"/>
				<path clip-path="url(#SVGID_5_)" fill="#353B3D" d="M66.234,14.5H116.5H66.234z"/>
				<path clip-path="url(#SVGID_5_)" fill="#363C3E" d="M66.234,14.5H116.5H66.234z"/>
				<path clip-path="url(#SVGID_5_)" fill="#373D3F" d="M66.234,14.5h48.133H66.234z"/>
				<path clip-path="url(#SVGID_5_)" fill="#383E40" d="M66.234,14.5h43.32H66.234z"/>
				<path clip-path="url(#SVGID_5_)" fill="#393F41" d="M66.234,14.5h38.508H66.234z"/>
				<path clip-path="url(#SVGID_5_)" fill="#3A4042" d="M66.234,14.5h33.691H66.234z"/>
				<path clip-path="url(#SVGID_5_)" fill="#3B4143" d="M66.234,14.5h28.879H66.234z"/>
				<path clip-path="url(#SVGID_5_)" fill="#3C4244" d="M66.234,14.5h24.066H66.234z"/>
				<path clip-path="url(#SVGID_5_)" fill="#3D4345" d="M66.234,14.5h19.254H66.234z"/>
				<path clip-path="url(#SVGID_5_)" fill="#3E4446" d="M66.234,14.5h14.438H66.234z"/>
				<path clip-path="url(#SVGID_5_)" fill="#3F4547" d="M66.234,14.5h9.625H66.234z"/>
				<path clip-path="url(#SVGID_5_)" fill="#404648" d="M66.234,14.5h4.812H66.234z"/>
			</g>
		</g>
		<g id="rect6741-7" opacity="0.3" enable-background="new    ">
			
				<linearGradient id="SVGID_6_" gradientUnits="userSpaceOnUse" x1="-73.0288" y1="187.7422" x2="-73.0288" y2="150.376" gradientTransform="matrix(2.7297 0 0 -2.7297 263.3512 528.4883)">
				<stop  offset="0" style="stop-color:#FFFFFF"/>
				<stop  offset="0.0632" style="stop-color:#FFFFFF;stop-opacity:0.2353"/>
				<stop  offset="0.9506" style="stop-color:#FFFFFF;stop-opacity:0.1569"/>
				<stop  offset="1" style="stop-color:#FFFFFF;stop-opacity:0.3922"/>
			</linearGradient>
			<path fill="url(#SVGID_6_)" d="M109.5,118.002h-91c-3.033,0-5.5-2.468-5.5-5.5v-91c0-3.033,2.467-5.5,5.5-5.5h91
				c3.032,0,5.5,2.467,5.5,5.5v91C115,115.534,112.532,118.002,109.5,118.002z M18.5,17.002c-2.481,0-4.5,2.019-4.5,4.5v91
				c0,2.481,2.019,4.5,4.5,4.5h91c2.481,0,4.5-2.019,4.5-4.5v-91c0-2.481-2.019-4.5-4.5-4.5H18.5z"/>
		</g>
		<g id="rect5505-21-3-1" opacity="0.7" enable-background="new    ">
			<path d="M109.445,119.002H18.555c-3.614,0-6.555-2.94-6.555-6.555V21.556c0-3.614,2.94-6.554,6.555-6.554h90.891
				c3.614,0,6.555,2.94,6.555,6.554v90.891C116,116.062,113.06,119.002,109.445,119.002z M18.555,16.002
				c-3.063,0-5.555,2.492-5.555,5.554v90.891c0,3.062,2.492,5.555,5.555,5.555h90.891c3.062,0,5.555-2.492,5.555-5.555V21.556
				c0-3.062-2.492-5.554-5.555-5.554H18.555z"/>
		</g>
	</g>
	<g id="path3485" opacity="0.15" enable-background="new    ">
		<path d="M35,32.984c-0.561,0-1.015,0.455-1.016,1.016v3.488c-1.175,0.326-2.254,0.786-3.135,1.49c0,0-0.001,0.001-0.002,0.002
			c-1.692,1.363-2.578,3.356-2.578,5.662c0,1.235,0.256,2.375,0.795,3.361c0.511,0.936,1.2,1.759,2.043,2.453
			c0.866,0.713,2.057,1.382,3.604,2.074c1.585,0.717,2.645,1.256,3.041,1.51c0.003,0.002,0.006,0.004,0.01,0.006
			c0.452,0.283,0.75,0.558,0.916,0.781c0.003,0.004,0.006,0.008,0.01,0.012c0.138,0.181,0.193,0.338,0.193,0.598
			c0,0.565-0.117,0.768-0.477,1.01c-0.002,0.001-0.005,0.003-0.008,0.004c-0.358,0.246-1.024,0.445-2.043,0.445
			c-0.848,0-1.819-0.131-2.908-0.402h-0.002c-1.064-0.268-2.423-0.745-4.047-1.434c-0.517-0.219-1.113,0.023-1.332,0.54
			c-0.053,0.125-0.08,0.26-0.08,0.396v4.6c0,0.396,0.229,0.755,0.588,0.922c1.63,0.758,3.465,1.149,5.412,1.33V66
			c0,0.561,0.455,1.016,1.016,1.016h4c0.561,0,1.015-0.455,1.016-1.016v-3.535c1.197-0.332,2.296-0.787,3.197-1.475
			c1.826-1.385,2.803-3.428,2.803-5.793c0-1.711-0.5-3.259-1.504-4.49c-1.029-1.272-2.719-2.354-5.086-3.43
			c-1.715-0.778-2.827-1.338-3.168-1.553c-0.375-0.254-0.606-0.487-0.715-0.648c-0.1-0.156-0.154-0.324-0.154-0.594
			c0-0.449,0.101-0.66,0.422-0.926c0.288-0.239,0.783-0.422,1.617-0.422c0.745,0,1.506,0.092,2.285,0.277c0,0,0.001,0,0.002,0
			c0.789,0.185,1.838,0.527,3.119,1.027c0.509,0.198,1.083-0.041,1.301-0.541l1.68-3.848c0.224-0.515-0.011-1.113-0.526-1.337
			c-0.006-0.003-0.013-0.006-0.019-0.008c-1.305-0.539-2.566-0.959-3.785-1.26h-0.002c-0.478-0.119-0.975-0.169-1.467-0.24V34
			c0-0.561-0.455-1.015-1.016-1.016H35z M53,67.984c-0.561,0-1.015,0.455-1.016,1.016v4c0,0.561,0.455,1.016,1.016,1.016h21
			c0.561,0,1.016-0.455,1.016-1.016v-4c0-0.561-0.455-1.016-1.016-1.016H53z"/>
	</g>
	<g id="rect4237-3" opacity="0.3" enable-background="new    ">
		<path d="M35,34v4.234c-1.399,0.273-2.573,0.783-3.516,1.537c-1.466,1.182-2.199,2.806-2.199,4.871
			c0,1.097,0.224,2.055,0.672,2.875s1.047,1.537,1.797,2.154s1.875,1.263,3.375,1.934c1.601,0.724,2.657,1.25,3.172,1.58
			c0.526,0.33,0.925,0.675,1.193,1.037c0.269,0.352,0.402,0.757,0.402,1.215c0,0.82-0.308,1.437-0.924,1.852
			c-0.604,0.415-1.478,0.623-2.619,0.623c-0.951,0-2.003-0.144-3.156-0.432c-1.142-0.288-2.541-0.782-4.197-1.484v4.6
			c1.764,0.82,3.773,1.259,6,1.361V66h4v-4.283c1.431-0.289,2.633-0.799,3.6-1.537c1.601-1.213,2.4-2.875,2.4-4.982
			c0-1.522-0.425-2.804-1.275-3.848c-0.851-1.054-2.424-2.103-4.719-3.146c-1.735-0.788-2.836-1.331-3.307-1.629
			c-0.459-0.309-0.795-0.622-1.008-0.941c-0.213-0.33-0.318-0.714-0.318-1.15c0-0.703,0.263-1.271,0.789-1.707
			s1.281-0.656,2.266-0.656c0.828,0,1.669,0.103,2.52,0.305c0.862,0.202,1.946,0.558,3.256,1.068l1.68-3.848
			c-1.265-0.521-2.48-0.925-3.645-1.213c-0.721-0.18-1.469-0.298-2.238-0.365V34H35z M53,69v4h21v-4H53z"/>
	</g>
	<g id="rect4237">
		<path fill="#FFFFFF" d="M35,33v4.234c-1.399,0.273-2.573,0.783-3.516,1.537c-1.466,1.182-2.199,2.806-2.199,4.871
			c0,1.097,0.224,2.055,0.672,2.875s1.047,1.537,1.797,2.154s1.875,1.263,3.375,1.934c1.601,0.724,2.657,1.25,3.172,1.58
			c0.526,0.33,0.925,0.675,1.193,1.037c0.269,0.352,0.402,0.757,0.402,1.215c0,0.82-0.308,1.437-0.924,1.852
			c-0.604,0.415-1.478,0.623-2.619,0.623c-0.951,0-2.003-0.144-3.156-0.432c-1.142-0.288-2.541-0.782-4.197-1.484v4.6
			c1.764,0.82,3.773,1.259,6,1.361V65h4v-4.283c1.431-0.289,2.633-0.799,3.6-1.537c1.601-1.213,2.4-2.875,2.4-4.982
			c0-1.522-0.425-2.804-1.275-3.848c-0.851-1.054-2.424-2.103-4.719-3.146c-1.735-0.788-2.836-1.331-3.307-1.629
			c-0.459-0.309-0.795-0.622-1.008-0.941c-0.213-0.33-0.318-0.714-0.318-1.15c0-0.703,0.263-1.271,0.789-1.707
			s1.281-0.656,2.266-0.656c0.828,0,1.669,0.103,2.52,0.305c0.862,0.202,1.946,0.558,3.256,1.068l1.68-3.848
			c-1.265-0.521-2.48-0.925-3.645-1.213c-0.721-0.18-1.469-0.298-2.238-0.365V33H35z M53,68v4h21v-4H53z"/>
	</g>
</g>
<g id="Layer_2">
	<polygon fill="#0A98F6" points="93.959,31.049 102.971,40.061 102.971,12.839 84.948,12.839 84.948,40.061 	"/>
</g>
<g id="Layer_3">
</g>
</svg>
