<?xml version="1.0" encoding="UTF-8" standalone="no"?>
<svg
   xmlns:dc="http://purl.org/dc/elements/1.1/"
   xmlns:cc="http://creativecommons.org/ns#"
   xmlns:rdf="http://www.w3.org/1999/02/22-rdf-syntax-ns#"
   xmlns:svg="http://www.w3.org/2000/svg"
   xmlns="http://www.w3.org/2000/svg"
   xmlns:xlink="http://www.w3.org/1999/xlink"
   viewBox="0 0 24 24"
   id="svg3816"
   height="24"
   width="24"
   version="1.1">
  <defs
     id="defs3818">
    <linearGradient
       id="linearGradient4806-2-9-2">
      <stop
         offset="0"
         style="stop-color:#ffffff;stop-opacity:1"
         id="stop4808-4-6-7" />
      <stop
         offset="0.42447853"
         style="stop-color:#ffffff;stop-opacity:0.23529412"
         id="stop4810-0-9-3" />
      <stop
         offset="0.82089913"
         style="stop-color:#ffffff;stop-opacity:0.15686275"
         id="stop4812-8-7-9" />
      <stop
         offset="1"
         style="stop-color:#ffffff;stop-opacity:0.39215687"
         id="stop4814-0-7-4" />
    </linearGradient>
    <linearGradient
       gradientTransform="matrix(0.78776,0,0,0.78776,-44.857592,-10.952295)"
       gradientUnits="userSpaceOnUse"
       xlink:href="#linearGradient4806-2-9-2"
       id="linearGradient5400-4-9"
       y2="40.495617"
       x2="71.204407"
       y1="15.369057"
       x1="71.204407" />
    <radialGradient
       gradientTransform="matrix(0.94117645,0,0,0.23529375,-46.941182,19.41176)"
       gradientUnits="userSpaceOnUse"
       xlink:href="#radialGradient3109-3-6"
       id="radialGradient3169-1-7"
       r="10.625"
       cy="4.625"
       cx="62.625" />
    <radialGradient
       gradientTransform="matrix(1.1294118,0,0,0.2823525,-58.729414,19.694118)"
       gradientUnits="userSpaceOnUse"
       id="radialGradient3109-3-6"
       r="10.625"
       cy="4.625"
       cx="62.625">
      <stop
         offset="0"
         style="stop-color:#000000;stop-opacity:1"
         id="stop8840-3-7-1" />
      <stop
         offset="1"
         style="stop-color:#000000;stop-opacity:0"
         id="stop8842-5-0-5" />
    </radialGradient>
    <linearGradient
       id="linearGradient1225">
      <stop
         id="stop1221"
         offset="0"
         style="stop-color:#f37329;stop-opacity:1" />
      <stop
         id="stop1223"
         offset="1"
         style="stop-color:#e95420;stop-opacity:1" />
    </linearGradient>
    <linearGradient
       gradientTransform="matrix(0.20192308,0,0,0.20192308,-1.024179,-2.326416)"
       gradientUnits="userSpaceOnUse"
       y2="118.04783"
       x2="64.5"
       y1="13.998179"
       x1="64.5"
       id="linearGradient1227"
       xlink:href="#linearGradient1225" />
  </defs>
  <metadata
     id="metadata3821">
    <rdf:RDF>
      <cc:Work
         rdf:about="">
        <dc:format>image/svg+xml</dc:format>
        <dc:type
           rdf:resource="http://purl.org/dc/dcmitype/StillImage" />
        <dc:title></dc:title>
      </cc:Work>
    </rdf:RDF>
  </metadata>
  <path
     d="M 22,20.5 C 22,21.88075 17.52283,23 12,23 6.47717,23 2,21.88083 2,20.5 2,19.11917 6.47717,18 12,18 c 5.52283,0 10,1.11925 10,2.5 z"
     id="path8836-10"
     style="opacity:0.4;fill:url(#radialGradient3169-1-7);fill-rule:evenodd" />
  <circle
     class="st1"
     cx="11.99986"
     cy="11.000138"
     r="10.5"
     id="circle7"
     style="opacity:1;fill:url(#linearGradient1227);fill-opacity:1;stroke-width:1" />
  <path
     d="m 21.49986,11.000138 c 0,5.246708 -4.25329,9.5 -9.50001,9.5 -5.2467,0 -9.49999,-4.253292 -9.49999,-9.5 0,-5.24671 4.25329,-9.500001 9.49999,-9.500001 5.24672,0 9.50001,4.253291 9.50001,9.500001 z"
     id="path4176-3"
     style="color:#000000;display:inline;overflow:visible;visibility:visible;opacity:0.4;fill:none;stroke:url(#linearGradient5400-4-9);stroke-width:0.99999982;stroke-linecap:round;stroke-linejoin:round;stroke-miterlimit:4;stroke-dasharray:none;stroke-dashoffset:0;stroke-opacity:1;marker:none;enable-background:accumulate" />
  <path
     d="M 11.99986,0.500275 C 6.2064,0.500275 1.5,5.206673 1.5,11.000138 1.5,16.793602 6.2064,21.5 11.99986,21.5 c 5.79346,0 10.49987,-4.706398 10.49986,-10.499862 0,-5.793465 -4.7064,-10.499863 -10.49986,-10.499863 z"
     id="path3871-0"
     style="color:#000000;display:inline;overflow:visible;visibility:visible;opacity:0.5;fill:none;stroke:#a62100;stroke-width:1;stroke-opacity:1;marker:none;enable-background:accumulate;font-variation-settings:normal;vector-effect:none;fill-opacity:0;stroke-linecap:round;stroke-linejoin:round;stroke-miterlimit:4;stroke-dasharray:none;stroke-dashoffset:0" />
  <path
     d="M 11.78125,5 A 1.0001002,1.0001002 0 0 0 11.335938,5.1132812 L 8.625,6.5292969 a 1.0001002,1.0001002 0 0 0 -0.082031,0.048828 1.0001002,1.0001002 0 0 0 -0.00391,0.00195 1.0001002,1.0001002 0 0 0 -0.1464844,0.060547 l -0.1035156,0.052734 a 1.0001002,1.0001002 0 0 0 -0.00977,0.00391 L 5.6679688,8.0605469 A 1.0001002,1.0001002 0 0 0 5.2597656,8.4570312 1.0001002,1.0001002 0 0 0 5,9.1269531 v 2.8320309 a 1.0001002,1.0001002 0 0 0 0.00977,0.123047 A 1.0001002,1.0001002 0 0 0 5,12.203125 v 2.830078 a 1.0001002,1.0001002 0 0 0 0.5371094,0.886719 l 2.7421875,1.429687 a 1.0001002,1.0001002 0 0 0 0.1054687,0.04492 1.0001002,1.0001002 0 0 0 0.171875,0.09766 l -0.03125,-0.01367 0.074219,0.04102 a 1.0001002,1.0001002 0 0 0 0.019531,0.0098 l 2.6054684,1.357422 a 1.0001002,1.0001002 0 0 0 0.564453,0.107422 1.0001002,1.0001002 0 0 0 0.570313,-0.107422 l 2.605469,-1.357422 a 1.0001002,1.0001002 0 0 0 0.01953,-0.0098 l 0.07422,-0.04102 -0.03125,0.01367 a 1.0001002,1.0001002 0 0 0 0.171875,-0.09766 1.0001002,1.0001002 0 0 0 0.002,0 1.0001002,1.0001002 0 0 0 0.105469,-0.04492 l 2.734375,-1.429687 a 1.0001002,1.0001002 0 0 0 0.537109,-0.886719 v -2.830078 a 1.0001002,1.0001002 0 0 0 -0.07031,-0.367187 l 0.955079,-0.498047 A 1.0001002,1.0001002 0 0 0 20,10.451172 V 7.625 A 1.0001002,1.0001002 0 0 0 19.730469,6.9433594 1.0001002,1.0001002 0 0 0 19.333984,6.5664062 L 16.632812,5.15625 a 1.0001002,1.0001002 0 0 0 -0.925781,0 L 14.017578,6.0351562 12.263672,5.1152344 A 1.0001002,1.0001002 0 0 0 11.78125,5 Z"
     id="path9-3-5"
     style="font-variation-settings:normal;opacity:0.05;vector-effect:none;fill:#8f1c00;fill-opacity:1;stroke-width:1;stroke-linecap:butt;stroke-linejoin:miter;stroke-miterlimit:4;stroke-dasharray:none;stroke-dashoffset:0;stroke-opacity:1" />
  <path
     style="opacity:0.15;fill:#8d1c00;stroke-width:1;font-variation-settings:normal;vector-effect:none;fill-opacity:1;stroke-linecap:butt;stroke-linejoin:miter;stroke-miterlimit:4;stroke-dasharray:none;stroke-dashoffset:0;stroke-opacity:1"
     d="m 11.798187,6 -2.710449,1.415298 2.710449,1.41489 1.361571,-0.723684 V 7.40214 c 0,-0.0132 1.64e-4,-0.0192 0.0063,-0.0258 0,0 -2.44e-4,-0.006 0.006,-0.006 0,-0.0066 0.0063,-0.0126 0.0063,-0.0192 0,-0.0066 0.006,-0.0066 0.006,-0.0066 l 0.0127,-0.0132 0.006,-0.006 0.0063,-0.0066 h 0.01231 l 0.550478,-0.2841 z m 4.372344,0.0426 -1.966186,1.02303 -0.117036,0.06456 -0.117033,0.0582 -0.499482,0.26358 0.499482,0.2574 0.117033,0.06456 0.117036,0.0582 0.394347,0.20598 0.105138,0.0582 0.104737,0.0516 1.361968,0.714234 2.700134,-1.409544 z m -7.3240042,1.48932 -0.1051331,0.0516 -2.611267,1.363494 2.5803219,1.350744 0.030943,0.0126 0.1051332,0.0516 0.1051332,-0.0516 L 11.556973,8.94687 10.269986,8.27499 9.7808198,8.02293 Z M 13.34146,7.6191 v 2.05305 l 1.257232,0.65667 0.105138,0.0582 0.04919,0.0252 h 0.01231 c 0.0062,0 0.006,0.0066 0.006,0.0066 0.0062,0 0.0064,0.0066 0.0064,0.0066 l 0.01231,0.0126 0.0063,0.0066 c 0.0062,0.0066 0.006,0.0126 0.006,0.0192 0,0 1.99e-4,0.006 0.0064,0.006 0,0.0066 0.006,0.0192 0.006,0.0318 l -0.006,0.07116 v 0.643506 l 1.257114,0.65625 V 9.05364 l -1.257349,-0.656664 -0.104737,-0.0582 -0.105137,-0.0582 -0.628418,-0.32814 -0.117431,-0.06414 -0.117036,-0.06456 z m 5.658539,0.0066 -2.724335,1.42887 v 2.81868 l 0.394348,-0.20598 0.117036,-0.06414 0.117035,-0.0582 2.095916,-1.094166 z m -5.840241,0.733146 -1.132262,0.588 1.132262,0.5946 z m -1.390136,0.74712 -0.104737,0.0582 -2.5950016,1.351566 1.2326356,0.643506 1.362366,0.714228 0.104737,0.0516 0.104736,-0.0516 1.861451,-0.971634 0.117034,-0.06456 0.117433,-0.0582 0.499084,-0.26358 -1.1279,-0.58596 -0.104736,-0.0576 -0.104737,-0.0516 -1.25763,-0.656256 z m -5.7696222,0.0216 v 2.830602 l 0.012302,0.0066 0.1178282,0.0582 2.6112671,1.363494 v -2.830188 l -0.012302,-0.0066 -0.1237795,-0.06456 z m 2.940155,1.567848 v 2.819094 l 0.012302,0.006 0.1174318,0.0582 1.2326354,0.643506 1.362366,0.714636 v -2.81919 l -0.01231,-0.0066 -0.117431,-0.06414 -1.281831,-0.669408 z m 5.6585372,0 -0.394347,0.20598 -0.117036,0.0582 -0.117033,0.06414 -1.966584,1.023438 -0.117035,0.06414 -0.01231,0.0066 V 14.937 l 2.595,-1.358142 0.117036,-0.0582 0.01231,-0.006 z m 0.250337,0.732732 v 1.951488 l 2.605315,-1.363476 -0.501068,-0.26478 -0.687134,0.36186 c -0.0062,0 -0.0062,1.08e-4 -0.01231,0.0066 h -0.0064 c -0.01855,0.0132 -0.03073,0.0126 -0.0369,0.0126 -0.0062,0 -0.01879,-1.08e-4 -0.025,-0.0066 h -0.006 c -0.0062,0 -0.0061,2.94e-4 -0.01231,-0.006 z m -8.8490292,0.7755 v 2.830188 l 2.741394,1.428462 v -2.830602 z m 11.5781242,0 -2.735047,1.428048 v 2.830602 l 2.735047,-1.428462 z M 8.9516599,13.74138 v 2.830602 l 0.012302,0.0066 0.1178293,0.06456 L 11.687106,18 v -2.830224 l -0.0127,-0.0066 -0.117433,-0.06456 z m 5.6807561,0 -2.60492,1.35732 -0.117829,0.06456 -0.01231,0.0066 V 18 l 2.605317,-1.356912 0.11743,-0.06456 0.01231,-0.0066 z"
     id="path9-3" />
  <path
     style="opacity:1;fill:#ffffff;stroke-width:0.99999994"
     d="m 11.798187,5 -2.710449,1.415298 2.710449,1.41489 1.361571,-0.723684 V 6.40214 c 0,-0.0132 1.64e-4,-0.0192 0.0063,-0.0258 0,0 -2.44e-4,-0.006 0.006,-0.006 0,-0.0066 0.0063,-0.0126 0.0063,-0.0192 0,-0.0066 0.006,-0.0066 0.006,-0.0066 l 0.0127,-0.0132 0.006,-0.006 0.0063,-0.0066 h 0.01231 l 0.550478,-0.2841 z m 4.372344,0.0426 -1.966186,1.02303 -0.117036,0.06456 -0.117033,0.0582 -0.499482,0.26358 0.499482,0.2574 0.117033,0.06456 0.117036,0.0582 0.394347,0.20598 0.105138,0.0582 0.104737,0.0516 1.361968,0.714234 2.700134,-1.409544 z m -7.3240042,1.48932 -0.1051331,0.0516 -2.611267,1.363494 2.5803219,1.350744 0.030943,0.0126 0.1051332,0.0516 L 8.951658,9.310358 11.556973,7.94687 10.269986,7.27499 9.7808198,7.02293 Z M 13.34146,6.6191 v 2.05305 l 1.257232,0.65667 0.105138,0.0582 0.04919,0.0252 h 0.01231 c 0.0062,0 0.006,0.0066 0.006,0.0066 0.0062,0 0.0064,0.0066 0.0064,0.0066 l 0.01231,0.0126 0.0063,0.0066 c 0.0062,0.0066 0.006,0.0126 0.006,0.0192 0,0 1.99e-4,0.006 0.0064,0.006 0,0.0066 0.006,0.0192 0.006,0.0318 l -0.006,0.07116 v 0.643506 l 1.257114,0.65625 V 8.05364 l -1.257349,-0.656664 -0.104737,-0.0582 -0.105137,-0.0582 -0.628418,-0.32814 -0.117431,-0.06414 -0.117036,-0.06456 z m 5.658539,0.0066 -2.724335,1.42887 v 2.81868 l 0.394348,-0.20598 0.117036,-0.06414 0.117035,-0.0582 2.095916,-1.094166 z m -5.840241,0.733146 -1.132262,0.588 1.132262,0.5946 z m -1.390136,0.74712 -0.104737,0.0582 -2.5950016,1.351566 1.2326356,0.643506 1.362366,0.714228 0.104737,0.0516 0.104736,-0.0516 1.861451,-0.971634 0.117034,-0.06456 0.117433,-0.0582 0.499084,-0.26358 -1.1279,-0.58596 -0.104736,-0.0576 -0.104737,-0.0516 -1.25763,-0.656256 z m -5.7696222,0.0216 v 2.830602 l 0.012302,0.0066 0.1178282,0.0582 2.6112671,1.363494 V 9.556274 l -0.012302,-0.0066 -0.1237795,-0.06456 z m 2.940155,1.567848 v 2.819094 l 0.012302,0.006 0.1174318,0.0582 1.2326354,0.643506 1.362366,0.714636 v -2.81919 l -0.01231,-0.0066 -0.117431,-0.06414 -1.281831,-0.669408 z m 5.6585372,0 -0.394347,0.20598 -0.117036,0.0582 -0.117033,0.06414 -1.966584,1.023438 -0.117035,0.06414 -0.01231,0.0066 V 13.937 l 2.595,-1.358142 0.117036,-0.0582 0.01231,-0.006 z m 0.250337,0.732732 v 1.951488 l 2.605315,-1.363476 -0.501068,-0.26478 -0.687134,0.36186 c -0.0062,0 -0.0062,1.08e-4 -0.01231,0.0066 h -0.0064 c -0.01855,0.0132 -0.03073,0.0126 -0.0369,0.0126 -0.0062,0 -0.01879,-1.08e-4 -0.025,-0.0066 h -0.006 c -0.0062,0 -0.0061,2.94e-4 -0.01231,-0.006 z m -8.8490292,0.7755 v 2.830188 l 2.741394,1.428462 v -2.830602 z m 11.5781242,0 -2.735047,1.428048 v 2.830602 l 2.735047,-1.428462 z M 8.9516599,12.74138 v 2.830602 l 0.012302,0.0066 0.1178293,0.06456 L 11.687106,17 v -2.830224 l -0.0127,-0.0066 -0.117433,-0.06456 z m 5.6807561,0 -2.60492,1.35732 -0.117829,0.06456 -0.01231,0.0066 V 17 l 2.605317,-1.356912 0.11743,-0.06456 0.01231,-0.0066 z"
     id="path9" />
</svg>
