<?xml version="1.0" encoding="UTF-8" standalone="no"?>
<svg
   xmlns:dc="http://purl.org/dc/elements/1.1/"
   xmlns:cc="http://creativecommons.org/ns#"
   xmlns:rdf="http://www.w3.org/1999/02/22-rdf-syntax-ns#"
   xmlns:svg="http://www.w3.org/2000/svg"
   xmlns="http://www.w3.org/2000/svg"
   xmlns:xlink="http://www.w3.org/1999/xlink"
   xmlns:sodipodi="http://sodipodi.sourceforge.net/DTD/sodipodi-0.dtd"
   xmlns:inkscape="http://www.inkscape.org/namespaces/inkscape"
   version="1.1"
   width="128"
   height="128"
   id="svg4434"
   inkscape:version="0.91 r13725"
   sodipodi:docname="snapcenter.svg">
  <sodipodi:namedview
     pagecolor="#ffffff"
     bordercolor="#666666"
     borderopacity="1"
     objecttolerance="10"
     gridtolerance="10"
     guidetolerance="10"
     inkscape:pageopacity="0"
     inkscape:pageshadow="2"
     inkscape:window-width="980"
     inkscape:window-height="513"
     id="namedview104"
     showgrid="false"
     inkscape:zoom="1.84375"
     inkscape:cx="56.862277"
     inkscape:cy="72.326771"
     inkscape:window-x="779"
     inkscape:window-y="637"
     inkscape:window-maximized="0"
     inkscape:current-layer="svg4434" />
  <defs
     id="defs4436">
    <linearGradient
       x1="24"
       y1="5.5907"
       gradientTransform="matrix(2.4595 0 0 2.5676 5.973 8.3802)"
       x2="24"
       gradientUnits="userSpaceOnUse"
       xlink:href="#linearGradient3924"
       y2="42.262"
       id="linearGradient4136" />
    <linearGradient
       id="linearGradient3924">
      <stop
         offset="0"
         stop-color="#fff"
         id="stop3926" />
      <stop
         offset=".090909"
         stop-opacity=".23529"
         stop-color="#fff"
         id="stop3928" />
      <stop
         offset="0.85"
         stop-opacity=".15686"
         stop-color="#fff"
         id="stop3930" />
      <stop
         offset="1"
         stop-opacity=".39216"
         stop-color="#fff"
         id="stop3932" />
    </linearGradient>
    <radialGradient
       r="2.5"
       gradientTransform="matrix(2.0039 0 0 1.4 25.877 -17.4)"
       cx="4.993"
       cy="43.5"
       gradientUnits="userSpaceOnUse"
       id="radialGradient4093">
      <stop
         offset="0"
         stop-color="#181818"
         id="stop2883-0" />
      <stop
         offset="1"
         stop-opacity="0"
         stop-color="#181818"
         id="stop2885-5" />
    </radialGradient>
    <radialGradient
       r="2.5"
       gradientTransform="matrix(2.0038 0 0 1.4 -21.419 -104.4)"
       cx="4.993"
       cy="43.5"
       gradientUnits="userSpaceOnUse"
       id="radialGradient4095">
      <stop
         offset="0"
         stop-color="#181818"
         id="stop2889-9" />
      <stop
         offset="1"
         stop-opacity="0"
         stop-color="#181818"
         id="stop2891-4" />
    </radialGradient>
    <linearGradient
       x1="25.058"
       y1="47.028"
       gradientTransform="matrix(.87434 0 0 1 2.664 0)"
       x2="25.058"
       gradientUnits="userSpaceOnUse"
       y2="39.999"
       id="linearGradient4097">
      <stop
         offset="0"
         stop-opacity="0"
         stop-color="#181818"
         id="stop2895-0" />
      <stop
         offset=".5"
         stop-color="#181818"
         id="stop2897-2" />
      <stop
         offset="1"
         stop-opacity="0"
         stop-color="#181818"
         id="stop2899-6" />
    </linearGradient>
    <linearGradient
       id="linearGradient3811">
      <stop
         offset="0"
         id="stop3813" />
      <stop
         offset="1"
         stop-opacity="0"
         id="stop3815" />
    </linearGradient>
    <radialGradient
       r="35.338"
       gradientTransform="matrix(1.5564 0 0 .16979 72.27 102.13)"
       cx="-4.0288"
       cy="93.468"
       gradientUnits="userSpaceOnUse"
       xlink:href="#linearGradient3811"
       id="radialGradient4432" />
    <radialGradient
       r="27.5"
       gradientTransform="matrix(1.7133e-8 4.1073 -3.9361 1.7878e-8 82.09 -109.71)"
       cx="32"
       cy="4.3419"
       gradientUnits="userSpaceOnUse"
       id="radialGradient3044">
      <stop
         offset="0"
         stop-color="#fafafa"
         id="stop4634-68-8-0-2-9-4" />
      <stop
         offset="1"
         stop-color="#e1e1e1"
         id="stop4636-8-21-7-1-4-8" />
    </radialGradient>
    <linearGradient
       x1="32"
       y1="18"
       gradientTransform="matrix(1.6727 0 0 2 10.636 6)"
       x2="32"
       gradientUnits="userSpaceOnUse"
       xlink:href="#linearGradient3811"
       y2="33"
       id="linearGradient38386" />
    <radialGradient
       r="4.5"
       gradientTransform="matrix(1 0 0 .66667 16 6.6667)"
       cx="12.5"
       cy="20"
       gradientUnits="userSpaceOnUse"
       xlink:href="#linearGradient3811"
       id="radialGradient8807" />
    <radialGradient
       r="4.5"
       gradientTransform="matrix(.83333 0 0 .55556 18.333 8.3889)"
       cx="12.5"
       cy="20"
       gradientUnits="userSpaceOnUse"
       xlink:href="#linearGradient3811"
       id="radialGradient8809" />
    <radialGradient
       r="4.5"
       gradientTransform="matrix(1 0 0 .66667 8 6.6667)"
       cx="12.5"
       cy="20"
       gradientUnits="userSpaceOnUse"
       xlink:href="#linearGradient3811"
       id="radialGradient8797" />
    <radialGradient
       r="4.5"
       gradientTransform="matrix(.83333 0 0 .55556 10.333 8.3889)"
       cx="12.5"
       cy="20"
       gradientUnits="userSpaceOnUse"
       xlink:href="#linearGradient3811"
       id="radialGradient8799" />
    <radialGradient
       r="4.5"
       gradientTransform="matrix(1 0 0 .66667 24 6.6667)"
       cx="12.5"
       cy="20"
       gradientUnits="userSpaceOnUse"
       xlink:href="#linearGradient3811"
       id="radialGradient8817" />
    <radialGradient
       r="4.5"
       gradientTransform="matrix(.83333 0 0 .55556 26.333 8.3889)"
       cx="12.5"
       cy="20"
       gradientUnits="userSpaceOnUse"
       xlink:href="#linearGradient3811"
       id="radialGradient8819" />
    <radialGradient
       r="4.5"
       gradientTransform="matrix(1 0 0 .66667 0 6.6667)"
       cx="12.5"
       cy="20"
       gradientUnits="userSpaceOnUse"
       xlink:href="#linearGradient3811"
       id="radialGradient8781" />
    <radialGradient
       r="4.5"
       gradientTransform="matrix(.83333 0 0 .55556 2.3333 8.3889)"
       cx="12.5"
       cy="20"
       gradientUnits="userSpaceOnUse"
       xlink:href="#linearGradient3811"
       id="radialGradient8785" />
    <linearGradient
       id="linearGradient8424">
      <stop
         offset="0"
         stop-color="#fff"
         id="stop8426" />
      <stop
         offset="1"
         stop-opacity="0"
         stop-color="#fff"
         id="stop8428" />
    </linearGradient>
    <linearGradient
       x1="9"
       y1="21"
       gradientTransform="matrix(3.1667 0 0 3.1667 59.083 -4.4167)"
       x2="9"
       gradientUnits="userSpaceOnUse"
       xlink:href="#linearGradient8424"
       y2="18"
       id="linearGradient44241" />
    <linearGradient
       x1="9"
       y1="21"
       gradientTransform="matrix(3.1667 0 0 3.1667 17.083 -4.4167)"
       x2="9"
       gradientUnits="userSpaceOnUse"
       xlink:href="#linearGradient8424"
       y2="18"
       id="linearGradient44245" />
    <linearGradient
       x1="20"
       y1="27"
       gradientTransform="matrix(2.6 0 0 2.3846 3.8 6.3077)"
       x2="20"
       gradientUnits="userSpaceOnUse"
       y2="38"
       id="linearGradient8827">
      <stop
         offset="0"
         stop-color="#6db0de"
         id="stop8823" />
      <stop
         offset="1"
         stop-color="#a4cae4"
         id="stop8825" />
    </linearGradient>
    <linearGradient
       x1="8"
       y1="15"
       gradientTransform="matrix(8.3334 0 0 7.7738 22.333 5.7794)"
       x2="8"
       gradientUnits="userSpaceOnUse"
       y2="10"
       id="linearGradient5610-3-8">
      <stop
         offset="0"
         stop-color="#ae6a37"
         id="stop5606-8-2" />
      <stop
         offset="1"
         stop-color="#d28e5b"
         id="stop5608-5-0" />
    </linearGradient>
    <linearGradient
       x1="9"
       y1="10"
       gradientTransform="matrix(8.3334 0 0 7.7738 22.333 5.7794)"
       x2="9"
       gradientUnits="userSpaceOnUse"
       y2="15"
       id="linearGradient5618-5-7">
      <stop
         offset="0"
         stop-opacity=".625"
         stop-color="#492714"
         id="stop5614-2-5" />
      <stop
         offset="1"
         stop-opacity=".76953"
         stop-color="#6a3f1f"
         id="stop5616-0-2" />
    </linearGradient>
    <linearGradient
       x1="633.24"
       y1="225.82"
       gradientTransform="matrix(10.617 0 0 9.1124 -6632.9 -1979.7)"
       x2="633.24"
       gradientUnits="userSpaceOnUse"
       y2="230.21"
       id="linearGradient6572-9-1">
      <stop
         offset="0"
         stop-color="#fff"
         id="stop6094" />
      <stop
         offset=".1"
         stop-opacity=".23529"
         stop-color="#fff"
         id="stop6096" />
      <stop
         offset="0.975"
         stop-opacity=".15686"
         stop-color="#fff"
         id="stop6098" />
      <stop
         offset="1"
         stop-opacity=".39216"
         stop-color="#fff"
         id="stop6100" />
    </linearGradient>
    <linearGradient
       x1="11"
       y1="34"
       gradientTransform="matrix(0 2.6364 -2.8462 0 144.77 40.182)"
       x2="23"
       gradientUnits="userSpaceOnUse"
       y2="34"
       id="linearGradient8537">
      <stop
         offset="0"
         stop-color="#fff"
         id="stop3926-9-4-9-6" />
      <stop
         offset=".063165"
         stop-opacity=".23529"
         stop-color="#fff"
         id="stop3928-9-8-6-5" />
      <stop
         offset=".95056"
         stop-opacity=".15686"
         stop-color="#fff"
         id="stop3930-3-5-1-7" />
      <stop
         offset="1"
         stop-opacity=".39216"
         stop-color="#fff"
         id="stop3932-8-0-4-8" />
    </linearGradient>
    <linearGradient
       x1="9"
       y1="21"
       gradientTransform="matrix(3.1667 0 0 3.1667 -3.9167 -4.4167)"
       x2="9"
       gradientUnits="userSpaceOnUse"
       xlink:href="#linearGradient8424"
       y2="18"
       id="linearGradient44452" />
    <linearGradient
       x1="71"
       y1="19"
       x2="71"
       gradientUnits="userSpaceOnUse"
       xlink:href="#linearGradient3924"
       y2="39"
       id="linearGradient44483" />
    <radialGradient
       r="27.5"
       gradientTransform="matrix(-1.22595e-8,2.938974,2.8164721,1.2792583e-8,30.61873,53.781586)"
       cx="32"
       cy="4.3418999"
       gradientUnits="userSpaceOnUse"
       id="radialGradient3044-3">
      <stop
         offset="0"
         stop-color="#fafafa"
         id="stop4634-68-8-0-2-9-4-6" />
      <stop
         offset="1"
         stop-color="#e1e1e1"
         id="stop4636-8-21-7-1-4-8-7" />
    </radialGradient>
  </defs>
  <metadata
     id="metadata4439">
    <rdf:RDF>
      <cc:Work
         rdf:about="">
        <dc:format>image/svg+xml</dc:format>
        <dc:type
           rdf:resource="http://purl.org/dc/dcmitype/StillImage" />
        <dc:title></dc:title>
      </cc:Work>
    </rdf:RDF>
  </metadata>
  <path
     d="m121 118c-0.006 3.3133-24.628 5.9988-55 5.9988s-54.994-2.6856-55-5.9988c-0.0058-3.3142 24.62-6.0011 55-6.0011s55.006 2.687 55 6.0011z"
     style="color:#000000"
     id="path3041"
     fill="url(#radialGradient4432)"
     opacity=".2" />
  <g
     transform="matrix(2.7 0 0 .55556 1.2 94.891)"
     id="g2036">
    <g
       transform="matrix(1.0526 0 0 1.2857 -1.2632 -13.429)"
       opacity=".4"
       id="g3712">
      <rect
         fill="url(#radialGradient4093)"
         x="35.889"
         y="40"
         width="5.0002"
         height="7"
         id="rect2801" />
      <rect
         fill="url(#radialGradient4095)"
         x="-11.407"
         y="-47"
         width="5"
         height="7"
         transform="scale(-1)"
         id="rect3696" />
      <rect
         fill="url(#linearGradient4097)"
         x="11.407"
         y="40"
         width="24.482"
         height="7"
         id="rect3700" />
    </g>
  </g>
  <rect
     fill="none"
     x="19.5"
     y="22.502"
     stroke-linecap="round"
     stroke="url(#linearGradient4136)"
     width="91"
     height="95"
     ry="4"
     rx="4"
     stroke-linejoin="round"
     id="rect6741-7" />
  <rect
     fill="none"
     x="18.5"
     y="21.502"
     stroke="#000"
     width="93"
     height="97"
     ry="5"
     rx="5"
     style="color:#000000"
     opacity=".25"
     id="rect5505-21-3-1" />
  <rect
     fill="url(#linearGradient38386)"
     x="19"
     y="40"
     width="92"
     height="32"
     ry="0"
     rx="0"
     opacity=".2"
     id="rect38378" />
  <g
     stroke-width=".37420"
     transform="matrix(2.6667 0 0 2.6781 -1.4959 2.0106)"
     fill-rule="evenodd"
     id="g11938">
    <ellipse
       fill="url(#radialGradient8807)"
       cx="28.5"
       cy="20"
       ry="3"
       rx="4.5"
       style="color-rendering:auto;color:#000000;isolation:auto;mix-blend-mode:normal;shape-rendering:auto;solid-color:#000000;image-rendering:auto"
       opacity=".2"
       id="ellipse8803" />
    <ellipse
       fill="url(#radialGradient8809)"
       cx="28.75"
       cy="19.5"
       ry="2.5"
       rx="3.75"
       style="color-rendering:auto;color:#000000;isolation:auto;mix-blend-mode:normal;shape-rendering:auto;solid-color:#000000;image-rendering:auto"
       opacity=".2"
       id="ellipse8805" />
    <ellipse
       fill="url(#radialGradient8797)"
       cx="20.5"
       cy="20"
       ry="3"
       rx="4.5"
       style="color-rendering:auto;color:#000000;isolation:auto;mix-blend-mode:normal;shape-rendering:auto;solid-color:#000000;image-rendering:auto"
       opacity=".2"
       id="ellipse8793" />
    <ellipse
       fill="url(#radialGradient8799)"
       cx="20.75"
       cy="19.5"
       ry="2.5"
       rx="3.75"
       style="color-rendering:auto;color:#000000;isolation:auto;mix-blend-mode:normal;shape-rendering:auto;solid-color:#000000;image-rendering:auto"
       opacity=".2"
       id="ellipse8795" />
    <ellipse
       fill="url(#radialGradient8817)"
       cx="36.5"
       cy="20"
       ry="3"
       rx="4.5"
       style="color-rendering:auto;color:#000000;isolation:auto;mix-blend-mode:normal;shape-rendering:auto;solid-color:#000000;image-rendering:auto"
       opacity=".2"
       id="ellipse8813" />
    <ellipse
       fill="url(#radialGradient8819)"
       cx="36.75"
       cy="19.5"
       ry="2.5"
       rx="3.75"
       style="color-rendering:auto;color:#000000;isolation:auto;mix-blend-mode:normal;shape-rendering:auto;solid-color:#000000;image-rendering:auto"
       opacity=".2"
       id="ellipse8815" />
    <ellipse
       fill="url(#radialGradient8781)"
       cx="12.5"
       cy="20"
       ry="3"
       rx="4.5"
       style="color-rendering:auto;color:#000000;isolation:auto;mix-blend-mode:normal;shape-rendering:auto;solid-color:#000000;image-rendering:auto"
       opacity=".2"
       id="path8763" />
    <ellipse
       fill="url(#radialGradient8785)"
       cx="12.75"
       cy="19.5"
       ry="2.5"
       rx="3.75"
       style="color-rendering:auto;color:#000000;isolation:auto;mix-blend-mode:normal;shape-rendering:auto;solid-color:#000000;image-rendering:auto"
       opacity=".2"
       id="ellipse8783" />
  </g>
  <path
     fill="#eaeaea"
     stroke-linecap="round"
     stroke="#000"
     stroke-dashoffset="20"
     stroke-opacity=".36471"
     d="m74.5 17.5 1 33.5c0.17303 5.7964 4.701 10.5 10.5 10.5s10.5-4.701 10.5-10.5v-11l-2-22.5z"
     stroke-linejoin="round"
     id="path44114" />
  <path
     fill="#eaeaea"
     stroke-linecap="round"
     stroke="#000"
     stroke-dashoffset="20"
     stroke-opacity=".36471"
     d="m35.5 17.5-2 22.5v11c0 5.799 4.701 10.5 10.5 10.5s10.5-4.701 10.5-10.5v-10.625l1-22.875z"
     stroke-linejoin="round"
     id="path44118" />
  <path
     d="m 113.5,23.5 4,16.5 0,11 c 0,5.799 -4.701,10.5 -10.5,10.5 -5.799,0 -10.5,-4.701 -10.5,-10.5 l 0,-11 -2,-22.5 12.5,0 c 0,0 5.4707,-0.2401 6.5,6 z m -97,0 -4,16.5 0,11 c 0,5.799 4.701,10.5 10.5,10.5 5.799,0 10.5,-4.701 10.5,-10.5 l 0,-11 2,-22.5 -12.5,0 c 0,0 -5.4817,-0.20725 -6.5,6 z m 39,-6 -1,22 0,11.5 c 0,5.799 4.701,10.5 10.5,10.5 5.799,0 10.5,-4.701 10.5,-10.5 l 0,-11.5 -1,-22 z"
     style="color:#000000;clip-rule:nonzero;display:inline;overflow:visible;visibility:visible;opacity:1;isolation:auto;mix-blend-mode:normal;color-interpolation:sRGB;color-interpolation-filters:linearRGB;solid-color:#000000;solid-opacity:1;fill:#665888;fill-opacity:1;fill-rule:nonzero;stroke:#05020d;stroke-width:1;stroke-linecap:round;stroke-linejoin:round;stroke-miterlimit:4;stroke-dasharray:none;stroke-dashoffset:20;stroke-opacity:0.49803922;filter-blend-mode:normal;filter-gaussianBlur-deviation:0;color-rendering:auto;image-rendering:auto;shape-rendering:auto;text-rendering:auto;enable-background:accumulate"
     id="path44122" />
  <circle
     fill="none"
     r="9.5"
     cx="23"
     cy="51"
     stroke="url(#linearGradient44452)"
     stroke-linecap="round"
     stroke-opacity=".39216"
     style="color-rendering:auto;color:#000000;isolation:auto;mix-blend-mode:normal;shape-rendering:auto;solid-color:#000000;image-rendering:auto"
     opacity=".4"
     stroke-linejoin="round"
     id="path8406" />
  <circle
     fill="none"
     r="9.5"
     cx="44"
     cy="51"
     stroke="url(#linearGradient44245)"
     stroke-linecap="round"
     stroke-opacity=".39216"
     style="color-rendering:auto;color:#000000;isolation:auto;mix-blend-mode:normal;shape-rendering:auto;solid-color:#000000;image-rendering:auto"
     stroke-linejoin="round"
     id="use44199" />
  <use
     x="0"
     y="0"
     width="100%"
     height="100%"
     transform="translate(42)"
     xlink:href="#path8406"
     id="use44201" />
  <circle
     fill="none"
     r="9.5"
     cx="86"
     cy="51"
     stroke="url(#linearGradient44241)"
     stroke-linecap="round"
     stroke-opacity=".39216"
     style="color-rendering:auto;color:#000000;isolation:auto;mix-blend-mode:normal;shape-rendering:auto;solid-color:#000000;image-rendering:auto"
     stroke-linejoin="round"
     id="use44203" />
  <use
     x="0"
     y="0"
     width="100%"
     height="100%"
     transform="translate(84)"
     xlink:href="#path8406"
     id="use44205" />
  <path
     opacity=".2"
     fill="#fff"
     fill-opacity=".54167"
     fill-rule="evenodd"
     stroke="url(#linearGradient44483)"
     stroke-width="1px"
     stroke-linejoin="round"
     d="m17.5 23.5-3.9822 16h102.99l-4.0125-16s-0.5-5.0625-5.875-5.125l-83.62 0.125c-4.75 0-5.5 5-5.5 5z"
     id="path33635" />
  <path
     d="m 38.915254,95.372881 9,-9"
     id="path8525"
     inkscape:connector-curvature="0"
     style="opacity:0.2;fill:none;stroke:#ffffff;stroke-width:1px;stroke-linecap:round" />
  <path
     d="m 47.915254,79.372881 9,-9"
     id="path8527"
     inkscape:connector-curvature="0"
     style="opacity:0.2;fill:none;stroke:#ffffff;stroke-width:1px;stroke-linecap:round" />
  <path
     d="m 54.915254,88.372881 9,-9"
     id="path8592"
     inkscape:connector-curvature="0"
     style="opacity:0.2;fill:none;stroke:#ffffff;stroke-width:1px;stroke-linecap:round" />
  <path
     fill="none"
     stroke-width="1px"
     stroke="#fff"
     d="m13.518 39.5h102.99"
     opacity=".1"
     id="path44485" />
  <circle
     class="st1"
     cx="63.728813"
     cy="88.81356"
     r="21.881582"
     id="circle7"
     style="fill:#e95420" />
  <path
     class="st2"
     d="m 66.57175,81.879884 -2.354103,1.17062 2.354103,1.183484 z m 0,-0.501693 0,-1.40217 c 0,-0.02572 0,-0.03859 0.01283,-0.05146 0,0 0,-0.01287 0.01283,-0.01287 0,-0.01287 0.01283,-0.02573 0.01283,-0.03859 0,-0.01287 0.01283,-0.01287 0.01283,-0.01287 l 0.02574,-0.02573 0.01283,-0.01287 0.01283,-0.01287 0.02575,0 1.144892,-0.566014 -4.103613,-2.058236 -5.634414,2.817208 5.634414,2.817203 2.830069,-1.440761 z m -14.88359,13.790154 5.69873,2.84293 0,-5.634403 -5.69873,-2.842937 z m 5.415719,-9.056219 -5.415719,-2.701431 0,5.634412 0.02575,0.01287 0.244415,0.115772 5.428585,2.714295 0,-5.634411 -0.02575,-0.01287 z m 6.13611,-3.061622 -2.675708,-1.337849 -1.016253,-0.501693 -1.942454,-0.977662 -0.218684,0.102913 -5.428586,2.714291 5.36426,2.688566 0.06433,0.02572 0.218685,0.10291 0.218685,-0.10291 z m 6.830758,14.960771 5.685865,-2.84293 0,-5.63441 -5.685865,2.842937 z m 2.842931,-8.618841 c -0.01283,0 -0.03858,0 -0.05149,-0.01287 l -0.01283,0 c -0.01283,0 -0.01283,0 -0.02575,-0.01287 l -2.740012,-1.376442 0,3.884915 5.415718,-2.714295 -1.041983,-0.527421 -1.427894,0.720383 c -0.01283,0 -0.01283,0 -0.02575,0.01287 l -0.01283,0 c -0.03857,0.02573 -0.06433,0.02573 -0.07715,0.02573 z m -8.940446,6.033191 -0.02575,0.0129 0,5.634415 5.415719,-2.701445 0.244417,-0.12863 0.02575,-0.0129 0,-5.63441 -5.415721,2.70143 z m -0.733243,-0.12864 -5.41573,-2.701427 0,5.634407 0.02575,0.0129 0.244416,0.12863 5.415719,2.701435 0,-5.634415 -0.02575,-0.0129 z"
     id="path9"
     inkscape:connector-curvature="0"
     style="fill:#ffffff" />
  <path
     class="st2"
     d="m 73.132364,83.192009 0,5.634412 0.82329,-0.411649 0.244414,-0.128637 0.244414,-0.115777 4.373746,-2.186874 0,-5.647271 z m -3.061617,3.03589 0,1.286396 2.624238,1.312126 0,-5.634412 -2.624238,-1.312125 -0.218693,-0.115773 -0.218686,-0.115777 -1.312121,-0.656062 -0.244414,-0.128638 -0.244414,-0.128641 -0.823299,-0.411644 0,4.1036 2.624248,1.312121 0.218686,0.115777 0.102917,0.05146 0.02575,0 c 0.01283,0 0.01283,0.01287 0.01283,0.01287 0.01283,0 0.01283,0.01287 0.01283,0.01287 l 0.02575,0.02572 0.01283,0.01287 c 0.01283,0.01287 0.01283,0.02573 0.01283,0.03859 0,0 0,0.01287 0.01283,0.01287 0,0.01287 0.01283,0.03859 0.01283,0.06432 l -0.01283,0.141501 z m -1.7495,-5.724457 0.244417,0.128642 0.244414,0.115773 0.82329,0.411648 0.218686,0.115773 0.218693,0.102913 2.842931,1.427898 5.634408,-2.817203 -5.634408,-2.817209 -4.1036,2.045369 -0.244414,0.128642 -0.244417,0.115777 -1.041983,0.527421 z"
     id="path11"
     inkscape:connector-curvature="0"
     style="fill:#ffffff" />
  <path
     class="st2"
     d="m 68.565664,86.999739 -0.244417,0.12864 -4.1036,2.045369 -0.244415,0.128637 -0.02575,0.01287 0,5.634413 5.415719,-2.714295 0.244417,-0.115778 0.02575,-0.01287 0,-5.634412 -0.82329,0.411644 z m -5.081261,2.302646 -0.244414,-0.128637 -2.675708,-1.337853 -2.740022,-1.363577 0,5.634411 0.02575,0.01287 0.244416,0.115777 2.572787,1.286397 2.842932,1.427895 0,-5.634408 z m 4.348016,-2.418424 0.244414,-0.128636 0.244414,-0.115778 1.041977,-0.527421 -2.354104,-1.17062 -0.218684,-0.115777 -0.218686,-0.102909 -2.624247,-1.312125 -0.218686,-0.115773 -0.218694,0.115773 -5.41572,2.701431 2.572788,1.286397 2.842932,1.427898 0.218694,0.102909 0.218686,-0.102909 z"
     id="path13"
     inkscape:connector-curvature="0"
     style="fill:#ffffff" />
</svg>
