<?xml version="1.0" encoding="UTF-8" standalone="no"?>
<svg
   xmlns:dc="http://purl.org/dc/elements/1.1/"
   xmlns:cc="http://creativecommons.org/ns#"
   xmlns:rdf="http://www.w3.org/1999/02/22-rdf-syntax-ns#"
   xmlns:svg="http://www.w3.org/2000/svg"
   xmlns="http://www.w3.org/2000/svg"
   xmlns:xlink="http://www.w3.org/1999/xlink"
   xmlns:sodipodi="http://sodipodi.sourceforge.net/DTD/sodipodi-0.dtd"
   xmlns:inkscape="http://www.inkscape.org/namespaces/inkscape"
   version="1.1"
   width="128"
   height="128"
   id="svg5157"
   sodipodi:docname="com.github.bartzaalberg.snaptastic.svg"
   inkscape:version="0.92+devel (unknown)">
  <sodipodi:namedview
     pagecolor="#ffffff"
     bordercolor="#666666"
     inkscape:document-rotation="0"
     borderopacity="1"
     objecttolerance="10"
     gridtolerance="10"
     guidetolerance="10"
     inkscape:pageopacity="0"
     inkscape:pageshadow="2"
     inkscape:window-width="1600"
     inkscape:window-height="837"
     id="namedview34"
     showgrid="false"
     inkscape:zoom="3.671875"
     inkscape:cx="64"
     inkscape:cy="64"
     inkscape:window-x="0"
     inkscape:window-y="30"
     inkscape:window-maximized="1"
     inkscape:current-layer="svg5157" />
  <defs
     id="defs5159">
    <linearGradient
       id="linearGradient1225">
      <stop
         id="stop1221"
         offset="0"
         style="stop-color:#f37329;stop-opacity:1" />
      <stop
         id="stop1223"
         offset="1"
         style="stop-color:#e95420;stop-opacity:1" />
    </linearGradient>
    <linearGradient
       id="linearGradient3820-7-2-8-6">
      <stop
         id="stop3822-2-6-5-0"
         style="stop-color:#3d3d3d;stop-opacity:1"
         offset="0" />
      <stop
         id="stop3864-8-7-4-1"
         style="stop-color:#686868;stop-opacity:0.49803922"
         offset="0.5" />
      <stop
         id="stop3824-1-2-6-7"
         style="stop-color:#686868;stop-opacity:0"
         offset="1" />
    </linearGradient>
    <linearGradient
       id="linearGradient4806">
      <stop
         offset="0"
         style="stop-color:#ffffff;stop-opacity:1"
         id="stop4808" />
      <stop
         offset="0.42447853"
         style="stop-color:#ffffff;stop-opacity:0.23529412"
         id="stop4810" />
      <stop
         offset="0.82089913"
         style="stop-color:#ffffff;stop-opacity:0.15686275"
         id="stop4812" />
      <stop
         offset="1"
         style="stop-color:#ffffff;stop-opacity:0.39215687"
         id="stop4814" />
    </linearGradient>
    <linearGradient
       xlink:href="#linearGradient4806"
       id="linearGradient3118"
       gradientUnits="userSpaceOnUse"
       gradientTransform="matrix(4.16388,0,0,4.16388,-236.03265,-50.036246)"
       x1="71.204407"
       y1="15.369057"
       x2="71.204407"
       y2="40.495617" />
    <radialGradient
       xlink:href="#linearGradient3820-7-2-8-6"
       id="radialGradient3163"
       gradientUnits="userSpaceOnUse"
       gradientTransform="matrix(0.6869404,0,0,0.21461693,-4.02174,68.573331)"
       cx="99.157013"
       cy="186.17059"
       fx="99.157013"
       fy="186.17059"
       r="62.769119" />
    <linearGradient
       gradientUnits="userSpaceOnUse"
       y2="118.04783"
       x2="64.5"
       y1="13.998179"
       x1="64.5"
       id="linearGradient1227"
       xlink:href="#linearGradient1225" />
  </defs>
  <metadata
     id="metadata5162">
    <rdf:RDF>
      <cc:Work
         rdf:about="">
        <dc:format>image/svg+xml</dc:format>
        <dc:type
           rdf:resource="http://purl.org/dc/dcmitype/StillImage" />
        <dc:title />
      </cc:Work>
    </rdf:RDF>
  </metadata>
  <path
     style="fill:url(#radialGradient3163);fill-opacity:1;stroke:none"
     id="path3818-0-5-0"
     d="m 107.21186,108.52868 a 43.118644,13.471312 0 1 1 -86.237286,0 43.118644,13.471312 0 1 1 86.237286,0 z" />
  <circle
     style="opacity:1;fill:url(#linearGradient1227);stroke-width:1;fill-opacity:1"
     id="circle7"
     r="52"
     cy="65.998177"
     cx="64.5"
     class="st1" />
  <path
     style="opacity:0.5;color:#000000;fill:none;fill-opacity:0;fill-rule:nonzero;stroke:#a62100;stroke-width:1;stroke-linecap:round;stroke-linejoin:round;stroke-miterlimit:4;stroke-opacity:1;stroke-dasharray:none;stroke-dashoffset:0;marker:none;visibility:visible;display:inline;overflow:visible;enable-background:accumulate"
     id="path2555-7-1"
     d="m 64.5,13.998179 c -28.691806,0 -52.000001,23.308189 -52.000001,51.999997 0,28.691808 23.308195,52.000014 52.000001,52.000004 28.691802,0 52.00002,-23.308196 52,-52.000004 0,-28.691808 -23.308198,-51.999997 -52,-51.999997 z" />
  <path
     style="opacity:0.4;color:#000000;fill:none;stroke:url(#linearGradient3118);stroke-width:1;stroke-linecap:round;stroke-linejoin:round;stroke-miterlimit:4;stroke-opacity:1;stroke-dasharray:none;stroke-dashoffset:0;marker:none;visibility:visible;display:inline;overflow:visible;enable-background:accumulate"
     id="path3019"
     d="m 115.5,65.998181 c 0,28.166516 -22.833502,50.999989 -51.000026,50.999989 -28.166487,0 -50.999973,-22.833473 -50.999973,-50.999989 0,-28.166517 22.833486,-50.999991 50.999973,-50.999991 28.166524,0 51.000026,22.833474 51.000026,50.999991 z" />
  <path
     d="m 64.513672,38 a 1.0001,1.0001 0 0 0 -0.417969,0.107422 l -13.34375,6.722656 a 1.0001,1.0001 0 0 0 -0.462891,0.484375 1.0001,1.0001 0 0 0 -0.701171,0.05664 l -0.517579,0.24414 a 1.0001,1.0001 0 0 0 -0.02344,0.01172 L 36.191406,52.103516 A 1.0001,1.0001 0 0 0 35.644531,52.921875 1.0001,1.0001 0 0 0 35,53.855469 V 67.300781 A 1.0001,1.0001 0 0 0 35.1875,67.884766 1.0001,1.0001 0 0 0 35,68.466797 v 13.443359 a 1.0001,1.0001 0 0 0 0.550781,0.892578 l 13.496094,6.785157 a 1.0001,1.0001 0 0 0 0.601563,0.09375 1.0001,1.0001 0 0 0 0.423828,0.423828 l 0.05664,0.0293 0.576172,0.304687 a 1.0001,1.0001 0 0 0 0.01758,0.0078 l 12.826172,6.445312 a 1.0001,1.0001 0 0 0 0.966797,-0.03711 1.0001,1.0001 0 0 0 0.966797,0.03711 l 12.826172,-6.445312 a 1.0001,1.0001 0 0 0 0.01953,-0.0098 l 0.572266,-0.302734 0.05664,-0.0293 a 1.0001,1.0001 0 0 0 0.425781,-0.421875 1.0001,1.0001 0 0 0 0.601563,-0.0957 L 93.449219,82.802734 A 1.0001,1.0001 0 0 0 94,81.910156 V 68.466797 a 1.0001,1.0001 0 0 0 -0.611328,-0.919922 1.0001,1.0001 0 0 0 -0.542969,-0.861328 l -1.798828,-0.916016 9.402345,-4.736328 A 1.0001,1.0001 0 0 0 101,60.140625 V 46.720703 A 1.0001,1.0001 0 0 0 100.35742,45.787109 1.0001,1.0001 0 0 0 99.8125,45.001953 L 86.519531,38.308594 a 1.0001,1.0001 0 0 0 -0.898437,-0.002 l -9.679688,4.859375 a 1.0001,1.0001 0 0 0 -0.02148,0.01172 l -0.556641,0.296875 -0.167969,0.08008 a 1.0001,1.0001 0 0 0 -0.480468,-0.535157 l -9.71875,-4.912109 A 1.0001,1.0001 0 0 0 64.513672,38 Z"
     id="path9-1-8"
     style="opacity:0.05;fill:#8f1c00;fill-opacity:1;stroke-width:1" />
  <path
     id="path9-1"
     d="m 64.544922,39 -13.34375,6.722656 13.34375,6.720703 6.703125,-3.4375 v -3.345703 c 0,-0.06137 8e-4,-0.09235 0.03125,-0.123047 0,0 -0.0012,-0.0293 0.0293,-0.0293 0,-0.03073 0.03125,-0.0611 0.03125,-0.0918 0,-0.03069 0.0293,-0.03125 0.0293,-0.03125 l 0.0625,-0.0625 0.0293,-0.0293 0.03125,-0.03125 h 0.06055 l 2.710938,-1.34961 z m 21.52539,0.201172 -9.679687,4.859375 -0.576172,0.306641 -0.576172,0.27539 -2.458984,1.251953 2.458984,1.222657 0.576172,0.30664 0.576172,0.275391 1.941406,0.978515 0.517578,0.275391 0.515625,0.244141 6.705078,3.392578 13.292969,-6.695313 z m -36.05664,7.074219 -0.517578,0.24414 -12.855469,6.476563 12.703125,6.416015 0.152344,0.06055 0.517578,0.246094 0.517578,-0.246094 12.826172,-6.476562 -6.335938,-3.191406 -2.408203,-1.197266 z m 22.128906,0.414062 v 9.751953 l 6.189453,3.119141 0.517578,0.275391 0.242188,0.121093 h 0.06055 c 0.03027,0 0.0293,0.03125 0.0293,0.03125 0.03027,0 0.03125,0.03125 0.03125,0.03125 l 0.06055,0.06055 0.03125,0.03125 c 0.03027,0.0306 0.0293,0.06123 0.0293,0.0918 0,0 9.8e-4,0.0293 0.03125,0.0293 0,0.0306 0.0293,0.09118 0.0293,0.152344 l -0.0293,0.33789 v 3.056641 l 6.189454,3.117187 V 53.507812 l -6.189454,-3.11914 -0.515625,-0.275391 -0.517578,-0.27539 -3.09375,-1.558594 -0.578125,-0.304688 -0.576172,-0.30664 z M 100,46.720703 86.587891,53.507812 v 13.388672 l 1.941406,-0.978515 0.576172,-0.304688 0.576172,-0.27539 L 100,60.140625 Z m -28.751953,3.482422 -5.574219,2.792969 5.574219,2.824218 z m -6.84375,3.548828 -0.515625,0.275391 -12.775391,6.419922 6.06836,3.05664 6.707031,3.392578 0.515625,0.244141 0.515625,-0.244141 9.164062,-4.615234 0.576172,-0.306641 0.578125,-0.27539 2.457031,-1.251953 -5.552734,-2.783204 -0.515625,-0.273437 -0.515625,-0.246094 -6.191406,-3.117187 z M 36,53.855469 v 13.445312 l 0.06055,0.03125 0.580078,0.275391 12.855469,6.476562 V 60.640625 l -0.06055,-0.03125 -0.609375,-0.306641 z m 14.474609,7.447265 v 13.390625 l 0.06055,0.0293 0.578125,0.275391 6.06836,3.056641 6.707031,3.394531 V 68.058594 L 63.828125,68.027344 63.25,67.722656 56.939453,64.542969 Z m 27.857422,0 -1.941406,0.978516 -0.576172,0.275391 -0.576172,0.304687 -9.68164,4.861328 -0.576172,0.304688 -0.06055,0.03125 v 13.390625 l 12.77539,-6.451172 0.576172,-0.275391 0.06055,-0.0293 z m 1.232422,3.480469 v 9.269531 l 12.826172,-6.476562 -2.466797,-1.257813 -3.382812,1.71875 c -0.03039,0 -0.02996,5.2e-4 -0.06055,0.03125 h -0.03125 c -0.09135,0.0614 -0.151287,0.06055 -0.181641,0.06055 -0.03039,0 -0.09248,-5.3e-4 -0.123047,-0.03125 h -0.0293 c -0.03039,0 -0.02996,0.0014 -0.06055,-0.0293 z M 36,68.466797 v 13.443359 l 13.496094,6.785156 V 75.25 Z m 57,0 L 79.535156,75.25 V 88.695312 L 93,81.910156 Z m -42.46875,7.304687 v 13.445313 l 0.06055,0.03125 0.580078,0.306641 L 63.998047,96 V 82.556641 l -0.0625,-0.03125 -0.578125,-0.306641 z m 27.966797,0 -12.824219,6.447266 -0.580078,0.306641 -0.06055,0.03125 V 96 l 12.826172,-6.445312 0.578125,-0.306641 0.06055,-0.03125 z"
     style="opacity:0.15;fill:#8d1c00;stroke-width:1;fill-opacity:1" />
  <path
     id="path9"
     d="M 64.544922 38 L 51.201172 44.722656 L 64.544922 51.443359 L 71.248047 48.005859 L 71.248047 44.660156 C 71.248047 44.598786 71.248847 44.567806 71.279297 44.537109 C 71.279297 44.537109 71.278144 44.507813 71.308594 44.507812 C 71.308594 44.477083 71.339844 44.446716 71.339844 44.416016 C 71.339844 44.385326 71.369141 44.384766 71.369141 44.384766 L 71.431641 44.322266 L 71.460938 44.292969 L 71.492188 44.261719 L 71.552734 44.261719 L 74.263672 42.912109 L 64.544922 38 z M 86.070312 38.201172 L 76.390625 43.060547 L 75.814453 43.367188 L 75.238281 43.642578 L 72.779297 44.894531 L 75.238281 46.117188 L 75.814453 46.423828 L 76.390625 46.699219 L 78.332031 47.677734 L 78.849609 47.953125 L 79.365234 48.197266 L 86.070312 51.589844 L 99.363281 44.894531 L 86.070312 38.201172 z M 50.013672 45.275391 L 49.496094 45.519531 L 36.640625 51.996094 L 49.34375 58.412109 L 49.496094 58.472656 L 50.013672 58.71875 L 50.53125 58.472656 L 63.357422 51.996094 L 57.021484 48.804688 L 54.613281 47.607422 L 50.013672 45.275391 z M 72.142578 45.689453 L 72.142578 55.441406 L 78.332031 58.560547 L 78.849609 58.835938 L 79.091797 58.957031 L 79.152344 58.957031 C 79.182614 58.957031 79.181641 58.988281 79.181641 58.988281 C 79.211911 58.988281 79.212891 59.019531 79.212891 59.019531 L 79.273438 59.080078 L 79.304688 59.111328 C 79.334958 59.141928 79.333984 59.172555 79.333984 59.203125 C 79.333984 59.203125 79.334964 59.232422 79.365234 59.232422 C 79.365234 59.263022 79.394531 59.323599 79.394531 59.384766 L 79.365234 59.722656 L 79.365234 62.779297 L 85.554688 65.896484 L 85.554688 52.507812 L 79.365234 49.388672 L 78.849609 49.113281 L 78.332031 48.837891 L 75.238281 47.279297 L 74.660156 46.974609 L 74.083984 46.667969 L 72.142578 45.689453 z M 100 45.720703 L 86.587891 52.507812 L 86.587891 65.896484 L 88.529297 64.917969 L 89.105469 64.613281 L 89.681641 64.337891 L 100 59.140625 L 100 45.720703 z M 71.248047 49.203125 L 65.673828 51.996094 L 71.248047 54.820312 L 71.248047 49.203125 z M 64.404297 52.751953 L 63.888672 53.027344 L 51.113281 59.447266 L 57.181641 62.503906 L 63.888672 65.896484 L 64.404297 66.140625 L 64.919922 65.896484 L 74.083984 61.28125 L 74.660156 60.974609 L 75.238281 60.699219 L 77.695312 59.447266 L 72.142578 56.664062 L 71.626953 56.390625 L 71.111328 56.144531 L 64.919922 53.027344 L 64.404297 52.751953 z M 36 52.855469 L 36 66.300781 L 36.060547 66.332031 L 36.640625 66.607422 L 49.496094 73.083984 L 49.496094 59.640625 L 49.435547 59.609375 L 48.826172 59.302734 L 36 52.855469 z M 50.474609 60.302734 L 50.474609 73.693359 L 50.535156 73.722656 L 51.113281 73.998047 L 57.181641 77.054688 L 63.888672 80.449219 L 63.888672 67.058594 L 63.828125 67.027344 L 63.25 66.722656 L 56.939453 63.542969 L 50.474609 60.302734 z M 78.332031 60.302734 L 76.390625 61.28125 L 75.814453 61.556641 L 75.238281 61.861328 L 65.556641 66.722656 L 64.980469 67.027344 L 64.919922 67.058594 L 64.919922 80.449219 L 77.695312 73.998047 L 78.271484 73.722656 L 78.332031 73.693359 L 78.332031 60.302734 z M 79.564453 63.783203 L 79.564453 73.052734 L 92.390625 66.576172 L 89.923828 65.318359 L 86.541016 67.037109 C 86.510626 67.037109 86.511059 67.037629 86.480469 67.068359 L 86.449219 67.068359 C 86.357869 67.129759 86.297932 67.128906 86.267578 67.128906 C 86.237188 67.128906 86.175103 67.128376 86.144531 67.097656 L 86.115234 67.097656 C 86.084844 67.097656 86.085277 67.099049 86.054688 67.068359 L 79.564453 63.783203 z M 36 67.466797 L 36 80.910156 L 49.496094 87.695312 L 49.496094 74.25 L 36 67.466797 z M 93 67.466797 L 79.535156 74.25 L 79.535156 87.695312 L 93 80.910156 L 93 67.466797 z M 50.53125 74.771484 L 50.53125 88.216797 L 50.591797 88.248047 L 51.171875 88.554688 L 63.998047 95 L 63.998047 81.556641 L 63.935547 81.525391 L 63.357422 81.21875 L 50.53125 74.771484 z M 78.498047 74.771484 L 65.673828 81.21875 L 65.09375 81.525391 L 65.033203 81.556641 L 65.033203 95 L 77.859375 88.554688 L 78.4375 88.248047 L 78.498047 88.216797 L 78.498047 74.771484 z "
     style="opacity:1;fill:#ffffff;stroke-width:1" />
</svg>
