<?xml version="1.0" encoding="UTF-8" standalone="no"?>
<svg
   xmlns:dc="http://purl.org/dc/elements/1.1/"
   xmlns:cc="http://creativecommons.org/ns#"
   xmlns:rdf="http://www.w3.org/1999/02/22-rdf-syntax-ns#"
   xmlns:svg="http://www.w3.org/2000/svg"
   xmlns="http://www.w3.org/2000/svg"
   xmlns:xlink="http://www.w3.org/1999/xlink"
   xmlns:sodipodi="http://sodipodi.sourceforge.net/DTD/sodipodi-0.dtd"
   xmlns:inkscape="http://www.inkscape.org/namespaces/inkscape"
   version="1.1"
   width="128"
   height="128"
   id="svg4434"
   inkscape:version="0.91 r13725"
   sodipodi:docname="com.github.bartzaalberg.snapcenter.svg">
  <sodipodi:namedview
     pagecolor="#ffffff"
     bordercolor="#666666"
     borderopacity="1"
     objecttolerance="10"
     gridtolerance="10"
     guidetolerance="10"
     inkscape:pageopacity="0"
     inkscape:pageshadow="2"
     inkscape:window-width="1437"
     inkscape:window-height="566"
     id="namedview104"
     showgrid="false"
     inkscape:zoom="1.84375"
     inkscape:cx="-105.30721"
     inkscape:cy="28.93694"
     inkscape:window-x="670"
     inkscape:window-y="554"
     inkscape:window-maximized="0"
     inkscape:current-layer="svg4434" />
  <defs
     id="defs4436">
    <linearGradient
       x1="24"
       y1="5.5907"
       gradientTransform="matrix(2.6899124,0,0,2.8081394,0.07832917,-3.5359949)"
       x2="24"
       gradientUnits="userSpaceOnUse"
       xlink:href="#linearGradient3924"
       y2="42.262"
       id="linearGradient4136" />
    <linearGradient
       id="linearGradient3924">
      <stop
         offset="0"
         stop-color="#fff"
         id="stop3926" />
      <stop
         offset=".090909"
         stop-opacity=".23529"
         stop-color="#fff"
         id="stop3928" />
      <stop
         offset="0.85"
         stop-opacity=".15686"
         stop-color="#fff"
         id="stop3930" />
      <stop
         offset="1"
         stop-opacity=".39216"
         stop-color="#fff"
         id="stop3932" />
    </linearGradient>
    <radialGradient
       r="2.5"
       gradientTransform="matrix(2.0039,0,0,1.4,25.877,-17.4)"
       cx="4.993"
       cy="43.5"
       gradientUnits="userSpaceOnUse"
       id="radialGradient4093">
      <stop
         offset="0"
         stop-color="#181818"
         id="stop2883-0" />
      <stop
         offset="1"
         stop-opacity="0"
         stop-color="#181818"
         id="stop2885-5" />
    </radialGradient>
    <radialGradient
       r="2.5"
       gradientTransform="matrix(2.0038,0,0,1.4,-21.419,-104.4)"
       cx="4.993"
       cy="43.5"
       gradientUnits="userSpaceOnUse"
       id="radialGradient4095">
      <stop
         offset="0"
         stop-color="#181818"
         id="stop2889-9" />
      <stop
         offset="1"
         stop-opacity="0"
         stop-color="#181818"
         id="stop2891-4" />
    </radialGradient>
    <linearGradient
       x1="25.058"
       y1="47.028"
       gradientTransform="matrix(0.87434,0,0,1,2.664,0)"
       x2="25.058"
       gradientUnits="userSpaceOnUse"
       y2="39.999"
       id="linearGradient4097">
      <stop
         offset="0"
         stop-opacity="0"
         stop-color="#181818"
         id="stop2895-0" />
      <stop
         offset=".5"
         stop-color="#181818"
         id="stop2897-2" />
      <stop
         offset="1"
         stop-opacity="0"
         stop-color="#181818"
         id="stop2899-6" />
    </linearGradient>
    <linearGradient
       id="linearGradient3811">
      <stop
         offset="0"
         id="stop3813" />
      <stop
         offset="1"
         stop-opacity="0"
         id="stop3815" />
    </linearGradient>
    <radialGradient
       r="35.338"
       gradientTransform="matrix(1.7022076,0,0,0.18569637,72.586202,98.996524)"
       cx="-4.0288"
       cy="93.468"
       gradientUnits="userSpaceOnUse"
       xlink:href="#linearGradient3811"
       id="radialGradient4432" />
    <radialGradient
       r="27.5"
       gradientTransform="matrix(1.7133e-8 4.1073 -3.9361 1.7878e-8 82.09 -109.71)"
       cx="32"
       cy="4.3419"
       gradientUnits="userSpaceOnUse"
       id="radialGradient3044">
      <stop
         offset="0"
         stop-color="#fafafa"
         id="stop4634-68-8-0-2-9-4" />
      <stop
         offset="1"
         stop-color="#e1e1e1"
         id="stop4636-8-21-7-1-4-8" />
    </radialGradient>
    <linearGradient
       x1="32"
       y1="18"
       gradientTransform="matrix(1.8294029,0,0,2.1873652,5.1781708,-6.1391786)"
       x2="32"
       gradientUnits="userSpaceOnUse"
       xlink:href="#linearGradient3811"
       y2="33"
       id="linearGradient38386" />
    <radialGradient
       r="4.5"
       gradientTransform="matrix(1,0,0,0.66667,16,6.6667)"
       cx="12.5"
       cy="20"
       gradientUnits="userSpaceOnUse"
       xlink:href="#linearGradient3811"
       id="radialGradient8807" />
    <radialGradient
       r="4.5"
       gradientTransform="matrix(0.83333,0,0,0.55556,18.333,8.3889)"
       cx="12.5"
       cy="20"
       gradientUnits="userSpaceOnUse"
       xlink:href="#linearGradient3811"
       id="radialGradient8809" />
    <radialGradient
       r="4.5"
       gradientTransform="matrix(1,0,0,0.66667,8,6.6667)"
       cx="12.5"
       cy="20"
       gradientUnits="userSpaceOnUse"
       xlink:href="#linearGradient3811"
       id="radialGradient8797" />
    <radialGradient
       r="4.5"
       gradientTransform="matrix(0.83333,0,0,0.55556,10.333,8.3889)"
       cx="12.5"
       cy="20"
       gradientUnits="userSpaceOnUse"
       xlink:href="#linearGradient3811"
       id="radialGradient8799" />
    <radialGradient
       r="4.5"
       gradientTransform="matrix(1,0,0,0.66667,24,6.6667)"
       cx="12.5"
       cy="20"
       gradientUnits="userSpaceOnUse"
       xlink:href="#linearGradient3811"
       id="radialGradient8817" />
    <radialGradient
       r="4.5"
       gradientTransform="matrix(0.83333,0,0,0.55556,26.333,8.3889)"
       cx="12.5"
       cy="20"
       gradientUnits="userSpaceOnUse"
       xlink:href="#linearGradient3811"
       id="radialGradient8819" />
    <radialGradient
       r="4.5"
       gradientTransform="matrix(1,0,0,0.66667,0,6.6667)"
       cx="12.5"
       cy="20"
       gradientUnits="userSpaceOnUse"
       xlink:href="#linearGradient3811"
       id="radialGradient8781" />
    <radialGradient
       r="4.5"
       gradientTransform="matrix(0.83333,0,0,0.55556,2.3333,8.3889)"
       cx="12.5"
       cy="20"
       gradientUnits="userSpaceOnUse"
       xlink:href="#linearGradient3811"
       id="radialGradient8785" />
    <linearGradient
       id="linearGradient8424">
      <stop
         offset="0"
         stop-color="#fff"
         id="stop8426" />
      <stop
         offset="1"
         stop-opacity="0"
         stop-color="#fff"
         id="stop8428" />
    </linearGradient>
    <linearGradient
       x1="9"
       y1="21"
       gradientTransform="matrix(3.4633647,0,0,3.4633647,58.163811,-17.531742)"
       x2="9"
       gradientUnits="userSpaceOnUse"
       xlink:href="#linearGradient8424"
       y2="18"
       id="linearGradient44241" />
    <linearGradient
       x1="9"
       y1="21"
       gradientTransform="matrix(3.4633647,0,0,3.4633647,12.229142,-17.531742)"
       x2="9"
       gradientUnits="userSpaceOnUse"
       xlink:href="#linearGradient8424"
       y2="18"
       id="linearGradient44245" />
    <linearGradient
       x1="20"
       y1="27"
       gradientTransform="matrix(2.6 0 0 2.3846 3.8 6.3077)"
       x2="20"
       gradientUnits="userSpaceOnUse"
       y2="38"
       id="linearGradient8827">
      <stop
         offset="0"
         stop-color="#6db0de"
         id="stop8823" />
      <stop
         offset="1"
         stop-color="#a4cae4"
         id="stop8825" />
    </linearGradient>
    <linearGradient
       x1="8"
       y1="15"
       gradientTransform="matrix(8.3334 0 0 7.7738 22.333 5.7794)"
       x2="8"
       gradientUnits="userSpaceOnUse"
       y2="10"
       id="linearGradient5610-3-8">
      <stop
         offset="0"
         stop-color="#ae6a37"
         id="stop5606-8-2" />
      <stop
         offset="1"
         stop-color="#d28e5b"
         id="stop5608-5-0" />
    </linearGradient>
    <linearGradient
       x1="9"
       y1="10"
       gradientTransform="matrix(8.3334 0 0 7.7738 22.333 5.7794)"
       x2="9"
       gradientUnits="userSpaceOnUse"
       y2="15"
       id="linearGradient5618-5-7">
      <stop
         offset="0"
         stop-opacity=".625"
         stop-color="#492714"
         id="stop5614-2-5" />
      <stop
         offset="1"
         stop-opacity=".76953"
         stop-color="#6a3f1f"
         id="stop5616-0-2" />
    </linearGradient>
    <linearGradient
       x1="633.24"
       y1="225.82"
       gradientTransform="matrix(10.617 0 0 9.1124 -6632.9 -1979.7)"
       x2="633.24"
       gradientUnits="userSpaceOnUse"
       y2="230.21"
       id="linearGradient6572-9-1">
      <stop
         offset="0"
         stop-color="#fff"
         id="stop6094" />
      <stop
         offset=".1"
         stop-opacity=".23529"
         stop-color="#fff"
         id="stop6096" />
      <stop
         offset="0.975"
         stop-opacity=".15686"
         stop-color="#fff"
         id="stop6098" />
      <stop
         offset="1"
         stop-opacity=".39216"
         stop-color="#fff"
         id="stop6100" />
    </linearGradient>
    <linearGradient
       x1="11"
       y1="34"
       gradientTransform="matrix(0 2.6364 -2.8462 0 144.77 40.182)"
       x2="23"
       gradientUnits="userSpaceOnUse"
       y2="34"
       id="linearGradient8537">
      <stop
         offset="0"
         stop-color="#fff"
         id="stop3926-9-4-9-6" />
      <stop
         offset=".063165"
         stop-opacity=".23529"
         stop-color="#fff"
         id="stop3928-9-8-6-5" />
      <stop
         offset=".95056"
         stop-opacity=".15686"
         stop-color="#fff"
         id="stop3930-3-5-1-7" />
      <stop
         offset="1"
         stop-opacity=".39216"
         stop-color="#fff"
         id="stop3932-8-0-4-8" />
    </linearGradient>
    <linearGradient
       x1="9"
       y1="21"
       gradientTransform="matrix(3.1667 0 0 3.1667 -3.9167 -4.4167)"
       x2="9"
       gradientUnits="userSpaceOnUse"
       xlink:href="#linearGradient8424"
       y2="18"
       id="linearGradient44452" />
    <linearGradient
       x1="71"
       y1="19"
       x2="71"
       gradientUnits="userSpaceOnUse"
       xlink:href="#linearGradient3924"
       y2="39"
       id="linearGradient44483"
       gradientTransform="matrix(1.0936826,0,0,1.0936826,-6.454237,-12.701274)" />
    <radialGradient
       r="27.5"
       gradientTransform="matrix(-1.22595e-8,2.938974,2.8164721,1.2792583e-8,30.61873,53.781586)"
       cx="32"
       cy="4.3418999"
       gradientUnits="userSpaceOnUse"
       id="radialGradient3044-3">
      <stop
         offset="0"
         stop-color="#fafafa"
         id="stop4634-68-8-0-2-9-4-6" />
      <stop
         offset="1"
         stop-color="#e1e1e1"
         id="stop4636-8-21-7-1-4-8-7" />
    </radialGradient>
    <linearGradient
       inkscape:collect="always"
       xlink:href="#linearGradient8424"
       id="linearGradient4238"
       gradientUnits="userSpaceOnUse"
       gradientTransform="matrix(3.4633647,0,0,3.4633647,-10.737864,-17.531742)"
       x1="9"
       y1="21"
       x2="9"
       y2="18" />
    <linearGradient
       gradientTransform="matrix(1.7777778,0,0,1.7777778,-228.47946,-53.887076)"
       gradientUnits="userSpaceOnUse"
       xlink:href="#linearGradient5803-2"
       id="linearGradient3045-0"
       y2="54.780239"
       x2="167.98311"
       y1="8.50811"
       x1="167.98311" />
    <linearGradient
       id="linearGradient5803-2">
      <stop
         offset="0"
         style="stop-color:#fff5ef;stop-opacity:1"
         id="stop5805-1" />
      <stop
         offset="1"
         style="stop-color:#fef8dd;stop-opacity:1"
         id="stop5807-6" />
    </linearGradient>
    <linearGradient
       gradientTransform="matrix(2.7297298,0,0,2.7297298,-1.5135184,-62.511679)"
       gradientUnits="userSpaceOnUse"
       xlink:href="#linearGradient3924-6"
       id="linearGradient4136-3"
       y2="43"
       x2="23.99999"
       y1="4.999989"
       x1="23.99999" />
    <linearGradient
       id="linearGradient3924-6">
      <stop
         offset="0"
         style="stop-color:#ffffff;stop-opacity:1"
         id="stop3926-7" />
      <stop
         offset="0.06316455"
         style="stop-color:#ffffff;stop-opacity:0.23529412"
         id="stop3928-5" />
      <stop
         offset="0.95056331"
         style="stop-color:#ffffff;stop-opacity:0.15686275"
         id="stop3930-3" />
      <stop
         offset="1"
         style="stop-color:#ffffff;stop-opacity:0.39215687"
         id="stop3932-5" />
    </linearGradient>
    <radialGradient
       gradientTransform="matrix(0,25.083279,-30.794253,0,372.81656,-272.08999)"
       gradientUnits="userSpaceOnUse"
       xlink:href="#linearGradient2867-449-88-871-390-598-476-591-434-148-57-177-8-3-3-6-4-8-8-8"
       id="radialGradient5264-4"
       fy="9.9571075"
       fx="6.2001843"
       r="12.671875"
       cy="9.9571075"
       cx="6.7304144" />
    <linearGradient
       id="linearGradient2867-449-88-871-390-598-476-591-434-148-57-177-8-3-3-6-4-8-8-8">
      <stop
         offset="0"
         style="stop-color:#ffcd7d;stop-opacity:1"
         id="stop3750-1-0-7-6-6-1-3-9" />
      <stop
         offset="0.26238"
         style="stop-color:#fc8f36;stop-opacity:1"
         id="stop3752-3-7-4-0-32-8-923-0" />
      <stop
         offset="0.704952"
         style="stop-color:#e23a0e;stop-opacity:1"
         id="stop3754-1-8-5-2-7-6-7-1" />
      <stop
         offset="1"
         style="stop-color:#ac441f;stop-opacity:1"
         id="stop3756-1-6-2-6-6-1-96-6" />
    </linearGradient>
    <radialGradient
       gradientTransform="matrix(2.003784,0,0,1.4,27.98813,-17.4)"
       gradientUnits="userSpaceOnUse"
       xlink:href="#linearGradient3688-166-749-5"
       id="radialGradient4093-6"
       fy="43.5"
       fx="4.9929786"
       r="2.5"
       cy="43.5"
       cx="4.9929786" />
    <linearGradient
       id="linearGradient3688-166-749-5">
      <stop
         offset="0"
         style="stop-color:#181818;stop-opacity:1"
         id="stop2883-0-2" />
      <stop
         offset="1"
         style="stop-color:#181818;stop-opacity:0"
         id="stop2885-5-9" />
    </linearGradient>
    <radialGradient
       gradientTransform="matrix(2.003784,0,0,1.4,-20.01187,-104.4)"
       gradientUnits="userSpaceOnUse"
       xlink:href="#linearGradient3688-166-749-5"
       id="radialGradient4095-1"
       fy="43.5"
       fx="4.9929786"
       r="2.5"
       cy="43.5"
       cx="4.9929786" />
    <linearGradient
       gradientUnits="userSpaceOnUse"
       xlink:href="#linearGradient3702-501-757-0"
       id="linearGradient4097-0"
       y2="39.999443"
       x2="25.058096"
       y1="47.027729"
       x1="25.058096" />
    <linearGradient
       id="linearGradient3702-501-757-0">
      <stop
         offset="0"
         style="stop-color:#181818;stop-opacity:0"
         id="stop2895-0-9" />
      <stop
         offset="0.5"
         style="stop-color:#181818;stop-opacity:1"
         id="stop2897-2-3" />
      <stop
         offset="1"
         style="stop-color:#181818;stop-opacity:0"
         id="stop2899-6-6" />
    </linearGradient>
    <radialGradient
       gradientTransform="matrix(1.5563924,0,0,0.16978827,70.270355,38.132101)"
       gradientUnits="userSpaceOnUse"
       xlink:href="#linearGradient3811"
       id="radialGradient3954"
       fy="93.467628"
       fx="-4.0287771"
       r="35.338131"
       cy="93.467628"
       cx="-4.0287771" />
    <radialGradient
       r="27.5"
       gradientTransform="matrix(1.7603686e-8,4.1073,-4.0442346,1.7878e-8,77.941886,-111.37102)"
       cx="32"
       cy="4.3418999"
       gradientUnits="userSpaceOnUse"
       id="radialGradient3044-37">
      <stop
         offset="0"
         stop-color="#fafafa"
         id="stop4634-68-8-0-2-9-4-5" />
      <stop
         offset="1"
         stop-color="#e1e1e1"
         id="stop4636-8-21-7-1-4-8-9" />
    </radialGradient>
    <radialGradient
       r="27.5"
       gradientTransform="matrix(-1.7577738e-8,4.1012457,4.0382733,1.7851647e-8,49.814664,-111.10612)"
       cx="32"
       cy="4.3418999"
       gradientUnits="userSpaceOnUse"
       id="radialGradient3044-37-2">
      <stop
         offset="0"
         stop-color="#fafafa"
         id="stop4634-68-8-0-2-9-4-5-2" />
      <stop
         offset="1"
         stop-color="#e1e1e1"
         id="stop4636-8-21-7-1-4-8-9-8" />
    </radialGradient>
  </defs>
  <metadata
     id="metadata4439">
    <rdf:RDF>
      <cc:Work
         rdf:about="">
        <dc:format>image/svg+xml</dc:format>
        <dc:type
           rdf:resource="http://purl.org/dc/dcmitype/StillImage" />
        <dc:title />
      </cc:Work>
    </rdf:RDF>
  </metadata>
  <path
     d="M 27.622769,85.719659 40.923661,72.418767"
     id="path8525"
     inkscape:connector-curvature="0"
     style="opacity:0.2;fill:none;stroke:#ffffff;stroke-width:1.47787678px;stroke-linecap:round" />
  <path
     inkscape:connector-curvature="0"
     d="m 17.742264,20.338983 c -2.561483,0 -4.623623,2.007 -4.623623,4.5 l 0,86.999997 c 0,2.493 2.06214,4.5 4.623623,4.5 l 85.280226,0 c 2.56149,0 4.62362,-2.007 4.62362,-4.5 l 0,-86.999997 c 0,-2.493 -2.06213,-4.5 -4.62362,-4.5 z m 5.137371,47.5 40.071427,0 0,30.999999 -40.071427,0 z"
     style="color:#000000;fill:url(#radialGradient3044-37)"
     id="rect5505-21-3" />
  <path
     d="M 40.923661,62.073627 54.224553,48.772735"
     id="path8527"
     inkscape:connector-curvature="0"
     style="opacity:0.2;fill:none;stroke:#ffffff;stroke-width:1.47787678px;stroke-linecap:round" />
  <path
     d="m 125.88136,116.35328 c -0.007,3.6237 -26.935222,6.56078 -60.152547,6.56078 -33.217328,0 -60.1459796,-2.93719 -60.1525417,-6.56078 -0.00634,-3.62469 26.9264647,-6.5633 60.1525417,-6.5633 33.226075,0 60.159107,2.93872 60.152547,6.5633 z"
     style="color:#000000;opacity:0.2;fill:url(#radialGradient4432)"
     id="path3041"
     inkscape:connector-curvature="0" />
  <path
     inkscape:connector-curvature="0"
     d="m 109.92556,20.409736 c 2.55771,0 4.6168,2.004041 4.6168,4.493367 l 0,86.871757 c 0,2.48932 -2.05909,4.49337 -4.6168,4.49337 l -85.154532,0 c -2.557701,0 -4.616795,-2.00405 -4.616795,-4.49337 l 0,-86.871757 c 0,-2.489326 2.059094,-4.493367 4.616795,-4.493367 z m -5.12979,47.429985 -40.012383,0 0,30.954301 40.012383,0 z"
     style="color:#000000;fill:url(#radialGradient3044-37-2)"
     id="rect5505-21-3-9" />
  <g
     transform="matrix(2.952943,0,0,0.6076063,-5.141818,91.07936)"
     id="g2036">
    <g
       transform="matrix(1.0526,0,0,1.2857,-1.2632,-13.429)"
       id="g3712"
       style="opacity:0.4">
      <rect
         x="35.889"
         y="40"
         width="5.0001998"
         height="7"
         id="rect2801"
         style="fill:url(#radialGradient4093)" />
      <rect
         x="-11.407"
         y="-47"
         width="5"
         height="7"
         transform="scale(-1,-1)"
         id="rect3696"
         style="fill:url(#radialGradient4095)" />
      <rect
         x="11.407"
         y="40"
         width="24.482"
         height="7"
         id="rect3700"
         style="fill:url(#linearGradient4097)" />
    </g>
  </g>
  <path
     d="M 51.268799,75.37452 64.569691,62.073627"
     id="path8592"
     inkscape:connector-curvature="0"
     style="opacity:0.2;fill:none;stroke:#ffffff;stroke-width:1.47787678px;stroke-linecap:round" />
  <rect
     x="14.872573"
     y="11.908772"
     width="99.525116"
     height="103.89985"
     ry="4.3747301"
     rx="4.3747301"
     id="rect6741-7"
     style="fill:none;stroke:url(#linearGradient4136);stroke-width:1.09368253;stroke-linecap:round;stroke-linejoin:round" />
  <circle
     class="st1"
     cx="64.294159"
     cy="76.025795"
     r="32.338284"
     id="circle7"
     style="fill:#e95420" />
  <path
     class="st2"
     d="m 68.495666,65.77867 -3.479075,1.730032 3.479075,1.749044 z m 0,-0.741441 0,-2.072235 c 0,-0.03801 0,-0.05704 0.01896,-0.07605 0,0 0,-0.01903 0.01896,-0.01903 0,-0.01903 0.01896,-0.03802 0.01896,-0.05704 0,-0.01901 0.01896,-0.01901 0.01896,-0.01901 l 0.03804,-0.03803 0.01896,-0.01901 0.01896,-0.01903 0.03805,0 1.692009,-0.8365 -6.064635,-3.041819 -8.326969,4.163487 8.326969,4.16348 4.182495,-2.129269 z m -21.996115,20.38015 8.422022,4.201501 0,-8.326954 -8.422022,-4.201511 z m 8.003767,-13.383977 -8.003767,-3.992382 0,8.326968 0.03805,0.01903 0.361215,0.171097 8.022781,4.011394 0,-8.326966 -0.03805,-0.01903 z m 9.068416,-4.5247 -3.954369,-1.977176 -1.501896,-0.74144 -2.870708,-1.444864 -0.323188,0.152092 -8.022782,4.011388 7.927716,3.97337 0.09508,0.03801 0.323189,0.152088 0.32319,-0.152088 z m 10.095019,22.110178 8.403008,-4.201501 0,-8.326964 -8.403008,4.201511 z m 4.201502,-12.737586 c -0.01896,0 -0.05701,0 -0.07609,-0.01903 l -0.01896,0 c -0.01896,0 -0.01896,0 -0.03805,-0.01901 l -4.049401,-2.034212 0,5.741426 8.003765,-4.011394 -1.539923,-0.779463 -2.110252,1.064637 c -0.01896,0 -0.01896,0 -0.03805,0.01903 l -0.01896,0 c -0.057,0.03803 -0.09508,0.03803 -0.114022,0.03803 z m -13.212879,8.916314 -0.03805,0.01907 0,8.326971 8.003767,-3.992402 0.361219,-0.190101 0.03805,-0.01907 0,-8.326965 -8.00377,3.992382 z m -1.083642,-0.190114 -8.003783,-3.992377 0,8.32696 0.03805,0.01907 0.361217,0.1901 8.003766,3.992388 0,-8.326971 -0.03805,-0.01907 z"
     id="path9"
     inkscape:connector-curvature="0"
     style="fill:#ffffff" />
  <rect
     x="13.77889"
     y="10.81509"
     width="101.71248"
     height="106.08721"
     ry="5.4684129"
     rx="5.4684129"
     style="color:#000000;opacity:0.25;fill:none;stroke:#000000;stroke-width:1.09368253"
     id="rect5505-21-3-1" />
  <rect
     x="14.325732"
     y="31.046028"
     width="100.6188"
     height="34.997841"
     ry="0"
     rx="0"
     id="rect38378"
     style="opacity:0.2;fill:url(#linearGradient38386)" />
  <path
     class="st2"
     d="m 78.191446,67.717829 0,8.326968 1.216721,-0.608367 0.361214,-0.19011 0.361214,-0.171104 6.463857,-3.23193 0,-8.345972 z m -4.524693,4.486671 0,1.901135 3.8783,1.939162 0,-8.326968 -3.8783,-1.939159 -0.323202,-0.171099 -0.323191,-0.171103 -1.939153,-0.96958 -0.361213,-0.190111 -0.361215,-0.190115 -1.216734,-0.608359 0,6.064616 3.878315,1.939153 0.323191,0.171104 0.1521,0.07605 0.03805,0 c 0.01896,0 0.01896,0.01901 0.01896,0.01901 0.01896,0 0.01896,0.01903 0.01896,0.01903 l 0.03805,0.03801 0.01896,0.01903 c 0.01896,0.01903 0.01896,0.03803 0.01896,0.05704 0,0 0,0.01903 0.01896,0.01903 0,0.01903 0.01896,0.05702 0.01896,0.09506 l -0.01896,0.20912 z m -2.585546,-8.460043 0.361219,0.190118 0.361213,0.171098 1.216721,0.608365 0.323191,0.171099 0.323202,0.152092 4.201502,2.110257 8.326962,-4.163479 -8.326962,-4.163488 -6.064616,3.022803 -0.361213,0.190118 -0.361219,0.171104 -1.539923,0.779463 z"
     id="path11"
     inkscape:connector-curvature="0"
     style="fill:#ffffff" />
  <g
     transform="matrix(2.9165234,0,0,2.9289913,-8.090277,-10.502316)"
     id="g11938"
     style="fill-rule:evenodd;stroke-width:0.37419999">
    <ellipse
       cx="28.5"
       cy="20"
       ry="3"
       rx="4.5"
       style="color:#000000;opacity:0.2;isolation:auto;mix-blend-mode:normal;solid-color:#000000;fill:url(#radialGradient8807);color-rendering:auto;image-rendering:auto;shape-rendering:auto"
       id="ellipse8803" />
    <ellipse
       cx="28.75"
       cy="19.5"
       ry="2.5"
       rx="3.75"
       style="color:#000000;opacity:0.2;isolation:auto;mix-blend-mode:normal;solid-color:#000000;fill:url(#radialGradient8809);color-rendering:auto;image-rendering:auto;shape-rendering:auto"
       id="ellipse8805" />
    <ellipse
       cx="20.5"
       cy="20"
       ry="3"
       rx="4.5"
       style="color:#000000;opacity:0.2;isolation:auto;mix-blend-mode:normal;solid-color:#000000;fill:url(#radialGradient8797);color-rendering:auto;image-rendering:auto;shape-rendering:auto"
       id="ellipse8793" />
    <ellipse
       cx="20.75"
       cy="19.5"
       ry="2.5"
       rx="3.75"
       style="color:#000000;opacity:0.2;isolation:auto;mix-blend-mode:normal;solid-color:#000000;fill:url(#radialGradient8799);color-rendering:auto;image-rendering:auto;shape-rendering:auto"
       id="ellipse8795" />
    <ellipse
       cx="36.5"
       cy="20"
       ry="3"
       rx="4.5"
       style="color:#000000;opacity:0.2;isolation:auto;mix-blend-mode:normal;solid-color:#000000;fill:url(#radialGradient8817);color-rendering:auto;image-rendering:auto;shape-rendering:auto"
       id="ellipse8813" />
    <ellipse
       cx="36.75"
       cy="19.5"
       ry="2.5"
       rx="3.75"
       style="color:#000000;opacity:0.2;isolation:auto;mix-blend-mode:normal;solid-color:#000000;fill:url(#radialGradient8819);color-rendering:auto;image-rendering:auto;shape-rendering:auto"
       id="ellipse8815" />
    <ellipse
       cx="12.5"
       cy="20"
       ry="3"
       rx="4.5"
       style="color:#000000;opacity:0.2;isolation:auto;mix-blend-mode:normal;solid-color:#000000;fill:url(#radialGradient8781);color-rendering:auto;image-rendering:auto;shape-rendering:auto"
       id="path8763" />
    <ellipse
       cx="12.75"
       cy="19.5"
       ry="2.5"
       rx="3.75"
       style="color:#000000;opacity:0.2;isolation:auto;mix-blend-mode:normal;solid-color:#000000;fill:url(#radialGradient8785);color-rendering:auto;image-rendering:auto;shape-rendering:auto"
       id="ellipse8783" />
  </g>
  <path
     class="st2"
     d="m 71.442426,73.345185 -0.361219,0.190115 -6.064616,3.022803 -0.361215,0.190109 -0.03805,0.01903 0,8.326968 8.003767,-4.011394 0.361219,-0.171105 0.03805,-0.01903 0,-8.326967 -1.216722,0.608358 z m -7.509479,3.403027 -0.361213,-0.190109 -3.954369,-1.977181 -4.049414,-2.0152 0,8.326965 0.03805,0.01903 0.361217,0.171103 3.802262,1.901137 4.201504,2.110253 0,-8.326962 z m 6.425832,-3.574132 0.361215,-0.190108 0.361213,-0.171106 1.539914,-0.779464 -3.479076,-1.730031 -0.323188,-0.171105 -0.323191,-0.152086 -3.878315,-1.93916 -0.323191,-0.171099 -0.323201,0.171099 -8.003768,3.992382 3.802263,1.901136 4.201505,2.110259 0.323201,0.152086 0.323191,-0.152086 z"
     id="path13"
     inkscape:connector-curvature="0"
     style="fill:#ffffff" />
  <path
     d="m 75.025115,6.4381711 1.093682,36.6383669 c 0.18924,6.339421 5.141402,11.483667 11.483667,11.483667 6.342266,0 11.483664,-5.141402 11.483664,-11.483667 l 0,-12.030509 -2.187362,-24.6078579 z"
     id="path44114"
     inkscape:connector-curvature="0"
     style="fill:#eaeaea;stroke:#000000;stroke-width:1.09368253;stroke-linecap:round;stroke-linejoin:round;stroke-dashoffset:20;stroke-opacity:0.36471001" />
  <path
     d="m 32.371494,6.4381711 -2.187365,24.6078579 0,12.030509 c 0,6.342265 5.141401,11.483667 11.483667,11.483667 6.342265,0 11.483667,-5.141402 11.483667,-11.483667 l 0,-11.620378 1.093682,-25.0179889 z"
     id="path44118"
     inkscape:connector-curvature="0"
     style="fill:#eaeaea;stroke:#000000;stroke-width:1.09368253;stroke-linecap:round;stroke-linejoin:round;stroke-dashoffset:20;stroke-opacity:0.36471001" />
  <path
     d="m 117.67874,13.000266 4.37473,18.045763 0,12.030509 c 0,6.342265 -5.1414,11.483667 -11.48367,11.483667 -6.34226,0 -11.483672,-5.141402 -11.483672,-11.483667 l 0,-12.030509 -2.187362,-24.6078579 13.671034,0 c 0,0 5.98321,-0.2625932 7.10894,6.5620949 z m -106.087215,0 -4.3747298,18.045763 0,12.030509 c 0,6.342265 5.1414018,11.483667 11.4836658,11.483667 6.342266,0 11.483668,-5.141402 11.483668,-11.483667 l 0,-12.030509 2.187365,-24.6078579 -13.671033,0 c 0,0 -5.995239,-0.2266657 -7.108936,6.5620949 z m 42.65362,-6.5620949 -1.093682,24.0610169 0,12.57735 c 0,6.342265 5.141402,11.483667 11.483667,11.483667 6.342265,0 11.483667,-5.141402 11.483667,-11.483667 l 0,-12.57735 -1.093682,-24.0610169 z"
     style="color:#000000;clip-rule:nonzero;display:inline;overflow:visible;visibility:visible;opacity:1;isolation:auto;mix-blend-mode:normal;color-interpolation:sRGB;color-interpolation-filters:linearRGB;solid-color:#000000;solid-opacity:1;fill:#665888;fill-opacity:1;fill-rule:nonzero;stroke:#05020d;stroke-width:1.09368253;stroke-linecap:round;stroke-linejoin:round;stroke-miterlimit:4;stroke-dasharray:none;stroke-dashoffset:20;stroke-opacity:0.49803922;color-rendering:auto;image-rendering:auto;shape-rendering:auto;text-rendering:auto;enable-background:accumulate"
     id="path44122"
     inkscape:connector-curvature="0" />
  <circle
     r="10.389984"
     cx="18.700462"
     cy="43.076538"
     style="color:#000000;opacity:0.4;isolation:auto;mix-blend-mode:normal;solid-color:#000000;fill:none;stroke:url(#linearGradient4238);stroke-width:1.09368253;stroke-linecap:round;stroke-linejoin:round;stroke-opacity:0.39216003;color-rendering:auto;image-rendering:auto;shape-rendering:auto"
     id="path8406" />
  <circle
     r="10.389984"
     cx="41.667797"
     cy="43.076538"
     style="color:#000000;isolation:auto;mix-blend-mode:normal;solid-color:#000000;fill:none;stroke:url(#linearGradient44245);stroke-width:1.09368253;stroke-linecap:round;stroke-linejoin:round;stroke-opacity:0.39216003;color-rendering:auto;image-rendering:auto;shape-rendering:auto"
     id="use44199" />
  <use
     x="0"
     y="0"
     width="100%"
     height="100%"
     transform="translate(45.934669,0)"
     xlink:href="#path8406"
     id="use44201" />
  <circle
     r="10.389984"
     cx="87.602463"
     cy="43.076538"
     style="color:#000000;isolation:auto;mix-blend-mode:normal;solid-color:#000000;fill:none;stroke:url(#linearGradient44241);stroke-width:1.09368253;stroke-linecap:round;stroke-linejoin:round;stroke-opacity:0.39216003;color-rendering:auto;image-rendering:auto;shape-rendering:auto"
     id="use44203" />
  <use
     x="0"
     y="0"
     width="100%"
     height="100%"
     transform="translate(91.869337,0)"
     xlink:href="#path8406"
     id="use44205" />
  <path
     d="m 12.685208,13.000266 -4.3552625,17.498922 112.6383745,0 -4.3884,-17.498922 c 0,0 -0.54684,-5.5367674 -6.42539,-5.6051226 L 18.700789,7.5318537 c -5.194991,0 -6.015253,5.4684123 -6.015253,5.4684123 z"
     id="path33635"
     style="opacity:0.2;fill:#ffffff;fill-opacity:0.54167002;fill-rule:evenodd;stroke:url(#linearGradient44483);stroke-width:1.09368253px;stroke-linejoin:round"
     inkscape:connector-curvature="0" />
  <path
     d="m 8.3301645,30.499188 112.6383755,0"
     id="path44485"
     inkscape:connector-curvature="0"
     style="opacity:0.1;fill:none;stroke:#ffffff;stroke-width:1.09368253px" />
</svg>
