<?xml version="1.0" encoding="UTF-8" standalone="no"?>
<svg
   xmlns:dc="http://purl.org/dc/elements/1.1/"
   xmlns:cc="http://creativecommons.org/ns#"
   xmlns:rdf="http://www.w3.org/1999/02/22-rdf-syntax-ns#"
   xmlns:svg="http://www.w3.org/2000/svg"
   xmlns="http://www.w3.org/2000/svg"
   xmlns:xlink="http://www.w3.org/1999/xlink"
   version="1.1"
   width="16"
   height="16"
   id="svg3816">
  <defs
     id="defs3818">
    <linearGradient
       id="linearGradient4806-2-9-2">
      <stop
         id="stop4808-4-6-7"
         style="stop-color:#ffffff;stop-opacity:1"
         offset="0" />
      <stop
         id="stop4810-0-9-3"
         style="stop-color:#ffffff;stop-opacity:0.23529412"
         offset="0.42447853" />
      <stop
         id="stop4812-8-7-9"
         style="stop-color:#ffffff;stop-opacity:0.15686275"
         offset="0.82089913" />
      <stop
         id="stop4814-0-7-4"
         style="stop-color:#ffffff;stop-opacity:0.39215687"
         offset="1" />
    </linearGradient>
    <linearGradient
       xlink:href="#linearGradient4806-2-9-2"
       id="linearGradient3268"
       gradientUnits="userSpaceOnUse"
       gradientTransform="matrix(0.53899369,0,0,0.53899369,-30.902467,-7.020086)"
       x1="71.204407"
       y1="15.369057"
       x2="71.204407"
       y2="40.495617" />
    <linearGradient
       id="linearGradient1225">
      <stop
         id="stop1221"
         offset="0"
         style="stop-color:#f37329;stop-opacity:1" />
      <stop
         id="stop1223"
         offset="1"
         style="stop-color:#e95420;stop-opacity:1" />
    </linearGradient>
    <linearGradient
       gradientTransform="matrix(0.14423077,0,0,0.14423077,-1.303026,-1.518828)"
       gradientUnits="userSpaceOnUse"
       y2="118.04783"
       x2="64.5"
       y1="13.998179"
       x1="64.5"
       id="linearGradient1227"
       xlink:href="#linearGradient1225" />
  </defs>
  <metadata
     id="metadata3821">
    <rdf:RDF>
      <cc:Work
         rdf:about="">
        <dc:format>image/svg+xml</dc:format>
        <dc:type
           rdf:resource="http://purl.org/dc/dcmitype/StillImage" />
        <dc:title></dc:title>
      </cc:Work>
    </rdf:RDF>
  </metadata>
  <circle
     class="st1"
     cx="7.9998579"
     cy="8.0001411"
     r="7.5"
     id="circle7"
     style="opacity:1;fill:url(#linearGradient1227);fill-opacity:1;stroke-width:1" />
  <path
     style="opacity:0.5;color:#000000;fill:none;stroke:#a62100;stroke-width:1;stroke-opacity:1;marker:none;visibility:visible;display:inline;overflow:visible;enable-background:accumulate;stroke-linecap:round;stroke-linejoin:round;stroke-miterlimit:4;stroke-dasharray:none;stroke-dashoffset:0;font-variation-settings:normal;vector-effect:none;fill-opacity:0"
     id="path3871-0"
     d="m 7.9998579,0.500281 c -4.138162,0 -7.49985796,3.361693 -7.49985796,7.499859 0,4.138166 3.36169596,7.49986 7.49985796,7.49986 4.1381621,0 7.4998651,-3.361694 7.4998581,-7.49986 0,-4.138166 -3.361696,-7.499859 -7.4998581,-7.499859 z" />
  <path
     d="M 7.8828125,3 A 1.0001409,1.0001409 0 0 0 7.4492188,3.1113281 L 5.15625,4.2910156 a 1.0001409,1.0001409 0 0 0 -0.0625,0.035156 1.0001409,1.0001409 0 0 0 -0.00195,0 1.0001409,1.0001409 0 0 0 -0.1230469,0.050781 l -0.087891,0.042969 a 1.0001409,1.0001409 0 0 0 -0.017578,0.00977 L 2.6523438,5.5664062 A 1.0001409,1.0001409 0 0 0 2.2539062,5.9394531 1.0001409,1.0001409 0 0 0 2,6.6054688 v 2.359375 a 1.0001409,1.0001409 0 0 0 0.00586,0.099609 A 1.0001409,1.0001409 0 0 0 2,9.1699219 v 2.3574221 a 1.0001409,1.0001409 0 0 0 0.5429688,0.888672 l 2.3203124,1.191406 a 1.0001409,1.0001409 0 0 0 0.089844,0.04297 1.0001409,1.0001409 0 0 0 0.00195,0 1.0001409,1.0001409 0 0 0 0.00195,0.002 1.0001409,1.0001409 0 0 0 0.027344,0.01563 l 0.00977,0.0059 a 1.0001409,1.0001409 0 0 0 0.044922,0.02734 l 0.099609,0.05273 a 1.0001409,1.0001409 0 0 0 0.011719,0.0059 l 2.2050782,1.130859 a 1.0001409,1.0001409 0 0 0 0.5410156,0.105469 1.0001409,1.0001409 0 0 0 0.5507812,-0.105469 l 2.2050784,-1.130859 a 1.0001409,1.0001409 0 0 0 0.02344,-0.01367 l 0.04687,-0.02539 -0.04687,0.01758 a 1.0001409,1.0001409 0 0 0 0.177735,-0.0918 1.0001409,1.0001409 0 0 0 0.002,0 1.0001409,1.0001409 0 0 0 0.08398,-0.03906 l 2.314453,-1.191406 a 1.0001409,1.0001409 0 0 0 0.542969,-0.888672 V 9.1699219 A 1.0001409,1.0001409 0 0 0 13.771484,8.9492188 L 14.457031,8.5976562 A 1.0001409,1.0001409 0 0 0 15,7.7089844 V 5.3535156 A 1.0001409,1.0001409 0 0 0 14.736328,4.6777344 1.0001409,1.0001409 0 0 0 14.347656,4.3203125 L 12.0625,3.1464844 a 1.0001409,1.0001409 0 0 0 -0.914062,-0.00195 L 9.7851562,3.84375 8.3652344,3.1113281 A 1.0001409,1.0001409 0 0 0 7.8828125,3 Z"
     id="path9-3-6"
     style="font-variation-settings:normal;opacity:0.05;vector-effect:none;fill:#8f1c00;fill-opacity:1;stroke-width:1;stroke-linecap:butt;stroke-linejoin:miter;stroke-miterlimit:4;stroke-dasharray:none;stroke-dashoffset:0;stroke-opacity:1" />
  <path
     style="opacity:0.15;fill:#8d1c00;stroke-width:1;font-variation-settings:normal;vector-effect:none;fill-opacity:1;stroke-linecap:butt;stroke-linejoin:miter;stroke-miterlimit:4;stroke-dasharray:none;stroke-dashoffset:0;stroke-opacity:1"
     d="M 7.9061544,3.999959 5.6126996,5.179364 7.9061544,6.3584256 9.0582533,5.7553602 V 5.1683996 c 0,-0.010822 1.371e-4,-0.016202 0.00537,-0.02159 0,0 -2.061e-4,-0.00511 0.00501,-0.00511 0,-0.00535 0.00537,-0.0107 0.00537,-0.016104 0,-0.00535 0.005,-0.00547 0.005,-0.00547 l 0.010725,-0.010944 0.005,-0.00511 0.00537,-0.00547 h 0.010373 L 9.5763908,4.8618207 Z m 3.6996746,0.035299 -1.6636958,0.8525164 -0.099027,0.0538 -0.099027,0.048314 -0.4226375,0.2196402 0.4226375,0.2144988 0.099027,0.0538 0.099027,0.048314 0.3336788,0.171668 0.08896,0.048314 0.08862,0.042828 1.152436,0.5951846 2.284727,-1.1746075 z m -6.1972308,1.2410818 -0.088958,0.042827 -2.2095319,1.13623 2.1833474,1.1256085 0.026181,0.010589 0.088958,0.04317 0.088958,-0.04317 L 7.7020496,6.4553594 6.6130613,5.8954678 6.1991516,5.6854222 Z m 3.8034027,0.072642 v 1.7108555 l 1.0638111,0.5472148 0.08896,0.048314 0.04162,0.02125 h 0.01037 c 0.0052,0 0.005,0.00547 0.005,0.00547 0.0052,0 0.0054,0.00546 0.0054,0.00546 l 0.01037,0.010589 0.0054,0.00547 c 0.0052,0.00535 0.005,0.0107 0.005,0.016104 0,0 1.68e-4,0.00511 0.0054,0.00511 0,0.00535 0.005,0.015996 0.005,0.026723 l -0.005,0.059274 v 0.5362531 l 1.063795,0.5468717 V 6.5450743 l -1.063812,-0.5472134 -0.08862,-0.048314 -0.08896,-0.048314 -0.5317381,-0.2734352 -0.099361,-0.053459 -0.099027,-0.0538 z m 4.7879911,0.00547 -2.305206,1.1907122 v 2.3488718 l 0.33368,-0.171668 0.09903,-0.053458 0.09903,-0.048314 L 14,7.7088087 Z M 9.0582533,5.9654009 8.1001851,6.4553918 9.0582533,6.950866 Z m -1.1762694,0.6225979 -0.088624,0.048314 -2.1957693,1.1262947 1.0429983,0.536248 1.152771,0.5951845 0.088624,0.042828 0.088624,-0.042828 1.5750722,-0.8096832 0.099028,-0.0538 0.09936,-0.048314 L 10.166371,7.7626036 9.211996,7.2743255 9.123372,7.2263521 9.0347478,7.1831833 7.9705998,6.6363116 Z m -4.8819841,0.01816 v 2.3588095 l 0.010362,0.00546 0.099695,0.048314 2.2095319,1.1362297 V 7.7965196 l -0.010362,-0.00547 -0.1047353,-0.0538 z m 2.4878216,1.3065283 v 2.3492149 l 0.010362,0.0051 0.099361,0.04831 1.0429994,0.536248 1.1527699,0.595528 V 9.0978845 l -0.010362,-0.00547 -0.099361,-0.053459 -1.0846244,-0.557836 z m 4.7879906,0 -0.3336788,0.1716681 -0.099027,0.048314 -0.099027,0.053459 -1.6640303,0.8528581 -0.099027,0.053458 -0.010362,0.00547 v 2.3492207 l 2.1957681,-1.131776 0.09903,-0.04831 0.01037,-0.0051 z m 0.211822,0.6106035 v 1.6262224 l 2.204497,-1.1362316 -0.42398,-0.2206668 -0.58142,0.3015334 c -0.0053,0 -0.0052,9.12e-5 -0.01034,0.00547 h -0.0054 c -0.01571,0.010822 -0.026,0.010589 -0.03122,0.010589 -0.0053,0 -0.01589,-9.26e-5 -0.02115,-0.00547 h -0.0049 c -0.0053,0 -0.0052,2.457e-4 -0.01034,-0.00511 z M 2.9999998,9.1695309 v 2.3584671 l 2.3196394,1.190369 v -2.35881 z m 9.7968682,0 -2.314269,1.1900261 v 2.35881 l 2.314269,-1.190369 z M 5.497556,10.451046 v 2.358807 l 0.010362,0.0056 0.099707,0.0538 L 7.8121208,14 v -2.358501 l -0.010725,-0.0056 -0.099361,-0.0538 z m 4.80679,0 -2.2041609,1.13109 -0.099695,0.0538 -0.010362,0.0056 v 2.358423 l 2.2044959,-1.130749 0.09936,-0.0538 0.01036,-0.0056 z"
     id="path9-3" />
  <path
     style="opacity:1;fill:#ffffff;stroke-width:0.99999994"
     d="M 7.9061544,2.9999591 5.6126996,4.1793641 7.9061544,5.3584257 9.0582533,4.7553603 V 4.1683997 c 0,-0.010822 1.371e-4,-0.016202 0.00537,-0.02159 0,0 -2.061e-4,-0.00511 0.00501,-0.00511 0,-0.00535 0.00537,-0.0107 0.00537,-0.016104 0,-0.00535 0.005,-0.00547 0.005,-0.00547 l 0.010725,-0.010944 0.005,-0.00511 0.00537,-0.00547 h 0.010373 L 9.5763908,3.8618208 Z m 3.6996746,0.035299 -1.6636958,0.8525164 -0.099027,0.0538 -0.099027,0.048314 -0.4226375,0.2196402 0.4226375,0.2144988 0.099027,0.0538 0.099027,0.048314 0.3336788,0.171668 0.08896,0.048314 0.08862,0.042828 1.152436,0.5951846 2.284727,-1.1746075 z m -6.1972308,1.2410818 -0.088958,0.042827 -2.2095319,1.13623 2.1833474,1.1256085 0.026181,0.010589 0.088958,0.04317 0.088958,-0.04317 L 7.7020496,5.4553595 6.6130613,4.8954679 6.1991516,4.6854223 Z m 3.8034027,0.072642 v 1.7108555 l 1.0638111,0.5472148 0.08896,0.048314 0.04162,0.02125 h 0.01037 c 0.0052,0 0.005,0.00547 0.005,0.00547 0.0052,0 0.0054,0.00546 0.0054,0.00546 l 0.01037,0.010589 0.0054,0.00547 c 0.0052,0.00535 0.005,0.0107 0.005,0.016104 0,0 1.68e-4,0.00511 0.0054,0.00511 0,0.00535 0.005,0.015996 0.005,0.026723 l -0.005,0.059274 V 7.3470693 L 11.517127,7.893941 V 5.5450744 L 10.453315,4.997861 10.364695,4.949547 10.275735,4.9012331 9.7439969,4.6277979 l -0.099361,-0.053459 -0.099027,-0.0538 z m 4.7879911,0.00547 -2.305206,1.1907122 v 2.3488718 l 0.33368,-0.171668 0.09903,-0.053458 0.09903,-0.048314 L 14,6.7088088 Z M 9.0582533,4.965401 8.1001851,5.4553919 9.0582533,5.9508661 Z m -1.1762694,0.6225979 -0.088624,0.048314 -2.1957693,1.1262947 1.0429983,0.536248 1.152771,0.5951845 0.088624,0.042828 0.088624,-0.042828 1.5750722,-0.8096832 0.099028,-0.0538 0.09936,-0.048314 L 10.166371,6.7626037 9.211996,6.2743256 9.123372,6.2263522 9.0347478,6.1831834 7.9705998,5.6363117 Z m -4.8819841,0.01816 v 2.3588095 l 0.010362,0.00546 0.099695,0.048314 2.2095319,1.1362299 V 6.7965197 l -0.010362,-0.00547 -0.1047353,-0.0538 z m 2.4878216,1.3065283 v 2.3492149 l 0.010362,0.00511 0.099361,0.048314 1.0429994,0.5362483 1.1527699,0.5955276 V 8.0978846 l -0.010362,-0.00547 -0.099361,-0.053459 -1.0846244,-0.557836 z m 4.7879906,0 -0.3336788,0.1716681 -0.099027,0.048314 -0.099027,0.053459 -1.6640303,0.8528581 -0.099027,0.053458 -0.010362,0.00547 v 2.3492206 l 2.1957681,-1.1317764 0.09903,-0.048314 0.01037,-0.00511 z m 0.211822,0.6106035 v 1.6262219 l 2.204497,-1.1362311 -0.42398,-0.2206668 -0.58142,0.3015334 c -0.0053,0 -0.0052,9.12e-5 -0.01034,0.00547 h -0.0054 c -0.01571,0.010822 -0.026,0.010589 -0.03122,0.010589 -0.0053,0 -0.01589,-9.26e-5 -0.02115,-0.00547 h -0.0049 c -0.0053,0 -0.0052,2.457e-4 -0.01034,-0.00511 z M 2.9999998,8.169531 v 2.358467 l 2.3196394,1.190369 V 9.3595571 Z m 9.7968682,0 -2.314269,1.1900261 v 2.3588099 l 2.314269,-1.190369 z M 5.497556,9.4510459 v 2.3588071 l 0.010362,0.0056 0.099707,0.0538 L 7.8121208,13 v -2.358501 l -0.010725,-0.0056 -0.099361,-0.0538 z m 4.80679,0 -2.2041609,1.1310901 -0.099695,0.0538 -0.010362,0.0056 v 2.358423 l 2.2044959,-1.130749 0.09936,-0.0538 0.01036,-0.0056 z"
     id="path9" />
  <path
     style="opacity:0.4;color:#000000;fill:none;stroke:url(#linearGradient3268);stroke-width:0.99999982;stroke-linecap:round;stroke-linejoin:round;stroke-miterlimit:4;stroke-opacity:1;stroke-dasharray:none;stroke-dashoffset:0;marker:none;visibility:visible;display:inline;overflow:visible;enable-background:accumulate"
     id="path4176-3"
     d="M 14.5,8.0000001 C 14.5,11.589853 11.589854,14.5 7.9999934,14.5 4.4101457,14.5 1.5,11.589853 1.5,8.0000001 1.5,4.4101466 4.4101457,1.5 7.9999934,1.5 11.589854,1.5 14.5,4.4101466 14.5,8.0000001 z" />
</svg>
