<?xml version="1.0" encoding="UTF-8" standalone="no"?>
<svg
   xmlns:dc="http://purl.org/dc/elements/1.1/"
   xmlns:cc="http://creativecommons.org/ns#"
   xmlns:rdf="http://www.w3.org/1999/02/22-rdf-syntax-ns#"
   xmlns:svg="http://www.w3.org/2000/svg"
   xmlns="http://www.w3.org/2000/svg"
   xmlns:xlink="http://www.w3.org/1999/xlink"
   version="1.1"
   width="32"
   height="32"
   id="svg4505">
  <defs
     id="defs4507">
    <linearGradient
       id="linearGradient3820-7-2-2">
      <stop
         id="stop3822-2-6-36"
         style="stop-color:#3d3d3d;stop-opacity:1"
         offset="0" />
      <stop
         id="stop3864-8-7-6"
         style="stop-color:#686868;stop-opacity:0.49803922"
         offset="0.5" />
      <stop
         id="stop3824-1-2-4"
         style="stop-color:#686868;stop-opacity:0"
         offset="1" />
    </linearGradient>
    <radialGradient
       cx="99.157013"
       cy="186.17059"
       r="62.769119"
       fx="99.157013"
       fy="186.17059"
       id="radialGradient3043"
       xlink:href="#linearGradient3820-7-2-2"
       gradientUnits="userSpaceOnUse"
       gradientTransform="matrix(0.17524541,0,0,0.05575992,-1.37681,18.119145)" />
    <linearGradient
       id="linearGradient4806-2-9">
      <stop
         offset="0"
         style="stop-color:#ffffff;stop-opacity:1"
         id="stop4808-4-6" />
      <stop
         offset="0.42447853"
         style="stop-color:#ffffff;stop-opacity:0.23529412"
         id="stop4810-0-9" />
      <stop
         offset="0.82089913"
         style="stop-color:#ffffff;stop-opacity:0.15686275"
         id="stop4812-8-7" />
      <stop
         offset="1"
         style="stop-color:#ffffff;stop-opacity:0.39215687"
         id="stop4814-0-7" />
    </linearGradient>
    <linearGradient
       xlink:href="#linearGradient4806-2-9"
       id="linearGradient4855"
       gradientUnits="userSpaceOnUse"
       gradientTransform="matrix(1.1194484,0,0,1.1194484,-64.797586,-15.19541)"
       x1="71.204407"
       y1="15.369057"
       x2="71.204407"
       y2="40.495617" />
    <linearGradient
       id="linearGradient1225">
      <stop
         id="stop1221"
         offset="0"
         style="stop-color:#f37329;stop-opacity:1" />
      <stop
         id="stop1223"
         offset="1"
         style="stop-color:#e95420;stop-opacity:1" />
    </linearGradient>
    <linearGradient
       gradientTransform="matrix(0.27884615,0,0,0.27884615,-1.985726,-2.403187)"
       gradientUnits="userSpaceOnUse"
       y2="118.04783"
       x2="64.5"
       y1="13.998179"
       x1="64.5"
       id="linearGradient1227"
       xlink:href="#linearGradient1225" />
  </defs>
  <metadata
     id="metadata4510">
    <rdf:RDF>
      <cc:Work
         rdf:about="">
        <dc:format>image/svg+xml</dc:format>
        <dc:type
           rdf:resource="http://purl.org/dc/dcmitype/StillImage" />
        <dc:title></dc:title>
      </cc:Work>
    </rdf:RDF>
  </metadata>
  <path
     d="m 27.000001,28.499999 a 11,3.4999999 0 1 1 -21.9999996,0 11,3.4999999 0 1 1 21.9999996,0 z"
     id="path3818-0-2"
     style="fill:url(#radialGradient3043);fill-opacity:1;stroke:none" />
  <circle
     class="st1"
     cx="15.999851"
     cy="16.000151"
     r="14.5"
     id="circle7"
     style="opacity:1;fill:url(#linearGradient1227);fill-opacity:1;stroke-width:1" />
  <path
     d="m 29.499852,16.00015 c 0,7.45585 -6.04416,13.5 -13.50001,13.5 -7.45584,0 -13.499992,-6.04415 -13.499992,-13.5 0,-7.45585 6.044152,-13.5 13.499992,-13.5 7.45585,0 13.50001,6.04415 13.50001,13.5 z"
     id="path4176"
     style="opacity:0.4;color:#000000;fill:none;stroke:url(#linearGradient4855);stroke-width:0.99999988;stroke-linecap:round;stroke-linejoin:round;stroke-miterlimit:4;stroke-opacity:1;stroke-dasharray:none;stroke-dashoffset:0;marker:none;visibility:visible;display:inline;overflow:visible;enable-background:accumulate" />
  <path
     d="M 15.999852,1.5003 C 7.999332,1.5003 1.5,7.99963 1.5,16.00015 1.5,24.00067 7.999332,30.5 15.999852,30.5 c 8.00052,0 14.49986,-6.49933 14.49985,-14.49985 0,-8.00052 -6.49933,-14.49985 -14.49985,-14.49985 z"
     id="path3871"
     style="opacity:0.5;color:#000000;fill:none;stroke:#a62100;stroke-width:1;stroke-opacity:1;marker:none;visibility:visible;display:inline;overflow:visible;enable-background:accumulate;font-variation-settings:normal;vector-effect:none;fill-opacity:0;stroke-linecap:round;stroke-linejoin:round;stroke-miterlimit:4;stroke-dasharray:none;stroke-dashoffset:0" />
  <path
     d="m 15.994141,8 a 1.0001165,1.0001165 0 0 0 -0.416016,0.1074219 l -3.751953,1.8867187 a 1.0001165,1.0001165 0 0 0 -0.134766,0.082031 1.0001165,1.0001165 0 0 0 -0.173828,0.06055 l -0.146484,0.06836 a 1.0001165,1.0001165 0 0 0 -0.02539,0.01367 L 7.7304688,12.037109 A 1.0001165,1.0001165 0 0 0 7.296875,12.458984 1.0001165,1.0001165 0 0 0 7,13.169922 v 3.773437 A 1.0001165,1.0001165 0 0 0 7.015625,17.107422 1.0001165,1.0001165 0 0 0 7,17.271484 v 3.773438 a 1.0001165,1.0001165 0 0 0 0.5507812,0.894531 l 3.7949218,1.904297 a 1.0001165,1.0001165 0 0 0 0.150391,0.05859 1.0001165,1.0001165 0 0 0 0.103515,0.06836 l 0.01758,0.0098 a 1.0001165,1.0001165 0 0 0 0.02148,0.01172 l 0.164062,0.08594 a 1.0001165,1.0001165 0 0 0 0.01758,0.0078 l 3.607422,1.808593 a 1.0001165,1.0001165 0 0 0 0.589844,0.09375 1.0001165,1.0001165 0 0 0 0.595703,-0.09375 l 3.607422,-1.808593 a 1.0001165,1.0001165 0 0 0 0.02148,-0.01172 l 0.162109,-0.08594 a 1.0001165,1.0001165 0 0 0 0.01758,-0.0078 l 0.01758,-0.0098 a 1.0001165,1.0001165 0 0 0 0.105469,-0.06836 1.0001165,1.0001165 0 0 0 0.148437,-0.06055 L 24.480469,21.9375 A 1.0001165,1.0001165 0 0 0 25.03125,21.044922 V 17.271484 A 1.0001165,1.0001165 0 0 0 24.8125,16.648438 l 1.636719,-0.822266 A 1.0001165,1.0001165 0 0 0 27,14.933594 v -3.765625 a 1.0001165,1.0001165 0 0 0 -0.310547,-0.72461 1.0001165,1.0001165 0 0 0 -0.419922,-0.40039 L 22.53125,8.1640625 a 1.0001165,1.0001165 0 0 0 -0.896484,-0.00195 L 19.101562,9.4296875 16.478516,8.1074219 A 1.0001165,1.0001165 0 0 0 15.994141,8 Z"
     id="path9-3-6"
     style="font-variation-settings:normal;opacity:0.05;vector-effect:none;fill:#8f1c00;fill-opacity:1;stroke-width:1;stroke-linecap:butt;stroke-linejoin:miter;stroke-miterlimit:4;stroke-dasharray:none;stroke-dashoffset:0;stroke-opacity:1" />
  <path
     style="opacity:0.15;fill:#8d1c00;stroke-width:1;font-variation-settings:normal;vector-effect:none;fill-opacity:1;stroke-linecap:butt;stroke-linejoin:miter;stroke-miterlimit:4;stroke-dasharray:none;stroke-dashoffset:0;stroke-opacity:1"
     d="m 16.028258,8.999984 -3.752929,1.88706 3.752929,1.886512 1.885255,-0.964913 V 10.8695 c 0,-0.01722 2.25e-4,-0.02592 0.0088,-0.03454 0,0 -2.82e-4,-0.0083 0.0083,-0.0083 0,-0.0086 0.0088,-0.01715 0.0088,-0.02577 0,-0.0087 0.0083,-0.0088 0.0083,-0.0088 l 0.01758,-0.01755 0.0083,-0.0083 0.0088,-0.0087 h 0.01702 l 0.76236,-0.378803 z m 6.054015,0.056474 -2.722409,1.364034 -0.162048,0.08608 -0.162051,0.0773 -0.691588,0.351425 0.691588,0.343202 0.162051,0.08607 0.162048,0.0773 0.546019,0.274671 0.145569,0.0773 0.14502,0.06854 1.885801,0.952302 3.738648,-1.879385 z m -10.140929,1.985744 -0.145568,0.06854 -3.6156,1.817981 3.572753,1.800986 0.04285,0.017 0.145568,0.06908 0.14557,-0.06908 3.607361,-1.81798 -1.781983,-0.895832 -0.677308,-0.336074 z m 6.223755,0.116227 v 2.737388 l 1.740784,0.875547 0.145569,0.0773 0.06811,0.03399 h 0.01705 c 0.0085,0 0.0083,0.0088 0.0083,0.0088 0.0085,0 0.0088,0.0088 0.0088,0.0088 l 0.01705,0.017 0.0088,0.0088 c 0.0085,0.0086 0.0083,0.01719 0.0083,0.02577 0,0 2.75e-4,0.0083 0.0088,0.0083 0,0.0086 0.0083,0.02559 0.0083,0.04277 l -0.0083,0.09485 v 0.858002 l 1.740783,0.875 v -3.758329 l -1.740783,-0.875548 -0.145021,-0.0773 -0.145567,-0.0773 -0.870117,-0.437499 -0.162599,-0.08552 -0.162048,-0.08607 z m 7.8349,0.0088 -3.772156,1.905152 v 3.758221 l 0.546021,-0.274672 0.162048,-0.08552 0.162048,-0.0773 2.902039,-1.45888 z m -8.086486,0.977521 -1.56775,0.783991 1.56775,0.792762 z m -1.924805,0.996161 -0.145019,0.0773 -3.593079,1.802083 1.706726,0.858002 1.886353,0.952303 0.145019,0.06854 0.14502,-0.06854 2.577393,-1.295504 0.162048,-0.08608 0.162596,-0.0773 0.69104,-0.351424 L 18.165099,14.23904 18.020082,14.16228 17.87506,14.09321 16.133728,13.218211 Z M 8,13.169957 v 3.774121 l 0.017026,0.0088 0.1631464,0.0773 3.6156006,1.817979 v -3.773549 l -0.01703,-0.0088 -0.171387,-0.08608 z m 4.070983,2.09046 v 3.758768 l 0.01703,0.0083 0.162598,0.0773 1.706726,0.858003 1.886352,0.952851 v -3.758823 l -0.01703,-0.0088 -0.162597,-0.08552 -1.774841,-0.892542 z m 7.8349,0 -0.546019,0.27467 -0.162048,0.0773 -0.162051,0.08552 -2.722961,1.364581 -0.162048,0.08552 -0.01703,0.0088 v 3.758769 l 3.593078,-1.810853 0.162048,-0.0773 0.01702,-0.0083 z m 0.34662,0.976973 v 2.601971 l 3.60736,-1.81798 -0.693787,-0.353071 -0.951415,0.482456 c -0.0086,0 -0.0085,1.46e-4 -0.01702,0.0088 h -0.0088 c -0.02571,0.01724 -0.04255,0.017 -0.05109,0.017 -0.0086,0 -0.02601,-1.49e-4 -0.03461,-0.0088 h -0.0083 c -0.0086,0 -0.0085,3.94e-4 -0.01705,-0.0083 z M 8,17.271354 v 3.773571 l 3.795776,1.904603 v -3.774119 z m 16.031249,0 -3.786986,1.904055 v 3.774119 l 3.786986,-1.904603 z m -11.944335,2.050437 v 3.774119 l 0.01703,0.0088 0.163147,0.08607 3.60736,1.80921 v -3.773572 l -0.01758,-0.0088 -0.162596,-0.08608 z m 7.865662,0 -3.606813,1.809757 -0.163146,0.08608 -0.01703,0.0088 V 25 l 3.607359,-1.809209 0.1626,-0.08607 0.01705,-0.0088 z"
     id="path9-3" />
  <path
     style="opacity:1;fill:#ffffff;stroke-width:0.99999994"
     d="m 16.028258,7.999984 -3.752929,1.8870601 3.752929,1.8865119 1.885255,-0.964913 V 9.8695001 c 0,-0.017223 2.25e-4,-0.025921 0.0088,-0.034539 0,0 -2.82e-4,-0.00825 0.0083,-0.00825 0,-0.00865 0.0088,-0.017153 0.0088,-0.025771 0,-0.00865 0.0083,-0.00875 0.0083,-0.00875 l 0.01758,-0.017546 0.0083,-0.00825 0.0088,-0.00875 h 0.01702 l 0.76236,-0.3788027 z m 6.054015,0.056474 -2.722409,1.364034 -0.162048,0.086079 -0.162051,0.077301 -0.691588,0.351425 0.691588,0.343202 0.162051,0.08607 0.162048,0.0773 0.546019,0.274671 0.145569,0.0773 0.14502,0.06854 1.885801,0.952302 3.738648,-1.879385 z m -10.140929,1.985744 -0.145568,0.06854 -3.6156,1.817981 3.572753,1.800986 0.04285,0.017 0.145568,0.06908 0.14557,-0.06908 3.607361,-1.81798 -1.781983,-0.895832 -0.677308,-0.336074 z m 6.223755,0.116227 v 2.737388 l 1.740784,0.875547 0.145569,0.0773 0.06811,0.03399 h 0.01705 c 0.0085,0 0.0083,0.0088 0.0083,0.0088 0.0085,0 0.0088,0.0088 0.0088,0.0088 l 0.01705,0.017 0.0088,0.0088 c 0.0085,0.0086 0.0083,0.01719 0.0083,0.02577 0,0 2.75e-4,0.0083 0.0088,0.0083 0,0.0086 0.0083,0.02559 0.0083,0.04277 l -0.0083,0.09485 v 0.858002 l 1.740783,0.875 v -3.758329 l -1.740783,-0.875548 -0.145021,-0.0773 -0.145567,-0.0773 -0.870117,-0.437499 -0.162599,-0.08552 -0.162048,-0.08607 z m 7.8349,0.0088 -3.772156,1.905152 v 3.758221 l 0.546021,-0.274672 0.162048,-0.08552 0.162048,-0.0773 2.902039,-1.45888 z m -8.086486,0.977521 -1.56775,0.783991 1.56775,0.792762 z m -1.924805,0.996161 -0.145019,0.0773 -3.593079,1.802083 1.706726,0.858002 1.886353,0.952303 0.145019,0.06854 0.14502,-0.06854 2.577393,-1.295504 0.162048,-0.08608 0.162596,-0.0773 0.69104,-0.351424 L 18.165099,13.23904 18.020082,13.16228 17.87506,13.09321 16.133728,12.218211 Z M 8,12.169957 v 3.774121 l 0.017026,0.0088 0.1631464,0.0773 3.6156006,1.817979 v -3.773549 l -0.01703,-0.0088 -0.171387,-0.08608 z m 4.070983,2.09046 v 3.758768 l 0.01703,0.0083 0.162598,0.0773 1.706726,0.858003 1.886352,0.952851 v -3.758823 l -0.01703,-0.0088 -0.162597,-0.08552 -1.774841,-0.892542 z m 7.8349,0 -0.546019,0.27467 -0.162048,0.0773 -0.162051,0.08552 -2.722961,1.364581 -0.162048,0.08552 -0.01703,0.0088 v 3.758769 l 3.593078,-1.810853 0.162048,-0.0773 0.01702,-0.0083 z m 0.34662,0.976973 v 2.601971 l 3.60736,-1.81798 -0.693787,-0.353071 -0.951415,0.482456 c -0.0086,0 -0.0085,1.46e-4 -0.01702,0.0088 h -0.0088 c -0.02571,0.01724 -0.04255,0.017 -0.05109,0.017 -0.0086,0 -0.02601,-1.49e-4 -0.03461,-0.0088 h -0.0083 c -0.0086,0 -0.0085,3.94e-4 -0.01705,-0.0083 z M 8,16.271354 v 3.773571 l 3.795776,1.904603 v -3.774119 z m 16.031249,0 -3.786986,1.904055 v 3.774119 l 3.786986,-1.904603 z m -11.944335,2.050437 v 3.774119 l 0.01703,0.0088 0.163147,0.08607 3.60736,1.80921 v -3.773572 l -0.01758,-0.0088 -0.162596,-0.08608 z m 7.865662,0 -3.606813,1.809757 -0.163146,0.08608 -0.01703,0.0088 V 24 l 3.607359,-1.809209 0.1626,-0.08607 0.01705,-0.0088 z"
     id="path9" />
</svg>
