<?xml version="1.0" encoding="UTF-8" standalone="no"?>
<svg
   xmlns:dc="http://purl.org/dc/elements/1.1/"
   xmlns:cc="http://creativecommons.org/ns#"
   xmlns:rdf="http://www.w3.org/1999/02/22-rdf-syntax-ns#"
   xmlns:svg="http://www.w3.org/2000/svg"
   xmlns="http://www.w3.org/2000/svg"
   xmlns:xlink="http://www.w3.org/1999/xlink"
   xmlns:sodipodi="http://sodipodi.sourceforge.net/DTD/sodipodi-0.dtd"
   xmlns:inkscape="http://www.inkscape.org/namespaces/inkscape"
   version="1.1"
   width="128"
   height="128"
   id="svg5157"
   sodipodi:docname="ubuntu-web-browser.svg"
   inkscape:version="0.91 r13725">
  <sodipodi:namedview
     pagecolor="#ffffff"
     bordercolor="#666666"
     inkscape:document-rotation="0"
     borderopacity="1"
     objecttolerance="10"
     gridtolerance="10"
     guidetolerance="10"
     inkscape:pageopacity="0"
     inkscape:pageshadow="2"
     inkscape:window-width="2560"
     inkscape:window-height="1329"
     id="namedview34"
     showgrid="false"
     inkscape:zoom="3.671875"
     inkscape:cx="112.45755"
     inkscape:cy="2.5679974"
     inkscape:window-x="2116"
     inkscape:window-y="30"
     inkscape:window-maximized="1"
     inkscape:current-layer="svg5157" />
  <defs
     id="defs5159">
    <linearGradient
       id="linearGradient1225">
      <stop
         id="stop1221"
         offset="0"
         style="stop-color:#f37329;stop-opacity:1" />
      <stop
         id="stop1223"
         offset="1"
         style="stop-color:#e95420;stop-opacity:1" />
    </linearGradient>
    <linearGradient
       id="linearGradient3820-7-2-8-6">
      <stop
         id="stop3822-2-6-5-0"
         style="stop-color:#3d3d3d;stop-opacity:1"
         offset="0" />
      <stop
         id="stop3864-8-7-4-1"
         style="stop-color:#686868;stop-opacity:0.49803922"
         offset="0.5" />
      <stop
         id="stop3824-1-2-6-7"
         style="stop-color:#686868;stop-opacity:0"
         offset="1" />
    </linearGradient>
    <linearGradient
       id="linearGradient4806">
      <stop
         offset="0"
         style="stop-color:#ffffff;stop-opacity:1"
         id="stop4808" />
      <stop
         offset="0.42447853"
         style="stop-color:#ffffff;stop-opacity:0.23529412"
         id="stop4810" />
      <stop
         offset="0.82089913"
         style="stop-color:#ffffff;stop-opacity:0.15686275"
         id="stop4812" />
      <stop
         offset="1"
         style="stop-color:#ffffff;stop-opacity:0.39215687"
         id="stop4814" />
    </linearGradient>
    <linearGradient
       xlink:href="#linearGradient4806"
       id="linearGradient3118"
       gradientUnits="userSpaceOnUse"
       gradientTransform="matrix(4.16388,0,0,4.16388,-236.03265,-50.036246)"
       x1="71.204407"
       y1="15.369057"
       x2="71.204407"
       y2="40.495617" />
    <radialGradient
       xlink:href="#linearGradient3820-7-2-8-6"
       id="radialGradient3163"
       gradientUnits="userSpaceOnUse"
       gradientTransform="matrix(0.6869404,0,0,0.21461693,-4.02174,68.573331)"
       cx="99.157013"
       cy="186.17059"
       fx="99.157013"
       fy="186.17059"
       r="62.769119" />
    <linearGradient
       gradientUnits="userSpaceOnUse"
       y2="118.04783"
       x2="64.5"
       y1="13.998179"
       x1="64.5"
       id="linearGradient1227"
       xlink:href="#linearGradient1225" />
  </defs>
  <metadata
     id="metadata5162">
    <rdf:RDF>
      <cc:Work
         rdf:about="">
        <dc:format>image/svg+xml</dc:format>
        <dc:type
           rdf:resource="http://purl.org/dc/dcmitype/StillImage" />
        <dc:title />
      </cc:Work>
    </rdf:RDF>
  </metadata>
  <path
     style="fill:url(#radialGradient3163);fill-opacity:1;stroke:none"
     id="path3818-0-5-0"
     d="m 107.21186,108.52868 a 43.118644,13.471312 0 1 1 -86.237286,0 43.118644,13.471312 0 1 1 86.237286,0 z" />
  <circle
     style="opacity:1;fill:url(#linearGradient1227);stroke-width:1;fill-opacity:1"
     id="circle7"
     r="52"
     cy="65.998177"
     cx="64.5"
     class="st1" />
  <path
     style="opacity:0.5;color:#000000;fill:none;fill-opacity:0;fill-rule:nonzero;stroke:#a62100;stroke-width:1;stroke-linecap:round;stroke-linejoin:round;stroke-miterlimit:4;stroke-opacity:1;stroke-dasharray:none;stroke-dashoffset:0;marker:none;visibility:visible;display:inline;overflow:visible;enable-background:accumulate"
     id="path2555-7-1"
     d="m 64.5,13.998179 c -28.691806,0 -52.000001,23.308189 -52.000001,51.999997 0,28.691808 23.308195,52.000014 52.000001,52.000004 28.691802,0 52.00002,-23.308196 52,-52.000004 0,-28.691808 -23.308198,-51.999997 -52,-51.999997 z" />
  <path
     style="opacity:0.4;color:#000000;fill:none;stroke:url(#linearGradient3118);stroke-width:1;stroke-linecap:round;stroke-linejoin:round;stroke-miterlimit:4;stroke-opacity:1;stroke-dasharray:none;stroke-dashoffset:0;marker:none;visibility:visible;display:inline;overflow:visible;enable-background:accumulate"
     id="path3019"
     d="m 115.5,65.998181 c 0,28.166516 -22.833502,50.999989 -51.000026,50.999989 -28.166487,0 -50.999973,-22.833473 -50.999973,-50.999989 0,-28.166517 22.833486,-50.999991 50.999973,-50.999991 28.166524,0 51.000026,22.833474 51.000026,50.999991 z" />
  <path
     d="m 60.545543,114.71504 c -0.260529,-0.0392 -0.483915,-0.16614 -0.499907,-0.27705 -0.01393,-0.11345 -0.03251,-0.28479 -0.04385,-0.3828 -0.02786,-0.23938 -1.233005,-1.29492 -2.023881,-1.77366 -0.399309,-0.23939 -0.719168,-0.60723 -0.850206,-0.97506 -0.118137,-0.32502 -0.27704,-0.59175 -0.352877,-0.59175 -0.07428,0 -0.134647,-0.11091 -0.134647,-0.2471 0,-0.13776 -0.163542,-0.36166 -0.36268,-0.50404 -0.197589,-0.13775 -0.311088,-0.33482 -0.248147,-0.43595 0.07068,-0.11349 0.01135,-0.14342 -0.153739,-0.082 -0.195012,0.0768 -0.26569,-0.0105 -0.26569,-0.31315 0,-0.26208 -0.296128,-0.72432 -0.792425,-1.24591 -0.818735,-0.84969 -1.170063,-1.89438 -0.799647,-2.36539 0.09441,-0.11815 0.220291,-0.42563 0.28323,-0.68359 0.0619,-0.25692 0.344106,-0.6397 0.624756,-0.84916 0.609796,-0.44988 0.627337,-0.61599 0.151161,-1.42234 -0.199138,-0.33741 -0.316248,-0.72898 -0.2595,-0.87652 0.05519,-0.14342 -0.21771,-0.91934 -0.608247,-1.717956 -0.526735,-1.085458 -0.953386,-1.680292 -1.672554,-2.33755 -0.867745,-0.790877 -1.73807,-1.987769 -1.73807,-2.39172 0,-0.08204 0.11711,-0.153737 0.257949,-0.153737 0.174891,0 0.2595,-0.179018 0.263111,-0.556659 0.0037,-0.307477 0.118138,-0.707816 0.257951,-0.891993 0.448318,-0.594318 0.183659,-1.812879 -0.292001,-1.340313 -0.117109,0.119179 -0.312121,0.2141 -0.436969,0.2141 -0.316247,0 -0.277039,-0.504035 0.05056,-0.628884 0.49733,-0.191399 -0.122274,-0.396729 -1.216495,-0.401372 -0.566975,-0.0025 -1.117443,-0.06294 -1.223202,-0.131037 -0.105765,-0.07224 -0.396728,-0.528799 -0.642298,-1.019423 -0.393117,-0.779526 -0.535505,-0.909533 -1.098353,-1.015293 -0.864136,-0.161992 -1.924313,-0.159929 -3.477693,0.0068 -1.207724,0.131037 -1.343922,0.109376 -2.147696,-0.321406 -0.664998,-0.35494 -1.190185,-0.481335 -2.318979,-0.55511 -1.671521,-0.112472 -1.81133,-0.200685 -3.312603,-2.116228 -0.482368,-0.613406 -1.229393,-1.439881 -1.658624,-1.838672 -0.512805,-0.476176 -0.716587,-0.769726 -0.590707,-0.858975 0.307477,-0.2141 0.07428,-1.162842 -0.423039,-1.72208 -0.250727,-0.282199 -0.554078,-0.657258 -0.672735,-0.833698 -0.119692,-0.180049 -0.374029,-0.557688 -0.565429,-0.838854 -0.25795,-0.382798 -0.314699,-0.647456 -0.222869,-1.030255 0.06913,-0.284778 0.132079,-0.900248 0.136198,-1.372815 0.0063,-0.547886 0.108335,-0.949775 0.282198,-1.115894 0.361647,-0.342559 0.716587,-1.201536 0.497329,-1.201536 -0.09183,0 -0.167669,-0.231639 -0.167669,-0.516417 0,-0.282197 0.06655,-0.513837 0.14858,-0.513837 0.08204,0 0.13981,0.135162 0.129496,0.299738 -0.04644,0.675316 0.296127,0.415818 0.359068,-0.272911 0.04642,-0.497845 0.0088,-0.709365 -0.111944,-0.632496 -0.229062,0.139809 -0.23164,0.177472 0.07533,-1.282014 0.208941,-0.996722 0.394151,-1.382101 0.988983,-2.072376 0.401888,-0.466892 0.865169,-0.890446 1.030256,-0.943068 0.16612,-0.05314 0.299739,-0.20894 0.299739,-0.350297 0,-0.456057 0.521576,-1.057082 1.002396,-1.152524 0.267238,-0.05365 0.575747,-0.28581 0.707816,-0.531378 0.18263,-0.33998 0.323471,-0.414269 0.634561,-0.337401 0.248147,0.06448 0.404464,0.02684 0.404464,-0.09596 0,-0.108335 0.09596,-0.182631 0.214101,-0.161994 0.118138,0.01857 0.331209,-0.01497 0.472565,-0.07533 0.140842,-0.05933 0.459669,-0.180564 0.705239,-0.270847 0.345139,-0.125885 0.472567,-0.317279 0.555626,-0.823894 0.144968,-0.913146 1.176256,-1.96249 2.192581,-2.23179 0.963704,-0.25434 1.682871,-1.144785 1.564212,-1.940822 -0.05159,-0.356487 -0.172309,-0.515384 -0.390536,-0.515384 -0.172312,0 -0.3601,-0.0779 -0.418396,-0.17128 -0.05933,-0.09441 -0.255888,-0.172311 -0.440581,-0.172311 -0.395695,0 -0.410657,-0.138778 -0.06913,-0.593288 0.161476,-0.213067 0.216678,-0.526735 0.153738,-0.861553 -0.0779,-0.41943 0.0088,-0.665 0.425619,-1.189154 0.545308,-0.685116 0.870326,-1.570404 0.872905,-2.370568 0.001,-0.400338 0.100602,-0.492685 0.705238,-0.656226 0.584516,-0.156318 0.754248,-0.143421 0.999817,0.07945 0.163541,0.147547 0.411689,0.268268 0.550466,0.268268 0.13981,0 0.328629,0.0779 0.422008,0.170248 0.09183,0.09183 0.553046,0.285809 1.021486,0.428197 0.818734,0.249182 0.866713,0.24557 1.148911,-0.09338 0.162508,-0.19501 0.34617,-0.621146 0.405499,-0.944616 0.129496,-0.687697 -0.04283,-1.789662 -0.279619,-1.789662 -0.08925,0 -0.163542,-0.107308 -0.163542,-0.24041 0,-0.132065 -0.116082,-0.28323 -0.257951,-0.338948 -0.150125,-0.05779 -0.256916,-0.314701 -0.256916,-0.618568 0,-0.491137 0.03765,-0.520028 0.672734,-0.520028 0.371449,0 0.716586,0.09699 0.772304,0.215131 0.05417,0.118137 0.05056,0.02786 -0.0063,-0.197589 -0.08203,-0.325019 -0.04642,-0.390537 0.16251,-0.310058 0.145999,0.05674 0.297159,0.01026 0.338947,-0.103184 0.04902,-0.140842 0.181598,-0.109377 0.422007,0.105764 0.332756,0.29458 0.384348,0.296127 1.012714,0.02012 l 0.662418,-0.291997 -0.602056,-0.150129 c -0.330178,-0.08204 -1.180384,-0.179017 -1.889232,-0.216678 -0.709364,-0.03508 -1.424403,-0.07428 -1.58846,-0.08307 -0.465859,-0.02786 -0.353908,-0.305929 0.170248,-0.423037 0.260531,-0.05778 0.627336,-0.22545 0.817187,-0.37145 0.278589,-0.216678 0.297159,-0.293549 0.103185,-0.414269 -0.316248,-0.193979 -0.111945,-0.696466 0.284778,-0.696466 0.22906,0 0.311088,-0.127427 0.30593,-0.471018 -0.0052,-0.414269 0.05314,-0.465861 0.464828,-0.422009 0.418395,0.04283 0.469985,-0.0063 0.453476,-0.429746 -0.01136,-0.291999 -0.05056,-0.361645 -0.09802,-0.180049 -0.04283,0.166121 -0.19656,0.29974 -0.341528,0.29974 -0.162509,0 -0.226481,-0.09699 -0.167668,-0.254341 0.08204,-0.213067 0.04283,-0.220289 -0.239378,-0.04385 -0.185209,0.11711 -0.337399,0.372997 -0.337399,0.57162 0,0.197589 -0.134647,0.478757 -0.300771,0.623208 -0.347717,0.303351 -1.777281,0.548919 -2.277189,0.390537 -0.511259,-0.162508 -0.450898,-0.901795 0.09339,-1.150976 0.259498,-0.11711 0.400339,-0.293547 0.346169,-0.433357 -0.134647,-0.350297 0.42304,-1.110735 0.729485,-0.995174 0.139809,0.05521 0.39776,-0.02786 0.569555,-0.185208 0.181598,-0.163541 0.484949,-0.248149 0.724326,-0.202749 0.276008,0.05314 0.477209,-0.02786 0.609796,-0.2368 0.12226,-0.195011 0.131037,-0.314699 0.02373,-0.314699 -0.304898,0 -0.186241,-0.342559 0.128454,-0.362679 0.285809,-0.02012 0.285809,-0.02373 0,-0.09802 -0.404467,-0.105766 -0.379187,-0.29458 0.104728,-0.817188 0.415816,-0.449866 0.968348,-0.588128 0.968348,-0.244538 0,0.136198 0.07428,0.132065 0.249179,-0.01497 0.13723,-0.1135 0.336367,-0.154769 0.44058,-0.08925 0.103184,0.06448 0.342557,-0.02012 0.526735,-0.187788 0.26827,-0.242991 0.379188,-0.260531 0.546855,-0.09079 0.168701,0.168699 0.09441,0.317278 -0.348748,0.716587 -0.482369,0.434388 -0.512807,0.504035 -0.215131,0.504035 0.456057,0 0.456057,0.535507 0,0.945648 -0.39776,0.360099 -0.352877,0.943584 0.1914,2.450015 0.372997,1.039027 0.431809,2.203932 0.111944,2.316398 -0.118137,0.04283 -0.16354,0.132078 -0.102159,0.199138 0.191399,0.207909 1.096807,-0.366289 1.584335,-1.009103 0.422006,-0.553047 0.545306,-0.610828 1.306261,-0.610828 0.927076,0 0.955966,-0.03663 1.119506,-1.355274 0.128454,-1.022514 0.27188,-1.227844 1.044184,-1.492501 0.512806,-0.17747 0.691309,-0.181598 0.793457,-0.02166 0.07688,0.120721 0.13362,-0.02528 0.13362,-0.350297 0.0037,-0.615986 -0.241959,-0.712976 -0.779527,-0.304897 -0.183662,0.138776 -0.565428,0.254339 -0.850205,0.256917 -0.765598,0.0077 -0.998785,-0.479786 -0.851239,-1.7747 0.15993,-1.390354 0.429748,-1.870142 1.270666,-2.248298 0.385379,-0.173859 0.699048,-0.376608 0.699048,-0.449866 0,-0.07533 0.27188,-0.234219 0.604634,-0.352876 0.407047,-0.147549 0.804806,-0.508678 1.215465,-1.106094 0.3374,-0.487528 0.798615,-0.986403 1.027676,-1.107124 0.228028,-0.124844 0.384347,-0.254339 0.345137,-0.294579 -0.03921,-0.03921 -0.239378,0.02012 -0.444706,0.129496 -0.205329,0.109374 -0.414269,0.158895 -0.464828,0.108333 -0.136197,-0.13723 0.979697,-1.119505 1.698865,-1.492502 0.347717,-0.18005 0.678925,-0.405499 0.739285,-0.501455 0.05934,-0.09699 0.334821,-0.17644 0.613407,-0.17644 0.27704,0 0.505067,-0.0619 0.505067,-0.136198 0,-0.202748 1.025097,-0.511257 1.743232,-0.525187 0.438516,-0.0088 0.762502,0.114526 1.082361,0.411689 0.251759,0.233188 0.569555,0.422007 0.705238,0.422007 0.13723,0 0.249179,0.0779 0.249179,0.172311 0,0.09441 0.152192,0.17128 0.33998,0.17128 0.608249,0 2.541847,0.894057 2.740985,1.268086 0.111957,0.205329 0.38125,0.372997 0.629915,0.387958 0.40034,0.02373 0.41169,0.0025 0.164572,-0.270848 -0.14703,-0.163541 -0.268267,-0.425619 -0.268267,-0.58297 0,-0.158896 -0.07945,-0.288388 -0.172828,-0.288388 -0.09441,0 -0.172311,-0.123302 -0.172311,-0.276007 0,-0.213068 0.128454,-0.259499 0.559236,-0.19656 0.30593,0.04177 0.692856,0.134647 0.856398,0.206362 0.22029,0.09596 0.459667,-0.05314 0.927075,-0.570588 0.40653,-0.454508 0.83215,-0.739286 1.205145,-0.809964 1.102482,-0.205329 0.457605,-0.929655 -0.712975,-0.798616 -0.459668,0.05158 -0.904376,-0.01651 -1.247967,-0.195012 -0.452445,-0.233186 -0.550466,-0.400339 -0.637138,-1.092162 -0.05674,-0.448319 -0.147546,-1.009103 -0.200684,-1.244355 -0.208941,-0.943583 -0.114528,-1.424403 0.346685,-1.75974 0.247632,-0.181596 0.453478,-0.444705 0.453478,-0.585547 0,-0.152191 0.121747,-0.231641 0.299738,-0.195011 0.235251,0.04642 0.285809,0.191399 0.23422,0.657258 -0.03766,0.327598 -0.07533,1.162325 -0.08204,1.857762 -0.01339,1.113315 0.03043,1.301104 0.372997,1.578143 0.511259,0.413236 2.007888,0.693886 2.869444,0.537568 l 0.687689,-0.125891 -0.473596,-0.410658 c -0.2595,-0.228028 -0.47102,-0.566976 -0.47102,-0.755796 0,-0.188819 -0.108333,-0.463279 -0.239377,-0.613406 -0.132065,-0.14858 -0.294581,-0.532927 -0.362679,-0.852785 -0.118137,-0.558206 -0.105765,-0.575747 0.313668,-0.471018 0.380218,0.09441 0.443159,0.04902 0.491138,-0.3601 l 0.05366,-0.471018 0.385379,0.416848 c 0.313667,0.336368 0.386926,0.361647 0.386926,0.125885 0,-0.158898 -0.0846,-0.289935 -0.190369,-0.289935 -0.111944,0 -0.158897,-0.179019 -0.109375,-0.429747 0.04385,-0.235767 0.02115,-0.429746 -0.05212,-0.429746 -0.07428,0 -0.182629,-0.327598 -0.24299,-0.729483 -0.220805,-1.453296 -0.287357,-1.638505 -0.617018,-1.725691 -0.471019,-0.123303 -0.428198,-0.632495 0.05314,-0.639719 0.375576,-0.0063 0.376091,-0.01135 0.04127,-0.199138 -0.187272,-0.107305 -0.400338,-0.279618 -0.468438,-0.381766 -0.08668,-0.129497 -0.126913,-0.131037 -0.129496,-0.0038 -0.0025,0.100601 -0.497845,0.282199 -1.100933,0.401888 -1.157683,0.230607 -1.529132,0.151159 -2.006857,-0.43181 -0.225449,-0.27188 -0.19759,-0.287357 0.342559,-0.181596 0.407045,0.08204 0.712975,0.03405 1.003944,-0.156319 0.24918,-0.163541 0.581937,-0.233187 0.831117,-0.170247 0.245569,0.0619 0.413236,0.02786 0.413236,-0.08047 0,-0.122274 0.257952,-0.147548 0.748058,-0.07428 0.595351,0.08822 0.769208,0.05675 0.853817,-0.159929 0.129495,-0.339979 0.64075,-0.346171 1.70299,-0.02373 0.79191,0.241957 0.816157,0.237831 0.816157,-0.111946 0,-0.197588 0.134646,-0.459667 0.300771,-0.587094 0.273427,-0.207908 0.259498,-0.229062 -0.161478,-0.234219 -0.548919,-0.0063 -0.672735,-0.157351 -0.540148,-0.663966 0.07893,-0.30077 0.22906,-0.375575 0.806871,-0.385378 0.390536,-0.0088 0.613406,-0.05314 0.496297,-0.100601 -0.119179,-0.04797 -0.215132,-0.192947 -0.215132,-0.325019 0,-0.619597 -1.763351,-1.110735 -2.361796,-0.658805 -0.60825,0.461216 -1.760774,0.17128 -1.760774,-0.44316 0,-0.181597 -0.07635,-0.375576 -0.171279,-0.433357 -0.308508,-0.190368 -0.181596,-0.601025 0.188822,-0.601025 0.215645,0 0.395695,0.13723 0.449865,0.342559 0.04902,0.187788 0.171279,0.344105 0.270332,0.344105 0.09957,0 0.321406,0.128455 0.491139,0.282199 0.289936,0.26053 0.319858,0.26053 0.419427,0 0.05882,-0.153739 0.215132,-0.282199 0.347718,-0.282199 0.284777,0 0.315731,-0.274459 0.05314,-0.438515 -0.103184,-0.06294 -0.148579,-0.257952 -0.103184,-0.431811 0.05882,-0.22648 -0.08564,-0.416847 -0.501456,-0.662417 -0.587096,-0.346169 -0.767146,-0.691307 -0.369385,-0.706784 0.350296,-0.01392 -1.275826,-0.797067 -1.930503,-0.933266 -0.331725,-0.0681 -1.452262,-0.533958 -2.491289,-1.035414 -1.040572,-0.501456 -2.064636,-0.962156 -2.277189,-1.025096 -0.434904,-0.127427 -0.524155,-0.433358 -0.130009,-0.433358 0.140841,0 0.258466,-0.0779 0.258466,-0.171278 0,-0.09441 0.116082,-0.17128 0.25692,-0.17128 0.141873,0 0.256919,0.07688 0.256919,0.17128 0,0.09339 0.212552,0.17231 0.473597,0.17231 0.257951,0.001 0.703689,0.123303 0.987436,0.273429 0.692854,0.364226 2.318459,0.537568 2.318459,0.247116 0,-0.134648 0.1135,-0.17128 0.301287,-0.09802 0.164573,0.06294 1.189153,0.303351 2.275642,0.536539 1.085456,0.230608 2.130157,0.492685 2.318978,0.580388 0.845046,0.396729 1.70041,0.691309 2.005308,0.691309 0.18263,0 0.560269,0.118137 0.837307,0.262076 0.456053,0.235768 0.506096,0.235768 0.506096,0 0,-0.14342 0.0795,-0.262076 0.173859,-0.262076 0.09344,0 0.171276,0.117109 0.171276,0.256919 0,0.14084 0.135216,0.257949 0.302328,0.257949 0.167666,0 0.726902,0.161478 1.245898,0.359067 0.517454,0.19656 1.216502,0.415817 1.552863,0.485981 0.687703,0.14084 2.394819,1.022515 2.394819,1.238164 0,0.195009 -1.957331,-0.23938 -3.520512,-0.782107 -0.188827,-0.06655 -0.05368,0.05778 0.298705,0.276006 0.352356,0.218227 0.643325,0.494751 0.643325,0.613408 0.0014,0.117109 0.08208,0.214099 0.177997,0.214099 0.09601,0 0.504027,0.298707 0.901789,0.666544 0.39879,0.367838 1.537381,1.150975 2.52998,1.73962 0.9926,0.589676 2.045545,1.301104 2.342707,1.580722 0.339986,0.321408 0.581939,0.439549 0.65417,0.322439 0.167153,-0.270849 -0.04543,-0.531379 -0.339984,-0.418398 -0.238343,0.09079 -0.278582,0.02786 -0.319864,-0.498875 -0.0095,-0.118137 -0.135216,-0.304897 -0.27446,-0.414268 -0.515385,-0.401888 -0.01081,-0.410658 1.141173,-0.02529 1.199993,0.402919 1.555446,0.644877 1.239206,0.838856 -0.104791,0.06655 -0.05935,0.154771 0.110876,0.221838 0.158892,0.06036 0.361132,0.06448 0.450902,0.0088 0.09073,-0.05674 0.270321,-0.01393 0.402913,0.09441 0.132106,0.110917 0.477214,0.20533 0.768183,0.213067 0.383822,0.01244 0.516413,0.09079 0.483907,0.290968 -0.02786,0.179018 0.0841,0.276007 0.328627,0.27962 0.445749,0.0063 2.118292,1.366623 2.118292,1.721563 0,0.348749 -0.238344,0.305929 -0.617013,-0.111944 -0.179012,-0.197589 -0.479785,-0.433357 -0.670153,-0.524155 -0.406538,-0.19398 0.593283,0.730515 2.096103,1.935661 0.615468,0.493716 1.287175,1.233004 1.585875,1.748391 0.53758,0.918304 2.60685,3.136165 3.63453,3.89454 l 0.58091,0.429745 -0.64487,-0.881677 c -0.67172,-0.919335 -0.74704,-1.093193 -0.48393,-1.093193 0.22649,0 3.18002,3.932199 3.04899,4.060659 -0.0603,0.05933 -0.22649,0.01026 -0.37042,-0.109374 -0.3663,-0.304898 -0.32502,-0.129497 0.082,0.339977 0.33845,0.393119 0.44162,0.686666 0.2394,0.686666 -0.0578,0 -0.50301,-0.424587 -0.99002,-0.943584 -0.48753,-0.517449 -0.957,-0.943582 -1.04212,-0.943582 -0.0856,0 -0.30852,-0.134648 -0.49475,-0.29974 -0.33379,-0.296128 -0.33379,-0.294579 -0.052,0.256919 0.18623,0.361646 0.21666,0.556658 0.0907,0.556658 -0.10683,0 -0.14857,0.122275 -0.0934,0.267237 0.067,0.173858 0.034,0.225449 -0.0917,0.144968 -0.3957,-0.241958 0.0455,0.265689 0.52517,0.605669 l 0.486,0.347717 -0.0588,-0.511258 c -0.095,-0.818735 0.23164,-0.59174 0.811,0.564396 0.69027,1.377974 0.85484,1.584332 1.02613,1.306261 0.0924,-0.147547 0.38949,0.06914 0.96111,0.700079 0.93224,1.025097 1.38055,1.692674 2.14873,3.186723 0.29201,0.565429 0.69286,1.197924 0.89251,1.401704 0.60464,0.615988 0.80276,0.896636 1.0607,1.516235 0.32758,0.779527 0.32244,1.182447 -0.015,1.052956 -0.20172,-0.0779 -0.22649,-0.03251 -0.1017,0.196558 0.22647,0.427165 0.88013,3.61131 0.88013,4.289717 0,0.316249 0.16767,0.936878 0.37299,1.380557 0.41737,0.904373 0.64127,2.607364 0.34257,2.607364 -0.1017,0 -0.27189,-0.327598 -0.37559,-0.729484 -0.30851,-1.193795 -0.36784,-1.360431 -0.45089,-1.274792 -0.0438,0.04385 0.032,0.679957 0.17283,1.417181 0.23162,1.224233 0.31573,1.397061 1.00754,2.036779 0.9699,0.895605 1.26448,1.94237 1.41822,5.033134 0.098,1.997571 0.0805,2.27461 -0.15786,2.27461 -0.14703,0 -0.2693,-0.116083 -0.2693,-0.256919 0,-0.142389 -0.11615,-0.257951 -0.25537,-0.257951 -0.14085,0 -0.25693,-0.116082 -0.25693,-0.255887 0,-0.385379 -0.30385,-0.311088 -0.43593,0.104728 -0.14084,0.444707 0.0629,2.213218 0.25433,2.213218 0.0779,0 0.18987,0.330175 0.25022,0.731547 0.0795,0.517449 0.21924,0.784686 0.47617,0.901795 0.76251,0.350297 1.15614,3.511741 0.75993,6.087638 -0.13878,0.894056 -0.33483,1.653463 -0.43594,1.688544 -0.10063,0.03199 -0.18366,0.17128 -0.18366,0.30232 0,0.13516 -0.0779,0.244536 -0.17282,0.244536 -0.0945,0 -0.17129,-0.11711 -0.17129,-0.259498 0,-0.325017 -0.70884,-1.866532 -0.89405,-1.944948 -0.22544,-0.09441 -0.15477,-0.405499 0.13982,-0.62063 0.24452,-0.179018 0.22543,-0.235766 -0.17284,-0.495265 -0.56955,-0.374029 -0.5778,-0.962157 -0.0252,-1.481153 0.35647,-0.334821 0.46843,-0.36268 0.69181,-0.179018 0.14703,0.122261 0.31471,0.173859 0.37559,0.1135 0.17386,-0.17489 -0.47875,-2.342709 -0.70524,-2.342709 -0.11818,0 -0.3338,-0.570071 -0.50404,-1.329994 -0.51281,-2.29834 -0.65881,-2.847776 -1.02768,-3.905374 l -0.36267,-1.030255 -0.17644,0.930686 c -0.17026,0.885286 -0.52777,1.336184 -0.67171,0.844015 -0.0362,-0.125886 -0.15632,-0.558206 -0.26466,-0.958545 -0.10939,-0.401887 -0.2631,-0.729484 -0.34101,-0.729484 -0.0805,0 -0.44007,-0.27085 -0.80119,-0.601026 -0.36011,-0.332757 -0.69904,-0.601025 -0.75064,-0.598446 -0.1816,0.0052 -1.21185,2.439699 -1.21185,2.860157 0,0.23061 -0.10829,0.781077 -0.23938,1.225267 -0.28478,0.961124 -0.65159,3.046914 -0.63403,3.609763 0.006,0.220805 -0.17387,0.787266 -0.40035,1.261895 -0.38126,0.797583 -0.39569,0.905922 -0.16715,1.44762 0.13359,0.32347 0.25279,0.952354 0.26207,1.399124 0.0213,0.969894 0.26465,1.875817 0.55512,2.055351 0.42974,0.264657 0.96628,1.229393 0.96628,1.73704 0,0.652615 -0.30644,1.345987 -0.65417,1.478573 -0.35029,0.134647 -0.519,-0.167667 -0.65571,-1.16542 -0.12331,-0.910567 -0.34255,-0.879096 -0.65725,0.09596 -0.13877,0.42562 -0.27859,0.559238 -0.59587,0.559238 -0.32862,0 -0.5164,-0.19501 -0.90284,-0.944615 -0.26877,-0.517449 -0.56438,-0.969895 -0.65983,-0.999817 -0.096,-0.03251 -0.36268,-0.457089 -0.59432,-0.944615 -0.23165,-0.487012 -0.60979,-1.085457 -0.83627,-1.328447 -0.22648,-0.241958 -0.46483,-0.609795 -0.53139,-0.815124 -0.0656,-0.204814 -0.19757,-0.374028 -0.29612,-0.374028 -0.0975,0 -0.13826,-0.105765 -0.0878,-0.236799 0.0506,-0.131037 -0.0949,-0.512807 -0.32553,-0.849174 -0.22855,-0.336368 -0.41427,-0.689244 -0.41427,-0.783654 0,-0.09596 -0.28117,-0.136198 -0.65003,-0.09235 -0.435936,0.05314 -0.867757,-0.03353 -1.32225,-0.267236 -0.373005,-0.189852 -0.778501,-0.346171 -0.899222,-0.346171 -0.120747,0 -0.221832,-0.109889 -0.221832,-0.243505 0,-0.134647 -0.236802,-0.295611 -0.526744,-0.358551 -0.289929,-0.06448 -0.568012,-0.226481 -0.619596,-0.361648 -0.05314,-0.134647 -0.249174,-0.330177 -0.438515,-0.42923 -0.270335,-0.143419 -0.443153,-0.115041 -0.796038,0.141872 -0.247633,0.179018 -0.723806,0.435938 -1.052959,0.566976 -0.331209,0.135161 -0.751661,0.380222 -0.936878,0.553047 -0.186232,0.169732 -0.416841,0.279619 -0.514858,0.244538 -0.09952,-0.03405 -0.527771,0.0387 -0.951332,0.166119 -0.962149,0.289938 -1.927922,0.299739 -2.199285,0.0289 -0.302313,-0.300771 -0.272905,0.267236 0.04543,0.880644 0.289927,0.561816 0.644867,0.739285 1.193272,0.602056 0.237829,-0.06036 0.633536,0.04902 1.032838,0.284777 0.603087,0.353909 0.639717,0.421493 0.537575,0.997755 -0.05882,0.339978 -0.15117,0.906954 -0.204824,1.261894 -0.05935,0.390538 -0.191396,0.643329 -0.337388,0.643329 -0.161488,0 -0.240926,0.208941 -0.240926,0.646425 0,0.458636 -0.09694,0.706269 -0.342567,0.860007 -0.188814,0.117624 -0.345136,0.375577 -0.345136,0.570588 0,0.216679 -0.138771,0.395696 -0.35133,0.450898 -0.213071,0.05519 -0.39054,0.282198 -0.448318,0.57007 -0.05935,0.298709 -0.235761,0.513839 -0.462246,0.573167 -0.571622,0.146 -1.62715,1.099386 -1.68751,1.525005 -0.03353,0.238346 -0.380225,0.595866 -0.913147,0.944616 -0.472563,0.310055 -1.042642,0.732064 -1.264477,0.938424 -0.513844,0.474631 -2.105905,1.503853 -2.327752,1.503853 -0.09344,0 -0.377642,0.20017 -0.634036,0.445739 -0.283236,0.272912 -0.683566,0.456057 -1.026132,0.47205 -0.504035,0.02424 -0.602056,-0.05314 -0.951321,-0.745478 -0.48598,-0.967315 -0.610829,-1.328447 -0.670157,-1.958362 -0.03251,-0.349265 -0.311088,-0.740835 -0.913146,-1.288721 -0.476177,-0.434389 -0.909534,-0.947195 -0.964734,-1.144786 -0.05417,-0.19656 -0.350297,-0.464827 -0.655194,-0.601024 -0.432327,-0.189854 -0.609797,-0.41685 -0.792426,-1.016327 -0.395696,-1.296462 -0.742898,-1.891811 -1.173676,-1.999118 -0.222869,-0.05778 -0.521576,-0.325019 -0.662416,-0.59793 -0.141874,-0.271881 -0.322441,-0.495265 -0.403952,-0.495265 -0.08048,0 -0.195527,-0.17386 -0.253307,-0.385379 -0.183662,-0.659839 -1.196376,-1.70557 -1.529133,-1.578143 -0.161477,0.06138 -0.293032,0.229061 -0.293032,0.372998 0,0.330177 0.890446,1.89439 1.370234,2.408227 0.20017,0.212552 0.320891,0.457089 0.268269,0.542728 -0.125885,0.204298 0.07224,0.700078 0.281166,0.700078 0.482369,0 1.101966,1.047797 1.267054,2.146151 0.09079,0.611344 0.222868,0.837823 0.61444,1.069464 0.274459,0.161994 0.667575,0.644877 0.870324,1.071527 0.204298,0.425619 0.455025,0.833697 0.556659,0.901796 0.123302,0.08563 0.116082,0.127427 -0.02786,0.128454 -0.114527,0.0015 -0.163541,0.119692 -0.109375,0.261047 0.131037,0.338432 0.405498,0.330176 0.405498,-0.01244 0,-0.180565 0.125885,-0.25176 0.385378,-0.214098 0.25434,0.03508 0.386411,0.172311 0.386411,0.39879 0,0.21152 0.277039,0.527769 0.726905,0.830087 1.088035,0.725357 1.692673,1.347534 1.823712,1.869111 0.187272,0.760953 0.679961,0.902827 1.623031,0.476176 0.444695,-0.201717 0.923464,-0.440063 1.064304,-0.526735 0.14084,-0.08822 0.374018,-0.207908 0.51383,-0.264658 1.11693,-0.444705 2.172459,-0.999301 2.285958,-1.200502 0.07532,-0.132078 0.288914,-0.240409 0.472577,-0.240409 0.250201,0 0.334818,0.118136 0.334818,0.479787 0,0.264657 0.09601,0.579357 0.2141,0.698014 0.172305,0.17386 0.15735,0.249182 -0.0795,0.3828 -0.161473,0.09079 -0.251756,0.27188 -0.201713,0.402919 0.04949,0.130008 -0.07896,0.565943 -0.285817,0.971443 -0.205324,0.402918 -0.561819,1.227844 -0.787263,1.834029 -0.647463,1.718984 -1.478575,2.854999 -3.731514,5.097107 -3.113468,3.10263 -4.752487,5.070796 -4.222139,5.070796 0.268267,0 0.181596,0.657258 -0.09492,0.718134 -0.224418,0.04798 -0.226481,0.113499 -0.01497,0.518997 0.276007,0.528798 0.264657,0.846592 -0.04385,1.219072 -0.289937,0.34772 -0.0846,1.09578 0.328629,1.20154 0.294581,0.0779 0.326566,0.2435 0.302319,1.60445 l -0.02786,1.51881 -0.707818,0.68512 c -0.401371,0.39054 -1.093193,0.82389 -1.59465,1.0024 -0.488559,0.17127 -0.983308,0.42819 -1.100935,0.56852 -0.118136,0.14084 -0.511258,0.40808 -0.877547,0.59432 -0.730517,0.37558 -0.953903,0.72639 -0.671705,1.06533 0.218228,0.26466 0.06965,1.41564 -0.211519,1.63851 -0.105766,0.082 -0.588127,0.27961 -1.070496,0.43594 -0.738255,0.24195 -0.925526,0.39311 -1.173675,0.93945 -0.294579,0.6552 -0.351329,0.69801 -2.726539,1.95217 -1.454841,0.76973 -2.412356,0.95493 -5.354541,1.03953 -1.513655,0.0423 -2.963338,0.0439 -3.222838,0.001 z m 13.473284,-11.70996 c -0.142391,-0.36008 -0.33998,0.62115 -0.221839,1.10094 0.06655,0.26466 0.1135,0.21153 0.207392,-0.24196 0.06759,-0.32243 0.07326,-0.70884 0.01444,-0.85898 z m -3.63917,-2.39841 c 0,-0.0831 -0.15993,-0.19398 -0.353909,-0.24454 -0.289936,-0.0753 -0.316247,-0.0479 -0.150126,0.15115 0.226995,0.27395 0.504035,0.32502 0.504035,0.0934 z m 2.476327,-3.967288 c 0.351845,0 0.838856,-0.647457 0.720198,-0.956998 -0.08048,-0.211518 -0.226481,-0.250211 -0.57781,-0.16354 -0.258466,0.06294 -0.497844,0.187787 -0.526735,0.27446 -0.03251,0.08822 -0.158898,0.158898 -0.283747,0.158898 -0.121747,0 -0.25537,0.230606 -0.29561,0.510226 -0.06191,0.40911 -0.0093,0.51487 0.28065,0.556658 0.195527,0.02786 0.380219,-0.0454 0.410658,-0.163542 0.02993,-0.119178 0.154255,-0.216162 0.272396,-0.216162 z M 114.51606,73.743675 c -0.16355,-0.151157 -0.18779,-0.123303 -0.10064,0.119692 0.0603,0.172311 0.12074,0.444191 0.13359,0.60051 0.015,0.157865 0.0588,0.103184 0.10063,-0.119179 0.0429,-0.223385 -0.0191,-0.493716 -0.13359,-0.601024 z m -0.16251,-0.539117 c 0,-0.328629 -0.10682,-0.328629 -0.23267,0 -0.0552,0.142389 -0.0268,0.258468 0.0665,0.258468 0.0917,0 0.16612,-0.116082 0.16612,-0.258468 z M 87.559688,71.940084 c 0.0027,-0.241957 0.02678,-0.245569 0.163542,-0.02528 0.215656,0.339979 0.379184,0.157865 1.030258,-1.156136 0.291996,-0.591738 0.60721,-1.073074 0.698019,-1.073074 0.09073,0 0.165085,-0.09597 0.161475,-0.214099 -0.0041,-0.11918 -0.200172,0.0077 -0.440585,0.279617 -0.547891,0.621145 -1.640049,0.795005 -2.434532,0.384348 -0.293551,-0.15116 -0.652615,-0.229062 -0.797592,-0.17386 -0.256909,0.09699 -1.475994,-0.999816 -1.475994,-1.328962 0,-0.0815 -0.08154,-0.148579 -0.182621,-0.148579 -0.101148,0 -0.133592,-0.07635 -0.07532,-0.171279 0.05774,-0.09441 0.02366,-0.17128 -0.07694,-0.17128 -0.09911,0 -0.183663,0.172827 -0.184691,0.385378 -0.0027,0.312121 -0.03407,0.3374 -0.168694,0.128455 -0.143423,-0.221838 -0.167681,-0.219258 -0.17025,0.02941 -0.001,0.15735 -0.09804,0.328629 -0.216681,0.380219 -0.147033,0.06294 -0.09344,0.18263 0.172832,0.377639 0.211517,0.156319 0.385375,0.388991 0.385375,0.516419 0,0.129496 0.108307,0.18882 0.245564,0.136197 0.144965,-0.05674 0.367839,0.100591 0.555625,0.39157 0.171278,0.267235 0.426659,0.588644 0.57008,0.714523 0.142382,0.124331 0.176429,0.186241 0.07477,0.134647 -0.102085,-0.04902 -0.187787,0.0093 -0.187787,0.132592 0,0.120719 0.110876,0.22029 0.243509,0.22029 0.163528,0 0.217709,-0.134648 0.167139,-0.403951 -0.06652,-0.346686 -0.02529,-0.38796 0.286331,-0.29355 0.464314,0.140842 0.434391,0.105766 0.612889,0.722779 0.104654,0.367838 0.08817,0.554078 -0.04895,0.613407 -0.140853,0.05778 -0.12994,0.131036 0.04287,0.250212 0.311602,0.212552 1.045225,-0.233188 1.050377,-0.637653 z M 61.276059,69.342005 c 0.07533,-0.672736 0.161478,-0.809966 0.686665,-1.072044 0.779527,-0.387957 1.464645,-0.381252 1.8655,0.02012 0.176439,0.17644 0.619598,0.376609 0.988984,0.444707 0.36629,0.06913 0.74393,0.186242 0.838855,0.260532 0.09441,0.07532 0.441611,0.179017 0.773335,0.233187 0.330178,0.05314 0.988468,0.168699 1.459487,0.25795 0.734643,0.136197 0.928622,0.1135 1.31916,-0.164571 0.478755,-0.341528 1.337732,-0.423041 2.382949,-0.233189 0.790877,0.144968 0.896636,0.0052 1.350113,-1.817005 0.446771,-1.795853 0.337401,-2.784836 -0.319859,-2.878214 -0.23422,-0.03251 -0.465858,0.05158 -0.551499,0.201719 -0.221837,0.394148 -1.140142,0.540149 -1.487859,0.236797 -0.456057,-0.400339 -1.060694,-0.535506 -1.060694,-0.237829 0,0.493716 -0.901795,0.612375 -1.340311,0.174889 -0.264657,-0.264658 -0.292,-0.256917 -0.378671,0.116082 -0.09492,0.407047 -0.513839,0.693888 -0.513839,0.35391 0,-0.103185 -0.160445,-0.347718 -0.356488,-0.542729 -0.19501,-0.195012 -0.311088,-0.47102 -0.257951,-0.613408 0.07326,-0.190367 0.01244,-0.228027 -0.244538,-0.144967 -0.244536,0.0779 -0.341526,0.02889 -0.341526,-0.171279 0,-0.152191 0.07688,-0.23164 0.17128,-0.17386 0.09337,0.05779 0.171278,0.02529 0.171278,-0.07533 0,-0.100591 -0.118136,-0.182627 -0.265689,-0.182627 -0.20636,0 -0.255886,-0.172312 -0.225963,-0.769727 0.02271,-0.423038 -0.01244,-0.822346 -0.0779,-0.886834 -0.06655,-0.06655 -0.119178,-0.02786 -0.119178,0.08204 0,0.109889 -0.116082,0.199138 -0.255887,0.199138 -0.14084,0 -0.256918,-0.114527 -0.256918,-0.256917 0,-0.13981 0.07688,-0.25692 0.171279,-0.25692 0.09492,0 0.171279,-0.128453 0.171279,-0.284777 0,-0.226481 -0.06553,-0.205329 -0.3374,0.107306 -0.18882,0.214098 -0.580389,0.439547 -0.875484,0.499909 l -0.535506,0.109374 0.445739,0.479789 c 0.251759,0.27188 0.531379,0.427166 0.643845,0.359067 0.108335,-0.0681 0.152192,-0.04902 0.09699,0.03921 -0.0552,0.08822 0.211519,0.498876 0.591738,0.912114 0.593286,0.641264 0.652615,0.770755 0.413237,0.904374 -0.153739,0.0846 -0.234219,0.228029 -0.180049,0.316248 0.05519,0.08822 0.02786,0.161477 -0.06294,0.161477 -0.09079,0 -0.208941,-0.114527 -0.26208,-0.254339 -0.05519,-0.144969 -0.21152,-0.210488 -0.361645,-0.152191 -0.187273,0.0717 -0.264658,-0.0063 -0.264658,-0.26569 0,-0.440579 -0.488558,-0.676346 -0.701626,-0.338948 -0.08203,0.132079 -0.152191,0.451932 -0.154771,0.71143 0,0.259498 -0.07945,0.471018 -0.173858,0.471018 -0.09339,0 -0.17128,-0.06036 -0.17128,-0.134647 0,-0.07326 -0.23164,-0.221836 -0.513836,-0.327596 -0.347719,-0.131037 -0.516418,-0.312121 -0.516418,-0.553047 0,-0.197592 -0.110918,-0.359068 -0.247117,-0.359068 -0.357521,0 -0.52261,-0.356487 -0.247117,-0.531378 0.172311,-0.107307 0.179018,-0.150128 0.02271,-0.15116 -0.118138,-0.001 -0.214098,-0.153739 -0.214098,-0.336367 0,-0.183661 -0.07945,-0.381767 -0.174891,-0.440581 -0.325018,-0.201717 -0.673767,-1.295942 -0.573167,-1.799978 0.08047,-0.395697 0.0037,-0.587097 -0.366289,-0.929655 -0.254339,-0.236799 -0.727939,-0.51745 -1.049345,-0.624757 -0.321406,-0.104728 -0.584517,-0.274461 -0.584517,-0.374028 0,-0.09802 -0.173856,-0.34875 -0.385376,-0.558205 -0.638687,-0.619598 -0.990016,-1.110738 -0.990016,-1.381586 0,-0.390536 -0.336367,-0.302317 -0.504036,0.132079 -0.114527,0.298705 -0.05519,0.484946 0.264658,0.824926 0.225449,0.241958 0.410657,0.560268 0.410657,0.706785 0,0.414268 0.672735,1.172643 1.044185,1.172643 0.181597,0 0.330177,0.102139 0.330177,0.224417 0,0.124845 0.350298,0.469986 0.774368,0.770758 0.783654,0.553047 0.894058,0.778495 0.605668,1.235584 -0.136197,0.216678 -0.216679,0.19501 -0.522608,-0.13362 -0.199138,-0.213068 -0.44058,-0.338947 -0.537569,-0.278586 -0.119692,0.07326 -0.116082,0.168699 0.01026,0.294579 0.102159,0.103185 0.187788,0.318827 0.187788,0.478756 0,0.405499 -0.869295,1.357853 -1.240744,1.357853 -0.225449,0 -0.304897,0.134647 -0.304897,0.515384 0,0.570588 -0.32347,0.681507 -0.748057,0.25692 -0.142389,-0.142388 -0.310058,-0.25692 -0.372996,-0.25692 -0.262078,0 -1.112285,-0.727936 -1.112285,-0.953386 0,-0.304896 0.823895,-0.524154 1.063273,-0.284777 0.215131,0.214099 1.372814,0.06192 1.558022,-0.205328 0.20791,-0.298707 -0.02271,-0.956996 -0.474628,-1.361464 -0.930686,-0.830084 -1.321223,-1.144786 -1.429563,-1.148912 -0.06448,-0.0025 -0.34256,-0.311089 -0.619599,-0.686666 -0.277039,-0.376607 -0.605669,-0.682538 -0.729484,-0.682538 -0.123817,0 -0.225448,-0.0779 -0.225448,-0.17231 0,-0.09441 0.08203,-0.171279 0.185208,-0.171279 0.249181,0 0.0088,-0.720199 -0.322438,-0.962156 -0.197591,-0.143421 -0.393116,-0.125886 -0.790877,0.07171 -1.012714,0.502487 -1.128793,0.547887 -1.360432,0.547887 -0.128454,0 -0.479789,-0.123302 -0.782107,-0.273428 -0.671188,-0.33482 -1.049344,-0.21513 -1.049344,0.333789 0,0.494749 -0.206361,0.677379 -1.115895,0.991047 -0.905407,0.311088 -1.838673,1.147365 -1.71434,1.53429 0.102158,0.322438 -0.871358,1.429563 -1.121055,1.275824 -0.07945,-0.04902 -0.259498,0.02786 -0.402918,0.17128 -0.296127,0.296127 -0.761987,0.330177 -1.371781,0.09699 -0.566975,-0.215131 -1.146334,-0.04179 -1.146334,0.344105 0,0.381769 0.166121,0.494751 0.801195,0.54273 0.268269,0.02012 0.582969,0.129494 0.700079,0.241957 0.14084,0.138778 0.367837,0.157349 0.686664,0.05933 1.877882,-0.580389 2.296278,-0.599478 5.541814,-0.231641 0.517448,0.05934 1.354241,0.09957 1.854149,0.08925 0.636107,-0.01244 0.936878,0.05519 1.001364,0.224418 0.0516,0.134646 0.20275,0.201716 0.337401,0.150126 0.162509,-0.06294 0.24299,0.02631 0.24299,0.273428 0,0.201717 -0.113499,0.40911 -0.25073,0.461217 -0.196558,0.0779 -0.20894,0.17489 -0.05934,0.467405 0.5061,0.983824 0.512806,1.016326 0.282198,1.163874 -0.127427,0.08048 -0.356488,0.146001 -0.511258,0.148579 -0.154771,0 -0.328629,0.123304 -0.386927,0.269302 -0.05778,0.153739 -0.0289,0.221837 0.07068,0.158898 0.09339,-0.05778 0.430777,0.171278 0.748057,0.507647 0.319859,0.33843 0.744446,0.612375 0.952354,0.612375 0.685117,0 1.904192,0.666028 1.904192,1.039025 0,0.216678 0.174891,0.409626 0.471018,0.524155 0.26053,0.09957 0.821315,0.360099 1.245902,0.578326 1.069979,0.553562 1.263958,0.495782 1.367138,-0.423554 z m 3.382251,-3.214582 c -0.272395,-0.04024 -0.452445,-0.161478 -0.414786,-0.27446 0.07688,-0.23164 0.102159,-0.233187 1.197925,-0.04645 1.515202,0.261561 0.789329,0.559238 -0.783139,0.320892 z m 6.063906,-0.05778 c 0,-0.248148 0.449865,-0.684085 0.575746,-0.558205 0.05519,0.05519 0.29561,-0.02786 0.536536,-0.18521 0.446771,-0.293547 0.594319,-0.161476 0.227513,0.204299 -0.113499,0.113498 -0.137229,0.205327 -0.05314,0.205327 0.08307,0 0.0043,0.114527 -0.180049,0.253308 -0.389505,0.294581 -1.106607,0.346171 -1.106607,0.08047 z m -4.012683,-0.419425 c 0.128455,-0.32863 0.235768,-0.32863 0.235768,0 0,0.142388 -0.07532,0.25795 -0.166121,0.25795 -0.09234,0 -0.123302,-0.114526 -0.06965,-0.25795 z M 57.49605,65.049191 c 0,-0.219257 0.122262,-0.219257 0.25795,0 0.05779,0.09597 0.02373,0.17128 -0.07688,0.17128 -0.09906,0 -0.181081,-0.07428 -0.181081,-0.17128 z m -3.627304,-3.205295 c -0.01135,-0.07945 -0.0052,-0.217711 0.01497,-0.31212 0.02012,-0.09441 0.03405,-0.490107 0.03405,-0.881675 0,-0.550467 0.06294,-0.702658 0.283229,-0.685118 0.221837,0.01754 0.270847,-0.111944 0.230607,-0.610826 -0.03921,-0.493718 0.02631,-0.671189 0.305929,-0.821316 0.310057,-0.167667 0.352878,-0.142389 0.34256,0.201716 -0.0063,0.21668 -0.07326,0.54789 -0.147548,0.734129 -0.07688,0.188819 -0.07326,0.515384 0.0052,0.725358 0.108334,0.289936 -0.05779,1.284594 -0.255886,1.529131 -0.10163,0.124331 -0.798099,0.226481 -0.813061,0.12072 z m -3.838823,-1.075654 c -0.151158,-0.244537 0.04177,-0.524156 0.360101,-0.524156 0.148579,0 0.236798,0.119692 0.202748,0.285809 -0.06552,0.345138 -0.408078,0.489075 -0.562849,0.238347 z m 0.939458,-0.342558 c 0,-0.09957 0.0779,-0.181598 0.172311,-0.181598 0.219257,0 0.219257,0.12072 0,0.256918 -0.09543,0.05829 -0.172311,0.02424 -0.172311,-0.07533 z m 14.276541,3.373996 c -0.140842,-0.139809 -0.189852,-0.120721 -0.189852,0.07171 0,0.34256 0.230091,0.573168 0.3147,0.316249 0.03662,-0.108335 -0.02012,-0.28323 -0.124844,-0.387958 z m 19.102289,-2.397911 c 0.251757,-0.18521 0.264656,-0.290969 0.08046,-0.773336 -0.117098,-0.305929 -0.271891,-0.556658 -0.346178,-0.556658 -0.07477,0 -0.135216,-0.09802 -0.135216,-0.217711 0,-0.120719 -0.15478,-0.506098 -0.343594,-0.857943 -0.188815,-0.351844 -0.344109,-0.747025 -0.344109,-0.879097 0,-0.129495 -0.117096,-0.332756 -0.256921,-0.450897 -0.141868,-0.117109 -0.25795,-0.396728 -0.25795,-0.621147 0,-0.296127 -0.09601,-0.407046 -0.351844,-0.407046 -0.191396,0 -0.544272,-0.193978 -0.778492,-0.429745 -0.23783,-0.236799 -0.499907,-0.429745 -0.581936,-0.429745 -0.08307,0 -0.293033,-0.179019 -0.464312,-0.396729 -0.420459,-0.531379 -0.841435,-0.670157 -1.098354,-0.359068 -0.156318,0.186242 -0.162509,0.351329 -0.02786,0.633527 0.100591,0.20791 0.229059,0.57162 0.283229,0.808419 0.05314,0.235766 0.155286,0.508677 0.228029,0.604636 0.2693,0.364225 1.987769,1.627152 2.212696,1.627152 0.129941,0 0.235774,0.116082 0.235774,0.25692 0,0.140841 -0.119665,0.257951 -0.267238,0.257951 -0.215648,0 -0.25434,0.187788 -0.214101,0.986404 0.04644,0.906954 0.08668,0.993625 0.481339,1.045215 0.236803,0.03146 0.504028,0.129496 0.591742,0.214101 0.237829,0.229575 1.013219,0.196556 1.354759,-0.05519 z M 67.802729,60.930747 c 0,-0.09441 -0.121748,-0.172311 -0.267237,-0.172311 -0.147032,0 -0.221836,0.0779 -0.161992,0.172311 0.137229,0.221838 0.429229,0.221838 0.429229,0 z m 2.194129,-1.097322 c 0.685116,-0.438517 2.272029,-0.741867 2.272029,-0.43439 0,0.09802 0.08047,0.129496 0.179018,0.0681 0.09853,-0.06138 0.293549,-0.01754 0.429747,0.09699 0.140841,0.116082 0.748056,0.20636 1.376425,0.20636 0.932234,0 1.195344,-0.06552 1.537902,-0.387957 0.51487,-0.482368 0.362678,-0.845047 -0.555627,-1.327414 -0.357518,-0.187789 -1.074106,-0.565428 -1.594649,-0.844015 -1.012715,-0.539117 -1.370236,-0.545308 -2.088371,-0.03662 -0.556657,0.395696 -1.002396,0.416847 -1.002396,0.05056 0,-0.151157 -0.159929,-0.316248 -0.35752,-0.367837 -0.244537,-0.06448 -0.331208,-0.192946 -0.272911,-0.413237 0.05882,-0.225448 -0.0093,-0.319857 -0.229061,-0.319857 -0.172826,0 -0.352876,-0.09699 -0.401888,-0.2141 -0.114526,-0.279619 -0.789328,0.526734 -0.794487,0.945647 -0.0043,0.16612 -0.160445,0.434389 -0.350297,0.595866 -0.188821,0.16354 -0.342558,0.5061 -0.342558,0.770757 0,0.262078 -0.07068,0.477209 -0.152709,0.477209 -0.289936,0 -0.351328,0.764565 -0.09596,1.156134 0.362677,0.548403 1.566793,0.538602 2.443309,-0.02219 z m 3.012864,-3.945615 c 0.05056,-0.131037 0.01026,-0.317279 -0.08822,-0.415816 -0.229062,-0.230607 -0.996206,0.09441 -0.996206,0.422007 0,0.308509 0.966282,0.302318 1.084423,-0.0063 z M 60.492406,48.650228 c 0.405497,-0.308509 0.983824,-0.326049 1.269633,-0.03921 0.147548,0.147547 0.250729,0.156317 0.33482,0.03043 0.06809,-0.100601 0.248149,-0.229059 0.404467,-0.287356 0.180049,-0.06656 0.313668,-0.37145 0.370416,-0.845047 0.04902,-0.408077 0.226482,-1.144785 0.395697,-1.638503 0.25692,-0.749603 0.393117,-0.915725 0.832666,-1.027675 0.461215,-0.117109 0.401887,-0.143421 -0.5061,-0.220291 -0.601025,-0.05055 -1.059146,-0.01754 -1.100934,0.08203 -0.12072,0.289936 -0.445739,0.554076 -0.831116,0.675316 -0.386928,0.12226 -0.656227,0.661384 -0.476178,0.953385 0.118137,0.187787 -0.20017,0.879096 -0.49475,1.074623 -0.103184,0.07068 -0.361646,0.127425 -0.574198,0.129494 -0.399307,0.0025 -0.517449,0.244539 -0.214099,0.431809 0.25795,0.15993 0.204298,0.4282 -0.08667,0.4282 -0.140841,0 -0.25692,-0.07688 -0.25692,-0.171281 0,-0.09441 -0.192947,-0.171278 -0.429744,-0.171278 -0.236799,0 -0.429748,0.07688 -0.429748,0.171278 0,0.09441 0.116081,0.171281 0.256919,0.171281 0.14239,0 0.2595,0.118137 0.2595,0.257951 -0.002,0.334818 0.829568,0.33224 1.276339,-0.0052 z m 1.127244,-2.078051 c 0,-0.199138 0.11711,-0.461216 0.26053,-0.580388 0.4055,-0.339979 0.444708,-0.122275 0.07533,0.439549 -0.296644,0.45038 -0.334303,0.46689 -0.335853,0.140839 z m -3.103147,0.46328 c 0.201717,-0.127427 0.207907,-0.230607 0.03663,-0.555626 -0.124845,-0.239378 -0.17128,-0.268268 -0.116082,-0.0779 0.05778,0.193979 -0.02631,0.413239 -0.20791,0.554078 -0.338948,0.254856 -0.09957,0.323988 0.287357,0.07945 z m 6.13252,-0.613406 c 0.14858,-0.386926 -0.267236,-0.826475 -0.554078,-0.587098 -0.181597,0.147549 -0.185207,0.25692 -0.02374,0.51642 0.247633,0.397244 0.444193,0.420975 0.577811,0.07067 z m 6.760889,-1.275825 c 0,-0.233188 -0.303351,-0.385378 -0.41169,-0.20894 -0.103185,0.16612 0.0454,0.37145 0.268269,0.37145 0.07945,0 0.143421,-0.07275 0.143421,-0.16251 z m -5.090916,-0.783139 c 0.125885,-0.328629 0.03766,-0.328629 -0.23422,0 -0.12433,0.14858 -0.139807,0.25692 -0.0387,0.25692 0.09596,0.001 0.21771,-0.114527 0.272911,-0.25692 z m -3.281132,-0.837824 c 0.142389,-0.208939 0.09957,-1.993958 -0.04798,-1.993958 -0.05159,0 -0.32863,0.216678 -0.617019,0.479788 -0.679957,0.621145 -0.884255,1.358885 -0.459669,1.677711 0.323988,0.243506 0.904377,0.160445 1.124667,-0.163541 z m 5.28025,0.157349 c 0,-0.219257 -0.484946,-0.608246 -0.762502,-0.608246 -0.174891,0 -0.101631,0.44316 0.109889,0.652614 0.284779,0.285811 0.652616,0.2595 0.652616,-0.04437 z m -4.196858,-2.771937 c 0.651067,-0.497329 0.772305,-0.924496 0.257951,-0.924496 -0.336368,0 -0.871358,0.42046 -0.871358,0.685118 0,0.07945 -0.04642,0.268268 -0.103183,0.415815 -0.14858,0.386411 0.03921,0.33998 0.716587,-0.176437 z m 5.313785,-0.410658 c -0.05778,-0.09339 -0.236799,-0.166121 -0.396728,-0.159929 -0.238346,0.01136 -0.228028,0.03921 0.05314,0.159929 0.459669,0.199138 0.464827,0.199138 0.343591,0 z m 0.857944,-0.926042 c 0,-0.318827 -0.09957,-0.359068 -0.869293,-0.359068 -0.778495,0 -0.863104,0.03507 -0.803775,0.342557 0.05365,0.2822 0.209972,0.347718 0.869294,0.361649 0.708332,0.01393 0.803774,-0.02631 0.803774,-0.345138 z m 33.656895,-3.173827 c 0.0521,-0.08204 -0.015,-0.241957 -0.14704,-0.351329 -0.1981,-0.163539 -0.22648,-0.136197 -0.14961,0.151159 0.10013,0.38899 0.15683,0.425619 0.29665,0.20017 z M 76.413125,31.355665 c -0.1687,-0.1687 -0.189853,-0.147548 -0.09596,0.09597 0.06448,0.170248 0.160444,0.264657 0.213068,0.211521 0.05417,-0.0516 0,-0.1914 -0.11711,-0.307478 z m 20.076822,-4.82626 c 0,-0.03405 -0.134674,-0.170246 -0.299744,-0.299737 -0.271877,-0.213067 -0.27807,-0.206362 -0.06396,0.06551 0.22236,0.284262 0.363714,0.376608 0.363714,0.234219 z M 84.121211,19.477034 c 0,-0.129496 -2.124485,-0.769727 -2.21941,-0.667577 -0.10421,0.113499 -0.04798,0.13981 1.189154,0.576777 0.686662,0.243506 1.030256,0.273427 1.030256,0.09079 z m -3.489044,89.903576 c -0.03766,-0.0681 -0.07893,-0.43852 -0.09079,-0.8239 -0.01857,-0.57162 0.0748,-0.79087 0.500425,-1.19896 0.454508,-0.43335 0.50713,-0.57936 0.414268,-1.12879 -0.123301,-0.72123 0.279618,-1.69371 0.698017,-1.69371 0.477727,0 1.806174,-0.72947 2.276154,-1.24693 1.892848,-2.09817 1.906775,-2.11107 2.157504,-1.84125 0.334819,0.35391 0.478756,1.65088 0.207907,1.87685 -0.117638,0.097 -0.264657,0.12588 -0.326571,0.0656 -0.06301,-0.0629 -0.113446,0.0933 -0.113446,0.34514 0,0.25279 -0.07789,0.45864 -0.172304,0.45864 -0.09492,0 -0.171278,0.0754 -0.171278,0.1687 0,0.19914 -1.148922,2.05535 -2.1477,3.47202 -0.522605,0.7429 -0.870324,1.04677 -1.448652,1.26705 -0.87239,0.33482 -1.682355,0.46122 -1.783471,0.27962 z m 9.158284,-4.32017 c 0,-0.10063 0.0764,-0.18262 0.171276,-0.18262 0.220293,0 0.220293,0.12174 0,0.25692 -0.09438,0.0583 -0.171276,0.0264 -0.171276,-0.0743 z M 49.078603,94.417394 c 0,-0.100601 0.07945,-0.182629 0.172311,-0.182629 0.221836,0 0.221836,0.121748 0,0.256919 -0.09389,0.05934 -0.172311,0.02631 -0.172311,-0.07428 z M 20.272211,92.90374 c -1.90935,-2.980879 -4.28095,-8.361732 -5.433475,-12.325918 -1.834029,-6.317729 -2.521724,-13.534675 -1.850022,-19.443294 0.27962,-2.450016 0.584517,-2.602207 0.537568,-0.265691 -0.0846,4.321191 -0.05314,5.890565 0.125886,6.105695 0.104728,0.124844 0.279618,0.767145 0.388989,1.425952 0.108334,0.659838 0.26827,1.331542 0.353909,1.495083 0.0846,0.163542 0.15735,0.667576 0.158897,1.115896 0.0025,0.450896 0.109375,1.280466 0.239379,1.848989 0.131037,0.566976 0.285808,1.415633 0.34617,1.889232 0.191399,1.514169 1.601873,4.937176 2.513987,6.108789 0.26311,0.342557 0.836277,1.366107 1.269634,2.27719 0.435937,0.910565 0.857945,1.656041 0.941005,1.656041 0.180048,0 0.313666,0.322441 0.629914,1.511592 0.350298,1.311421 0.304898,1.692673 -0.279618,2.419578 l -0.522608,0.650035 0.448319,1.357853 c 0.497329,1.511592 0.930686,3.161444 0.830084,3.161444 -0.03663,-0.001 -0.350297,-0.444706 -0.698014,-0.988466 z M 89.617619,82.046594 c 0.338943,-0.219258 0.735678,-0.219258 0.602059,0 -0.05774,0.09338 -0.275487,0.171279 -0.482366,0.1687 -0.305925,-0.001 -0.328627,-0.03303 -0.119665,-0.1687 z m -9.96257,-1.131372 c 0,-0.302318 0.370419,-0.249181 0.476178,0.06965 0.03766,0.111959 -0.05366,0.204298 -0.204298,0.204298 -0.148579,-5.15e-4 -0.27188,-0.125357 -0.27188,-0.273944 z M 27.514436,74.653209 c -0.0619,-0.100591 -0.0717,-0.224416 -0.02166,-0.274459 0.122262,-0.123303 0.457089,0.09338 0.457089,0.294579 0.0015,0.220291 -0.295611,0.206361 -0.435421,-0.02012 z m 0.608247,-0.676347 c 0,-0.220805 0.122276,-0.220805 0.257951,0 0.05778,0.09339 0.02527,0.172312 -0.07687,0.172312 -0.09906,0 -0.181082,-0.0779 -0.181082,-0.172312 z m -0.901796,-1.109703 c -0.345136,-0.47205 -0.372996,-0.607218 -0.129495,-0.607218 0.09339,0 0.171279,0.08977 0.171279,0.200687 0,0.110917 0.129496,0.343591 0.28581,0.516417 0.156318,0.172312 0.2141,0.310058 0.128454,0.30851 -0.08564,-0.0043 -0.290967,-0.190369 -0.456057,-0.418396 z m 84.338023,-5.175523 c -0.0682,-0.0681 -0.11967,-0.323986 -0.11506,-0.565944 l 0.0107,-0.444192 0.16457,0.413237 c 0.18055,0.448319 0.14291,0.801195 -0.0609,0.596899 z M 35.26534,66.78984 c -0.07428,-0.119692 -0.08667,-0.26311 -0.03043,-0.31986 0.153739,-0.153737 0.321406,0.07326 0.23783,0.320891 -0.05829,0.17386 -0.09906,0.17386 -0.207392,-0.001 z m 1.1907,-0.298191 c 0.247116,-0.244538 0.487527,-0.4055 0.536537,-0.359068 0.134647,0.134647 -0.497329,0.80687 -0.756828,0.80687 -0.131551,-0.001 -0.03921,-0.187272 0.220291,-0.447802 z m -1.806171,-0.412205 c 0,-0.09339 0.120719,-0.171281 0.268268,-0.171281 0.147549,0 0.22029,0.0779 0.161478,0.171281 -0.137747,0.224417 -0.429746,0.224417 -0.429746,0 z m 1.202567,-3.947162 c 0,-0.219258 0.12226,-0.219258 0.257951,0 0.05778,0.09441 0.02373,0.171279 -0.07533,0.171279 -0.100601,0 -0.18263,-0.07688 -0.18263,-0.171279 z m -2.57693,-6.52409 c 0,-0.22029 0.122276,-0.22029 0.257952,0 0.05778,0.09339 0.02528,0.172311 -0.07533,0.172311 -0.102159,0 -0.182629,-0.0779 -0.182629,-0.172311 z m -0.950805,-1.382099 c -0.156318,-0.254341 -0.03146,-0.346172 0.24299,-0.17386 0.148579,0.08925 0.16612,0.179018 0.05055,0.24918 -0.09699,0.06088 -0.229577,0.02683 -0.293547,-0.07532 z M 15.266935,52.688189 c 0,-0.235768 0.03921,-0.332757 0.08668,-0.2141 0.04643,0.118138 0.04643,0.31109 0,0.429747 -0.04797,0.118137 -0.08668,0.02271 -0.08668,-0.215647 z m 0.106792,-1.562665 c -0.127425,-0.332756 0.215133,-1.869111 0.418396,-1.869111 0.13981,0 0.05159,0.755796 -0.204296,1.710213 -0.08307,0.314697 -0.138261,0.354939 -0.2141,0.158898 z m 1.927409,-6.161928 c 0,-0.09339 0.07688,-0.171277 0.171279,-0.171277 0.09441,0 0.17128,0.0779 0.17128,0.171277 0,0.09441 -0.07688,0.172312 -0.17128,0.172312 -0.09441,0 -0.171279,-0.0779 -0.171279,-0.172312 z m 0.513838,-0.950805 c 0,-0.214101 0.547888,-1.133436 0.625788,-1.053987 0.09339,0.09183 -0.407047,1.148913 -0.544276,1.148913 -0.04385,-0.0015 -0.0815,-0.04333 -0.0815,-0.09492 z m 35.563668,-1.140143 c -0.0025,-0.161477 0.0779,-0.342559 0.18005,-0.404468 0.300768,-0.187788 0.345138,0.01026 0.0779,0.36268 -0.221321,0.291484 -0.252791,0.295096 -0.257949,0.04179 z M 18.503701,42.58168 c 0,-0.09441 0.0779,-0.219259 0.172311,-0.277039 0.09339,-0.05933 0.171278,-0.03043 0.171278,0.06448 0,0.09492 -0.0779,0.22029 -0.171278,0.278587 -0.09389,0.05778 -0.172311,0.0289 -0.172311,-0.06603 z m 33.397914,-1.736524 c 0,-0.18882 0.102159,-0.345139 0.22648,-0.345139 0.173859,0 0.185209,0.08204 0.04283,0.345139 -0.230607,0.429229 -0.2693,0.429229 -0.2693,0 z M 29.731264,39.772081 c 0.02012,-0.118137 0.09338,-0.311089 0.167668,-0.429747 0.08564,-0.13723 0.03662,-0.21513 -0.133619,-0.21513 -0.147549,0 -0.268269,-0.111944 -0.268269,-0.251761 0,-0.162507 0.09957,-0.213067 0.283229,-0.140841 0.28581,0.109376 0.277039,-0.108334 -0.04902,-1.206693 -0.06553,-0.216678 0.01651,-0.33998 0.265688,-0.404466 0.19759,-0.0516 0.359069,-0.146002 0.359069,-0.210488 0,-0.06294 0.138777,-0.125885 0.312119,-0.13723 0.522608,-0.04024 1.753033,-0.636107 1.692673,-0.821316 -0.03146,-0.09441 -0.234219,-0.18366 -0.449865,-0.193978 -0.457089,-0.02373 -0.726906,-0.374029 -0.601026,-0.778496 0.04902,-0.157349 0.0088,-0.337399 -0.08925,-0.397759 -0.09957,-0.06192 -0.179017,0.03146 -0.179017,0.210488 0,0.176438 -0.1135,0.469986 -0.25176,0.653647 -0.394149,0.521576 -0.330178,-0.06913 0.08047,-0.744447 0.472566,-0.772304 0.433358,-1.006523 -0.192947,-1.132404 -0.844015,-0.168699 -0.887867,-0.133619 -0.382798,0.29974 0.462248,0.397759 0.464828,0.416849 0.177469,0.858976 -0.162508,0.248149 -0.410656,0.450897 -0.548918,0.450897 -0.13981,0 -0.25434,0.06914 -0.25434,0.152192 0,0.08307 -0.15735,0.192947 -0.350297,0.242988 -0.190368,0.05056 -0.33482,0.15632 -0.318827,0.235768 0.07428,0.38022 -0.260531,1.259316 -0.478757,1.259316 -0.136198,0 -0.205328,0.06809 -0.154769,0.14858 0.05056,0.08202 0.304898,0.114527 0.566975,0.07532 0.435937,-0.06914 0.451929,-0.05314 0.17747,0.170248 -0.165089,0.133619 -0.300771,0.341526 -0.300771,0.458636 0,0.268268 -0.822346,0.08822 -1.216496,-0.26569 -0.147549,-0.133619 -0.402918,-0.242989 -0.564395,-0.242989 -0.245569,0 -0.260531,-0.05934 -0.09802,-0.364227 0.107306,-0.200169 0.342558,-0.401886 0.521575,-0.449866 0.179017,-0.04642 0.326051,-0.157349 0.326051,-0.247117 0,-0.08667 -0.06552,-0.120719 -0.146001,-0.07068 -0.08047,0.04902 -0.234218,-0.100601 -0.339978,-0.333789 -0.105765,-0.23422 -0.26053,-0.423039 -0.346171,-0.423039 -0.259498,0 -1.051922,0.696466 -1.010135,0.887866 0.02166,0.100601 -0.07067,0.222869 -0.202749,0.270849 -0.167667,0.0619 -0.207909,0.001 -0.134646,-0.1914 0.06036,-0.154771 0.03251,-0.28065 -0.05779,-0.28065 -0.09028,0 -0.166121,-0.128454 -0.166121,-0.285809 0,-0.26311 -0.02271,-0.26311 -0.3147,0 -0.17231,0.157349 -0.396727,0.285809 -0.496297,0.285809 -0.100601,0 -0.561816,0.339979 -1.024065,0.754248 -0.690275,0.619598 -0.928106,0.738255 -1.324835,0.663965 -0.384345,-0.07326 -0.569555,0.0088 -0.905406,0.404467 l -0.42304,0.496297 0.302319,-0.554079 c 0.16612,-0.302318 0.964736,-1.438332 1.772122,-2.521727 7.625538,-10.225681 18.746828,-17.264124 31.202236,-19.746643 4.856696,-0.969895 10.691027,-1.371782 13.581622,-0.939456 0.833697,0.124844 1.339281,0.25434 1.121054,0.290968 -0.21926,0.03508 -0.44058,0.173858 -0.492171,0.308509 -0.05521,0.143421 -0.330176,0.242991 -0.666544,0.242991 -0.628369,0 -0.947196,0.270848 -0.465859,0.396727 0.25176,0.06656 0.243506,0.08203 -0.04902,0.09802 -0.192947,0.01245 -0.44316,0.111958 -0.555626,0.224418 -0.139809,0.138776 -1.290785,0.21771 -3.684052,0.249179 -4.146301,0.05674 -4.433657,0.08822 -5.638804,0.621146 -0.513836,0.226481 -1.333604,0.459668 -1.822679,0.51745 -0.490106,0.05778 -1.031803,0.181595 -1.204115,0.276008 -0.171277,0.09338 -0.541695,0.219257 -0.819766,0.279616 -0.375576,0.07945 -0.44316,0.146001 -0.264658,0.255888 0.131037,0.08047 0.300772,0.111944 0.375576,0.06553 0.07326,-0.0454 0.405498,-0.0088 0.736709,0.08204 0.361645,0.100601 0.639716,0.103184 0.699045,0.01026 0.05417,-0.08668 0,-0.15735 -0.118137,-0.15735 -0.136197,0 -0.156318,-0.05934 -0.05521,-0.15735 0.293548,-0.283228 1.363012,-0.268268 1.77728,0.02166 0.374027,0.262077 0.379187,0.288389 0.07945,0.442127 -0.31986,0.165088 -1.503853,0.448319 -2.659988,0.632495 -0.468439,0.07688 -0.653648,0.201717 -0.726905,0.49733 -0.09339,0.370416 -0.186241,0.397759 -1.349082,0.397759 -1.338765,0 -2.919486,0.365258 -2.825077,0.653648 0.0779,0.235767 0.944616,0.325017 1.201535,0.123301 0.700077,-0.554078 2.450015,-0.663964 2.249331,-0.13981 -0.103185,0.269301 0.384345,0.515387 0.536536,0.270848 0.05519,-0.09079 0.249181,-0.165088 0.43439,-0.165088 0.190367,0 0.333786,-0.118136 0.333786,-0.276007 0,-0.18263 0.09339,-0.241958 0.27085,-0.172312 0.150126,0.05674 0.386926,0.104728 0.527767,0.104728 0.222869,0 0.222869,0.03251 -0.0077,0.262077 -0.418396,0.418398 -0.177471,0.706785 0.524155,0.624758 0.429745,-0.05056 0.582969,-0.01244 0.501457,0.12072 -0.0815,0.133105 0.128454,0.193979 0.670154,0.193979 0.541698,0 0.818738,0.08047 0.887868,0.255886 0.05417,0.140842 0.20636,0.257951 0.337401,0.257951 0.214099,0 0.31212,0.210489 0.196556,0.422007 -0.02373,0.04283 0.109377,0.188822 0.29458,0.323471 0.289938,0.211519 0.308508,0.308509 0.134647,0.690277 -0.111958,0.241957 -0.393118,0.490105 -0.623208,0.547886 l -0.419944,0.105257 0.370416,0.371449 c 0.205329,0.204296 0.54015,0.385378 0.745478,0.404466 0.205329,0.01754 0.613407,0.154772 0.906956,0.305929 0.419427,0.21668 0.520028,0.368871 0.474628,0.711428 -0.03146,0.23938 -0.168699,0.506101 -0.304897,0.590708 -0.186241,0.119693 -0.192947,0.15735 -0.02271,0.158897 0.123302,0.001 0.176438,0.08204 0.118137,0.176439 -0.05778,0.09338 0.01497,0.17128 0.161476,0.17128 0.14858,0 0.26827,0.116082 0.26827,0.256918 0,0.13981 -0.105766,0.25692 -0.236799,0.25692 -0.359067,0 -1.82526,0.682538 -1.82526,0.850205 0,0.08204 -0.173857,0.114527 -0.386926,0.07687 -0.213067,-0.03921 -0.289936,-0.02786 -0.172309,0.02889 0.157348,0.07533 0.165087,0.18882 0.02889,0.44574 -0.102138,0.188819 -0.230608,0.299737 -0.284777,0.245569 -0.05417,-0.05314 -0.185209,0.02166 -0.290968,0.167667 -0.107307,0.144968 -0.332757,0.284778 -0.504037,0.310056 -0.364226,0.05314 -0.627335,0.418397 -0.512806,0.714009 0.06914,0.181596 -0.285809,0.352876 -0.886833,0.429745 -0.09339,0.01244 -0.27962,0.111958 -0.40808,0.22029 -0.132064,0.107307 -0.345137,0.197591 -0.472565,0.199138 -0.26569,0.0025 -1.608581,1.250544 -1.608581,1.496114 0,0.08667 -0.165088,0.108334 -0.36629,0.0454 -0.233187,-0.07532 -0.325016,-0.05158 -0.25176,0.06294 0.08925,0.146 -1.255704,0.498877 -1.613222,0.422007 -1.486313,-0.313667 -2.08218,-0.334818 -3.565912,-0.132064 -0.607216,0.0846 -0.979697,0.05933 -1.143753,-0.07688 -0.188821,-0.156318 -0.382799,-0.143421 -0.860008,0.05521 -0.338948,0.140841 -0.617018,0.327597 -0.617018,0.411688 0,0.08307 -0.240411,0.161478 -0.535506,0.170248 -0.293549,0.0088 -1.058114,0.290968 -1.698864,0.625788 -1.376425,0.724325 -1.63386,0.763019 -1.461033,0.226481 0.0681,-0.213067 0.13981,-0.632494 0.162509,-0.933266 0.04902,-0.699045 0.622178,-1.443493 2.205479,-2.858094 1.481153,-1.326382 3.560752,-2.40926 3.560752,-1.855181 0,0.08047 0.195011,0.110916 0.434389,0.06553 0.404467,-0.0779 0.411689,-0.09957 0.128454,-0.31986 -0.290969,-0.225449 -0.28839,-0.249181 0.03921,-0.506098 0.188819,-0.14858 0.554078,-0.240412 0.812544,-0.20275 0.345138,0.04902 0.498878,-0.02012 0.57162,-0.250729 0.05934,-0.18882 0.692857,-0.593287 1.546672,-0.993626 1.661203,-0.773336 2.32878,-1.338764 2.192581,-1.859309 -0.07428,-0.277038 0.05521,-0.424587 0.608249,-0.707816 0.385379,-0.19656 0.759406,-0.345139 0.832663,-0.32863 0.07428,0.01651 0.267238,-0.02889 0.429747,-0.100591 0.191399,-0.08307 0.51745,0.0077 0.919337,0.254339 0.502488,0.310058 0.652614,0.339979 0.767145,0.153739 0.316247,-0.511258 -1.045216,-0.860007 -3.91466,-0.999816 -0.510227,-0.02631 -0.488559,-0.387959 0.05933,-1.037995 0.33121,-0.394148 0.377641,-0.526734 0.181599,-0.526734 -0.143423,0 -0.31109,0.08047 -0.374029,0.180049 -0.07428,0.119692 -0.262078,0.08204 -0.554078,-0.107307 -0.38899,-0.254339 -0.58039,-0.265689 -1.584334,-0.08564 -0.627337,0.111957 -1.370234,0.353909 -1.646243,0.536538 -0.278585,0.183661 -0.643844,0.332756 -0.815123,0.334819 -0.171278,0 -0.26311,0.0779 -0.205329,0.172311 0.17747,0.28581 0.775917,0.1914 1.340313,-0.208939 0.585547,-0.416849 2.584665,-0.658806 2.893174,-0.350296 0.312121,0.31212 -0.666544,1.469802 -1.675131,1.982609 -0.517449,0.263108 -0.986405,0.591738 -1.039025,0.729484 -0.05263,0.137745 -0.204297,0.250728 -0.336369,0.250728 -0.131037,0 -0.241957,0.09596 -0.244537,0.214099 -0.0052,0.23422 -1.374362,0.987434 -1.794821,0.987434 -0.142389,0 -0.472565,0.247118 -0.731548,0.548922 -1.094743,1.270665 -1.197924,1.338762 -1.952172,1.309872 l -0.721746,-0.02786 0.541697,-0.48237 c 0.297159,-0.267236 0.541697,-0.526735 0.541697,-0.579357 0,-0.180049 -0.742898,0.304898 -1.282016,0.838857 -0.298706,0.29458 -0.833697,0.624756 -1.189153,0.730516 -0.447287,0.133619 -0.589675,0.136198 -0.462247,0.01026 0.319859,-0.318827 0.20017,-0.526735 -0.129495,-0.229061 -0.525189,0.474629 -0.587097,0.31986 -0.168699,-0.425619 0.217708,-0.390538 0.719166,-0.973505 1.112283,-1.297492 0.394147,-0.32347 0.796035,-0.816155 0.893024,-1.094742 0.103185,-0.290968 0.367838,-0.578327 0.627337,-0.676348 0.579357,-0.220289 0.598446,-0.217709 0.598446,0.09185 0,0.359068 0.512806,0.530346 0.701625,0.234219 0.108335,-0.170249 0.152191,-0.177471 0.154771,-0.02373 0.001,0.117109 0.08668,0.214099 0.192947,0.214099 0.108335,0 0.15116,-0.152191 0.09957,-0.352878 -0.06655,-0.254338 0.01244,-0.393116 0.28839,-0.497328 0.20791,-0.07945 0.482368,-0.26827 0.609796,-0.419428 0.125886,-0.150127 0.41169,-0.276007 0.636106,-0.276007 0.225449,0 0.407046,-0.06913 0.407046,-0.153739 0,-0.08822 -0.265689,-0.08925 -0.643844,-0.0025 -0.352877,0.0846 -0.967316,0.107306 -1.360434,0.05055 -0.617016,-0.08564 -0.828537,-0.02373 -1.515202,0.449866 -0.439548,0.300771 -0.850205,0.496298 -0.914176,0.431809 -0.06553,-0.06448 0.02271,-0.217709 0.192946,-0.344106 0.210487,-0.153737 0.248149,-0.265689 0.118137,-0.346168 -0.30593,-0.188823 0.337401,-0.798616 0.715556,-0.67738 0.463279,0.147548 0.710395,-0.0681 0.415816,-0.361646 -0.136197,-0.136198 -0.319859,-0.247118 -0.409109,-0.247118 -0.09079,0 -0.2595,-0.116082 -0.376609,-0.256918 -0.2693,-0.325019 -1.155104,-0.32863 -1.717952,-0.0077 -0.236798,0.134647 -0.692854,0.365259 -1.013745,0.513838 -0.32244,0.147549 -0.910569,0.559238 -1.309876,0.912115 -0.400339,0.351328 -1.050375,0.900763 -1.447103,1.219075 -0.396728,0.318311 -0.803774,0.758375 -0.902827,0.976085 -0.09906,0.217711 -0.418398,0.494749 -0.707817,0.615986 -0.289938,0.119693 -0.761988,0.423039 -1.050375,0.672737 -0.289938,0.250728 -0.747027,0.570587 -1.018905,0.712975 -0.395698,0.202749 -0.439549,0.276008 -0.215132,0.3601 0.153738,0.06036 0.280651,0.03251 0.280651,-0.05934 0,-0.08925 0.08047,-0.166122 0.181596,-0.166122 0.101108,0 0.465859,-0.192946 0.815125,-0.430776 0.350297,-0.236799 0.661386,-0.35133 0.692856,-0.25692 0.153738,0.459668 1.821132,-0.08306 2.477358,-0.809965 0.165089,-0.182629 0.47463,-0.317279 0.686666,-0.298707 0.213066,0.01909 0.541696,-0.04902 0.729485,-0.151159 0.40034,-0.216679 1.484764,-0.619598 1.678743,-0.623209 0.07326,-0.001 0.01497,0.179017 -0.129496,0.399309 -0.14342,0.219258 -0.221837,0.440578 -0.170247,0.492685 0.05055,0.05056 -0.181596,0.331209 -0.513837,0.624756 -0.334821,0.292 -0.608248,0.610828 -0.608248,0.706785 0,0.09441 -0.288389,0.29458 -0.641266,0.443159 -0.679959,0.283231 -1.419245,0.887867 -1.419245,1.162327 0,0.09183 0.345137,0.124845 0.810995,0.07171 0.69131,-0.0779 0.767147,-0.05934 0.510228,0.129495 -0.296128,0.216678 -1.658623,1.440913 -2.879246,2.589825 -0.338948,0.31728 -0.716587,0.886834 -0.842468,1.263443 -0.124844,0.379188 -0.28323,0.652616 -0.351328,0.610828 -0.07068,-0.04283 -0.22029,0.145998 -0.333789,0.420459 -0.304898,0.738255 -1.283563,1.583302 -1.54048,1.327414 -0.154772,-0.152192 -0.176439,-0.133619 -0.09597,0.08047 0.07945,0.202749 -0.03663,0.330176 -0.418395,0.462247 -0.289938,0.100591 -0.52519,0.303351 -0.52519,0.449867 0,0.147547 -0.09338,0.265688 -0.206358,0.265688 -0.152192,0 -0.15632,0.05056 -0.01244,0.19398 0.244537,0.244537 0.09079,0.638686 -0.442129,1.133435 -0.231639,0.214099 -0.359067,0.390538 -0.284777,0.390538 0.07428,0 -0.07326,0.192947 -0.327597,0.429745 -0.508679,0.462249 -0.779527,0.542728 -0.728968,0.207909 z m -1.87685,-7.253574 c 0.08204,-0.344107 0.06448,-0.457089 -0.05055,-0.344107 -0.09338,0.09339 -0.226479,0.402918 -0.291999,0.685118 -0.08204,0.345137 -0.06294,0.458636 0.05056,0.345137 0.09441,-0.09441 0.226481,-0.402918 0.291999,-0.686148 z m -0.45812,-0.353909 c 0.02271,-0.253309 -0.03405,-0.394149 -0.134648,-0.333788 -0.199137,0.124844 -0.231638,0.773336 -0.03508,0.773336 0.07378,-0.0015 0.150643,-0.198106 0.169731,-0.439548 z m 1.842285,-1.619931 c 0.365257,-0.402919 0.06551,-0.469986 -0.331209,-0.07428 -0.303351,0.302319 -0.3374,0.416849 -0.124844,0.416849 0.08099,0 0.284778,-0.154771 0.456056,-0.342558 z m 1.031802,-1.546672 c 0.134647,-0.217711 -0.09183,-0.217711 -0.429746,0 -0.22287,0.142389 -0.21771,0.167667 0.03251,0.170246 0.160445,0.001 0.337916,-0.0748 0.397245,-0.170246 z m 1.671522,-1.066885 c 0.296127,-0.276007 0.450896,-0.553047 0.376607,-0.671188 -0.08307,-0.133619 -0.05159,-0.157349 0.09441,-0.06655 0.147547,0.08925 0.193978,0.05674 0.140842,-0.103184 -0.102159,-0.304897 -0.348752,-0.25692 -0.566979,0.111944 -0.09339,0.159929 -0.382798,0.507647 -0.643844,0.772304 -0.259497,0.26569 -0.472565,0.575746 -0.472565,0.688729 5.16e-4,0.222869 0.170763,0.107821 1.071528,-0.732064 z m 15.161828,-3.739253 c -0.05934,-0.09441 -0.183662,-0.17128 -0.279618,-0.17128 -0.09339,0 -0.123302,0.07688 -0.06552,0.17128 0.05778,0.09441 0.18366,0.172311 0.278585,0.172311 0.09492,0 0.124845,-0.0779 0.06656,-0.172311 z m 7.099837,-2.0569 c 0.247115,0.0025 0.250727,0.02528 0.02786,0.168701 -0.224417,0.144968 -0.221837,0.167669 0.02373,0.168699 0.151159,0.0025 0.368869,-0.105764 0.481336,-0.24041 0.158897,-0.192947 0.133619,-0.26311 -0.128454,-0.347718 -0.451929,-0.143419 -0.894057,0.05417 -0.878066,0.394148 0.0088,0.180051 0.0454,0.202751 0.09957,0.0681 0.04953,-0.119692 0.216678,-0.213067 0.37403,-0.21152 z m -5.080599,-1.54822 c 0.144969,0 0.307477,-0.116082 0.361647,-0.256918 0.133619,-0.345138 -0.03663,-0.323471 -0.715555,0.08822 -0.33482,0.204297 -0.516418,0.424586 -0.445739,0.540149 0.0846,0.134648 0.185209,0.108335 0.327598,-0.08822 0.115555,-0.155801 0.32708,-0.28323 0.472049,-0.28323 z m 1.930503,-1.544092 c 0.05934,-0.09441 0.03043,-0.172312 -0.06553,-0.172312 -0.09441,0 -0.219257,0.0779 -0.278585,0.172312 -0.05933,0.09339 -0.02786,0.171277 0.06655,0.171277 0.09441,0 0.219775,-0.0779 0.277555,-0.171277 z m 1.461032,-1.374362 c 0,-0.09441 -0.116082,-0.17231 -0.256919,-0.17231 -0.14084,0 -0.256917,0.0779 -0.256917,0.17231 0,0.09339 0.116082,0.171279 0.256917,0.171279 0.140842,0 0.256919,-0.0779 0.256919,-0.171279 z m -4.12102,20.166588 c 0,-0.144969 -0.11711,-0.307477 -0.257951,-0.361648 -0.333787,-0.128453 -0.333787,-0.404466 0,-0.404466 0.140841,0 0.257951,-0.11711 0.257951,-0.25692 0,-0.142388 -0.08203,-0.25795 -0.183661,-0.25795 -0.09957,0 -0.134648,-0.07326 -0.07945,-0.163541 0.05519,-0.09029 0.228027,-0.116082 0.382798,-0.05674 0.22029,0.0846 0.25434,0.03921 0.161479,-0.207908 -0.134647,-0.348748 0.127427,-0.594318 0.639716,-0.598445 0.236799,-0.0025 0.296127,0.08564 0.230608,0.339979 -0.06913,0.264658 -0.0052,0.345138 0.280651,0.34617 0.20275,0 0.666544,0.08047 1.024064,0.181598 0.601026,0.167667 0.650036,0.22648 0.602057,0.726905 -0.06913,0.711427 -0.603089,0.973505 -1.986221,0.977632 -0.850206,-0.0015 -1.072043,-0.05675 -1.072043,-0.264657 z M 72.039828,36.43781 c -0.236799,-0.235769 -0.101631,-0.571618 0.229059,-0.571618 0.229062,0 0.344107,0.114527 0.344107,0.344105 5.16e-4,0.329661 -0.336367,0.46328 -0.573166,0.227513 z m -9.367222,-4.819036 c -0.107307,-0.201718 -0.19398,-0.485979 -0.19398,-0.634558 0,-0.146001 -0.0779,-0.268269 -0.172312,-0.268269 -0.201717,0 -0.225449,-0.678927 -0.03146,-0.983825 0.0779,-0.122261 0.365259,-0.181598 0.684084,-0.140841 0.302319,0.03921 0.550467,0.001 0.550467,-0.08047 0,-0.15993 1.155104,-0.100601 1.323803,0.06809 0.1687,0.166121 -0.333788,0.643846 -0.578325,0.548921 -0.316248,-0.120721 -0.290967,0.239377 0.04385,0.607215 0.319858,0.353908 0.197591,0.657258 -0.25176,0.622176 -0.2141,-0.01651 -0.290969,-0.123303 -0.236799,-0.332755 0.138778,-0.526736 -0.196558,-0.336369 -0.578326,0.327597 -0.34978,0.608248 -0.3699,0.618565 -0.559236,0.266721 z m -23.087108,-2.29989 c 0.116083,-0.117109 0.253308,-0.168699 0.305931,-0.116082 0.05263,0.05263 -0.04024,0.14858 -0.21152,0.213069 -0.24299,0.09492 -0.261562,0.0748 -0.09441,-0.09699 z m 35.600813,-0.238861 c -0.315732,-0.379187 -0.136198,-0.42304 0.218226,-0.05314 0.164572,0.173858 0.232671,0.314699 0.149611,0.314699 -0.08409,0 -0.249695,-0.11711 -0.367837,-0.261562 z m -7.673004,-0.01909 c -0.141873,-0.05778 -0.118136,-0.172311 0.08564,-0.37764 0.203265,-0.205328 0.349265,-0.241956 0.485978,-0.118137 0.108334,0.09699 0.156318,0.244538 0.105764,0.327598 -0.05158,0.08307 0.01496,0.114527 0.146001,0.06913 0.151159,-0.05158 0.219257,-0.276006 0.185208,-0.622178 -0.05314,-0.524154 -0.04024,-0.535504 0.414269,-0.362679 0.338947,0.129497 0.504034,0.124844 0.591223,-0.01909 0.08668,-0.142388 0.15477,-0.144969 0.239378,-0.0077 0.06553,0.104728 0.03147,0.190368 -0.0748,0.190368 -0.106278,0 -0.144453,0.0779 -0.08564,0.172311 0.05934,0.09339 0.0052,0.172311 -0.118138,0.173857 -0.16354,0.0025 -0.154771,0.04797 0.03197,0.168702 0.209974,0.136198 0.187273,0.167668 -0.116081,0.170246 -0.203266,0.001 -0.409628,-0.09441 -0.457605,-0.213066 -0.05519,-0.133619 -0.09183,-0.109375 -0.100601,0.0681 -0.01857,0.41272 -0.743413,0.619598 -1.332574,0.380218 z M 36.096972,27.302743 c 0.05159,-0.08307 0.268268,-0.195009 0.482368,-0.24918 0.375576,-0.09339 0.37764,-0.08668 0.05675,0.151158 -0.370418,0.275493 -0.684086,0.333273 -0.539118,0.09802 z m 4.392902,-1.738071 c 0.337399,-0.217711 0.565429,-0.217711 0.429746,0 -0.05778,0.09338 -0.235766,0.171278 -0.395697,0.170246 -0.25176,-0.003 -0.255371,-0.02579 -0.03405,-0.170246 z m 0.858977,-0.857944 c 0,-0.09338 0.117109,-0.172311 0.25795,-0.172311 0.14084,0 0.256918,0.07945 0.256918,0.172311 0,0.09287 -0.116082,0.172311 -0.256918,0.172311 -0.141872,5.14e-4 -0.25795,-0.07893 -0.25795,-0.172311 z M 56.68402,21.684061 c 0.05779,-0.05674 0.20533,-0.06294 0.330178,-0.01394 0.134647,0.05417 0.09597,0.09596 -0.104728,0.103185 -0.181596,0.0088 -0.282199,-0.03251 -0.225449,-0.08925 z M 55.532528,21.449842 C 55.3499,21.385358 55.27303,21.293523 55.36125,21.245545 c 0.228028,-0.125885 1.715371,-0.182629 1.59465,-0.06191 -0.210487,0.210487 -1.106092,0.378156 -1.423372,0.266203 z m 1.147367,-0.804806 c -0.366291,-0.147549 -0.2368,-0.428199 0.17231,-0.370419 0.211519,0.03043 0.36629,0.13362 0.342557,0.226482 -0.05106,0.208939 -0.227512,0.256918 -0.514867,0.143937 z m -2.446921,-0.115042 c 0,-0.05417 0.17489,-0.288389 0.390537,-0.517448 0.282197,-0.302318 0.637138,-0.448319 1.268085,-0.515386 0.483916,-0.05159 1.080814,-0.144968 1.327415,-0.206361 0.333788,-0.0846 0.448318,-0.04642 0.448318,0.13981 0,0.342558 -0.450898,0.702658 -0.691307,0.554078 -0.104728,-0.06552 -0.553047,-0.06294 -0.993627,0.0063 -0.639718,0.09957 -0.734127,0.152192 -0.459668,0.263111 0.311088,0.125884 0.303349,0.138778 -0.08564,0.15219 -0.236799,0.0077 -0.603089,0.06036 -0.816156,0.11711 -0.214616,0.05727 -0.387957,0.05984 -0.387957,0.0068 z m 16.444358,-3.147515 c 0.116082,-0.04643 0.349265,-0.04902 0.515386,-0.0063 0.167152,0.04385 0.0717,0.08204 -0.211521,0.08564 -0.283744,0.0038 -0.420976,-0.03146 -0.303865,-0.07945 z"
     id="path7"
     inkscape:connector-curvature="0"
     style="fill:#ffffff;fill-opacity:1" />
</svg>
