<?xml version="1.0" encoding="UTF-8" standalone="no"?>
<svg
   xmlns:dc="http://purl.org/dc/elements/1.1/"
   xmlns:cc="http://creativecommons.org/ns#"
   xmlns:rdf="http://www.w3.org/1999/02/22-rdf-syntax-ns#"
   xmlns:svg="http://www.w3.org/2000/svg"
   xmlns="http://www.w3.org/2000/svg"
   xmlns:xlink="http://www.w3.org/1999/xlink"
   version="1.1"
   width="64"
   height="64"
   id="svg3489">
  <defs
     id="defs3491">
    <linearGradient
       x1="71.204407"
       y1="15.369057"
       x2="71.204407"
       y2="40.495617"
       id="linearGradient5013"
       xlink:href="#linearGradient4806"
       gradientUnits="userSpaceOnUse"
       gradientTransform="matrix(2.3268746,0,0,2.3268746,-135.94475,-32.842783)" />
    <linearGradient
       id="linearGradient4806">
      <stop
         id="stop4808"
         style="stop-color:#ffffff;stop-opacity:1"
         offset="0" />
      <stop
         id="stop4810"
         style="stop-color:#ffffff;stop-opacity:0.23529412"
         offset="0.42447853" />
      <stop
         id="stop4812"
         style="stop-color:#ffffff;stop-opacity:0.15686275"
         offset="0.82089913" />
      <stop
         id="stop4814"
         style="stop-color:#ffffff;stop-opacity:0.39215687"
         offset="1" />
    </linearGradient>
    <radialGradient
       xlink:href="#linearGradient3820-7-2-6"
       id="radialGradient3300-1"
       gradientUnits="userSpaceOnUse"
       gradientTransform="matrix(0.3823536,7.5555777e-8,-1.8372241e-8,0.1115198,-5.9254271,36.335849)"
       cx="99.189415"
       cy="185.29727"
       fx="99.189415"
       fy="185.29727"
       r="62.769119" />
    <linearGradient
       id="linearGradient3820-7-2-6">
      <stop
         id="stop3822-2-6-0"
         style="stop-color:#000000;stop-opacity:1"
         offset="0" />
      <stop
         id="stop3824-1-2-0"
         style="stop-color:#000000;stop-opacity:0"
         offset="1" />
    </linearGradient>
    <radialGradient
       xlink:href="#linearGradient3820-7-2-6"
       id="radialGradient4192"
       gradientUnits="userSpaceOnUse"
       gradientTransform="matrix(0.2549024,5.3967361e-8,-1.2248161e-8,0.07965545,6.7163816,44.240666)"
       cx="99.189415"
       cy="185.29727"
       fx="99.189415"
       fy="185.29727"
       r="62.769119" />
    <linearGradient
       id="linearGradient1225">
      <stop
         id="stop1221"
         offset="0"
         style="stop-color:#f37329;stop-opacity:1" />
      <stop
         id="stop1223"
         offset="1"
         style="stop-color:#e95420;stop-opacity:1" />
    </linearGradient>
    <linearGradient
       gradientTransform="matrix(0.56730769,0,0,0.56730769,-4.591344,-5.441276)"
       gradientUnits="userSpaceOnUse"
       y2="118.04783"
       x2="64.5"
       y1="13.998179"
       x1="64.5"
       id="linearGradient1227"
       xlink:href="#linearGradient1225" />
  </defs>
  <metadata
     id="metadata3494">
    <rdf:RDF>
      <cc:Work
         rdf:about="">
        <dc:format>image/svg+xml</dc:format>
        <dc:type
           rdf:resource="http://purl.org/dc/dcmitype/StillImage" />
        <dc:title></dc:title>
      </cc:Work>
    </rdf:RDF>
  </metadata>
  <g
     transform="translate(1.55e-6,-0.00183192)"
     id="g4198">
    <path
       d="m 55.999998,57.0017 a 24,6.9985714 0 1 1 -47.9999991,0 24,6.9985714 0 1 1 47.9999991,0 z"
       id="path3818-0"
       style="opacity:0.2;fill:url(#radialGradient3300-1);fill-opacity:1;stroke:none" />
    <path
       style="opacity:0.4;fill:url(#radialGradient4192);fill-opacity:1;stroke:none"
       id="path4190"
       d="m 47.999998,59.0017 a 16,4.9988822 0 1 1 -31.999999,0 16,4.9988822 0 1 1 31.999999,0 z" />
  </g>
  <circle
     class="st1"
     cx="32.000004"
     cy="31.999998"
     r="29.5"
     id="circle7"
     style="opacity:1;fill:url(#linearGradient1227);fill-opacity:1;stroke-width:1" />
  <path
     style="color:#000000;display:inline;overflow:visible;visibility:visible;opacity:0.5;fill:none;stroke:#a62100;stroke-width:1;stroke-linecap:round;stroke-linejoin:round;stroke-miterlimit:4;stroke-dasharray:none;stroke-dashoffset:0;stroke-opacity:1;marker:none;enable-background:accumulate;font-variation-settings:normal;vector-effect:none;fill-opacity:0"
     id="path2555-7-1"
     d="m 32,2.499999 c -16.277082,0 -29.5,13.222915 -29.5,29.499998 0,16.277083 13.222918,29.500005 29.5,29.5 16.27708,0 29.50001,-13.222917 29.5,-29.5 C 61.5,15.722914 48.27708,2.499999 32,2.499999 Z" />
  <path
     style="color:#000000;display:inline;overflow:visible;visibility:visible;opacity:0.4;fill:none;stroke:url(#linearGradient5013);stroke-width:1;stroke-linecap:round;stroke-linejoin:round;stroke-miterlimit:4;stroke-dasharray:none;stroke-dashoffset:0;stroke-opacity:1;marker:none;enable-background:accumulate"
     id="path3019"
     d="m 60.50001,31.999999 c 0,15.740115 -12.7599,28.499999 -28.50002,28.499999 -15.740099,0 -28.499991,-12.759884 -28.499991,-28.499999 0,-15.740116 12.759892,-28.5000013 28.499991,-28.5000013 15.74012,0 28.50002,12.7598853 28.50002,28.5000013 z" />
  <path
     d="m 32.023438,16 a 1.0001039,1.0001039 0 0 0 -0.416016,0.107422 l -7.50586,3.773437 a 1.0001039,1.0001039 0 0 0 -0.27539,0.205079 1.0001039,1.0001039 0 0 0 -0.369141,0.09375 l -0.291015,0.136718 a 1.0001039,1.0001039 0 0 0 -0.02344,0.01172 l -7.232422,3.636719 A 1.0001039,1.0001039 0 0 0 15.416016,24.529297 1.0001039,1.0001039 0 0 0 15,25.339844 v 7.548828 a 1.0001039,1.0001039 0 0 0 0.05664,0.326172 A 1.0001039,1.0001039 0 0 0 15,33.542969 v 7.546875 a 1.0001039,1.0001039 0 0 0 0.550781,0.894531 l 7.591797,3.808594 a 1.0001039,1.0001039 0 0 0 0.314453,0.0957 1.0001039,1.0001039 0 0 0 0.248047,0.1875 l 0.0332,0.01758 a 1.0001039,1.0001039 0 0 0 0.0039,0.002 l 0.328124,0.171875 a 1.0001039,1.0001039 0 0 0 0.01563,0.0078 l 7.21289,3.61914 a 1.0001039,1.0001039 0 0 0 0.740234,0.06055 1.0001039,1.0001039 0 0 0 0.742188,-0.06055 l 7.214844,-3.61914 a 1.0001039,1.0001039 0 0 0 0.01953,-0.01172 l 0.324219,-0.171875 0.0332,-0.01563 a 1.0001039,1.0001039 0 0 0 0.244141,-0.185547 1.0001039,1.0001039 0 0 0 0.002,0 1.0001039,1.0001039 0 0 0 0.318359,-0.09961 l 7.574219,-3.808594 A 1.0001039,1.0001039 0 0 0 49.0625,41.089844 v -7.546875 a 1.0001039,1.0001039 0 0 0 -0.384766,-0.78711 1.0001039,1.0001039 0 0 0 -0.503906,-0.603515 L 47.935547,32.03125 52.449219,29.761719 A 1.0001039,1.0001039 0 0 0 53,28.869141 v -7.535157 a 1.0001039,1.0001039 0 0 0 -0.421875,-0.814453 1.0001039,1.0001039 0 0 0 -0.486328,-0.541015 l -7.478516,-3.757813 a 1.0001039,1.0001039 0 0 0 -0.896484,-0.002 l -5.445313,2.728516 a 1.0001039,1.0001039 0 0 0 -0.02344,0.01172 L 38.173828,19 A 1.0001039,1.0001039 0 0 0 37.974609,18.865234 L 32.507812,16.107422 A 1.0001039,1.0001039 0 0 0 32.023438,16 Z"
     id="path9-3-6"
     style="font-variation-settings:normal;opacity:0.05;vector-effect:none;fill:#8f1c00;fill-opacity:1;stroke-width:1;stroke-linecap:butt;stroke-linejoin:miter;stroke-miterlimit:4;stroke-dasharray:none;stroke-dashoffset:0;stroke-opacity:1" />
  <path
     style="opacity:0.15;fill:#8d1c00;stroke-width:1;font-variation-settings:normal;vector-effect:none;fill-opacity:1;stroke-linecap:butt;stroke-linejoin:miter;stroke-miterlimit:4;stroke-dasharray:none;stroke-dashoffset:0;stroke-opacity:1"
     d="m 32.056515,16.999996 -7.505857,3.774123 7.505857,3.773026 3.770514,-1.929825 v -1.878289 c 0,-0.03445 4.56e-4,-0.05185 0.01755,-0.06908 0,0 -5.66e-4,-0.01645 0.01646,-0.01645 0,-0.01725 0.01755,-0.0343 0.01755,-0.05154 0,-0.01723 0.01646,-0.01755 0.01646,-0.01755 l 0.0352,-0.03509 0.01646,-0.01645 0.01755,-0.01755 h 0.03401 l 1.524897,-0.757676 z m 12.108034,0.112937 -5.444824,2.728071 -0.32409,0.17215 -0.3241,0.154605 -1.383178,0.702851 1.383178,0.686403 0.3241,0.17215 0.32409,0.154605 1.092046,0.549342 0.291132,0.154606 0.290041,0.137061 3.771605,1.904605 7.477302,-3.758772 z m -20.28186,3.971492 -0.291138,0.137063 -7.231202,3.635965 7.145511,3.601974 0.08569,0.03399 0.291139,0.138158 0.291138,-0.138158 7.214729,-3.635964 -3.563973,-1.791668 -1.354614,-0.672149 z m 12.447519,0.232457 v 5.474781 l 3.481563,1.751097 0.291132,0.154605 0.136236,0.06799 h 0.03411 c 0.01705,0 0.01646,0.01755 0.01646,0.01755 0.01705,0 0.01755,0.01755 0.01755,0.01755 l 0.03411,0.03399 0.01755,0.01755 c 0.01705,0.01718 0.01646,0.03438 0.01646,0.05154 0,0 5.56e-4,0.01645 0.01755,0.01645 0,0.01718 0.01646,0.05119 0.01646,0.08553 l -0.01646,0.189692 v 1.71601 l 3.481574,1.75 v -7.516454 l -3.481574,-1.751096 -0.290041,-0.154605 -0.291131,-0.154605 -1.740237,-0.875 -0.3252,-0.171053 -0.32409,-0.172161 z M 52,21.334427 44.45569,25.144734 v 7.516449 l 1.092047,-0.549342 0.32409,-0.171053 0.3241,-0.154605 L 52,28.868419 Z m -16.172971,1.955044 -3.135502,1.567984 3.135502,1.585526 z m -3.849608,1.992326 -0.290041,0.154605 -7.186159,3.604167 3.413453,1.716008 3.772706,1.904606 0.290041,0.137061 0.290031,-0.137061 5.154792,-2.59101 0.3241,-0.172148 0.325191,-0.154605 1.382078,-0.702851 -3.123405,-1.562501 -0.290051,-0.153509 -0.290031,-0.138158 -3.482674,-1.749999 z M 16,25.339906 v 7.548245 l 0.03409,0.01755 0.326295,0.154606 7.231202,3.635964 v -7.547149 l -0.03409,-0.01754 -0.342776,-0.17215 z m 8.141968,4.18092 v 7.517544 l 0.03409,0.01645 0.325193,0.154606 3.413452,1.71601 3.772707,1.905701 v -7.517548 l -0.03411,-0.01754 -0.325191,-0.171053 -3.549687,-1.785088 z m 15.669803,0 -1.092046,0.549343 -0.32409,0.154606 -0.3241,0.171051 -5.445924,2.729168 -0.32409,0.171053 -0.03411,0.01754 v 7.517545 l 7.186151,-3.621712 0.3241,-0.154605 0.03401,-0.01645 z m 0.693235,1.953949 v 5.203947 l 7.214717,-3.635966 -1.387561,-0.70614 -1.902836,0.964912 c -0.01715,0 -0.01686,2.92e-4 -0.03401,0.01755 h -0.01755 c -0.05146,0.03446 -0.08507,0.03399 -0.102176,0.03399 -0.01705,0 -0.05206,-2.97e-4 -0.06921,-0.01754 h -0.01646 c -0.01705,0 -0.01686,7.85e-4 -0.03411,-0.01645 z M 16,33.542757 v 7.54715 l 7.591551,3.80921 v -7.548246 z m 32.062503,0 -7.573976,3.808114 v 7.548246 l 7.573976,-3.80921 z m -23.888675,4.100877 v 7.548246 l 0.03409,0.01755 0.326295,0.172148 L 31.748935,49 v -7.547147 l -0.0352,-0.01755 -0.3252,-0.172149 z m 15.731325,0 -7.213626,3.619518 -0.326291,0.172149 -0.03401,0.01755 V 49 l 7.214716,-3.618422 0.325201,-0.172148 0.03411,-0.01755 z"
     id="path9-3" />
  <path
     style="opacity:1;fill:#ffffff;stroke-width:0.99999994"
     d="m 32.056515,15.999996 -7.505857,3.774123 7.505857,3.773026 3.770514,-1.929825 v -1.878289 c 0,-0.03445 4.56e-4,-0.05185 0.01755,-0.06908 0,0 -5.66e-4,-0.01645 0.01646,-0.01645 0,-0.01725 0.01755,-0.0343 0.01755,-0.05154 0,-0.01723 0.01646,-0.01755 0.01646,-0.01755 l 0.0352,-0.03509 0.01646,-0.01645 0.01755,-0.01755 h 0.03401 l 1.524897,-0.757676 z m 12.108034,0.112937 -5.444824,2.728071 -0.32409,0.17215 -0.3241,0.154605 -1.383178,0.702851 1.383178,0.686403 0.3241,0.17215 0.32409,0.154605 1.092046,0.549342 0.291132,0.154606 0.290041,0.137061 3.771605,1.904605 7.477302,-3.758772 z m -20.28186,3.971492 -0.291138,0.137063 -7.231202,3.635965 7.145511,3.601974 0.08569,0.03399 0.291139,0.138158 0.291138,-0.138158 7.214729,-3.635964 -3.563973,-1.791668 -1.354614,-0.672149 z m 12.447519,0.232457 v 5.474781 l 3.481563,1.751097 0.291132,0.154605 0.136236,0.06799 h 0.03411 c 0.01705,0 0.01646,0.01755 0.01646,0.01755 0.01705,0 0.01755,0.01755 0.01755,0.01755 l 0.03411,0.03399 0.01755,0.01755 c 0.01705,0.01718 0.01646,0.03438 0.01646,0.05154 0,0 5.56e-4,0.01645 0.01755,0.01645 0,0.01718 0.01646,0.05119 0.01646,0.08553 l -0.01646,0.189692 v 1.71601 l 3.481574,1.75 v -7.516454 l -3.481574,-1.751096 -0.290041,-0.154605 -0.291131,-0.154605 -1.740237,-0.875 -0.3252,-0.171053 -0.32409,-0.172161 z M 52,20.334427 44.45569,24.144734 v 7.516449 l 1.092047,-0.549342 0.32409,-0.171053 0.3241,-0.154605 L 52,27.868419 Z m -16.172971,1.955044 -3.135502,1.567984 3.135502,1.585526 z m -3.849608,1.992326 -0.290041,0.154605 -7.186159,3.604167 3.413453,1.716008 3.772706,1.904606 0.290041,0.137061 0.290031,-0.137061 5.154792,-2.59101 0.3241,-0.172148 0.325191,-0.154605 1.382078,-0.702851 -3.123405,-1.562501 -0.290051,-0.153509 -0.290031,-0.138158 -3.482674,-1.749999 z M 16,24.339906 v 7.548245 l 0.03409,0.01755 0.326295,0.154606 7.231202,3.635964 v -7.547149 l -0.03409,-0.01754 -0.342776,-0.17215 z m 8.141968,4.18092 v 7.517544 l 0.03409,0.01645 0.325193,0.154606 3.413452,1.71601 3.772707,1.905701 v -7.517548 l -0.03411,-0.01754 -0.325191,-0.171053 -3.549687,-1.785088 z m 15.669803,0 -1.092046,0.549343 -0.32409,0.154606 -0.3241,0.171051 -5.445924,2.729168 -0.32409,0.171053 -0.03411,0.01754 v 7.517545 l 7.186151,-3.621712 0.3241,-0.154605 0.03401,-0.01645 z m 0.693235,1.953949 v 5.203947 l 7.214717,-3.635966 -1.387561,-0.70614 -1.902836,0.964912 c -0.01715,0 -0.01686,2.92e-4 -0.03401,0.01755 h -0.01755 c -0.05146,0.03446 -0.08507,0.03399 -0.102176,0.03399 -0.01705,0 -0.05206,-2.97e-4 -0.06921,-0.01754 h -0.01646 c -0.01705,0 -0.01686,7.85e-4 -0.03411,-0.01645 z M 16,32.542757 v 7.54715 l 7.591551,3.80921 v -7.548246 z m 32.062503,0 -7.573976,3.808114 v 7.548246 l 7.573976,-3.80921 z m -23.888675,4.100877 v 7.548246 l 0.03409,0.01755 0.326295,0.172148 L 31.748935,48 v -7.547147 l -0.0352,-0.01755 -0.3252,-0.172149 z m 15.731325,0 -7.213626,3.619518 -0.326291,0.172149 -0.03401,0.01755 V 48 l 7.214716,-3.618422 0.325201,-0.172148 0.03411,-0.01755 z"
     id="path9" />
</svg>
